<mxfile host="65bd71144e">
    <diagram id="HIP3nbAZw_EuaXWnEj3U" name="Page-1">
        <mxGraphModel dx="1086" dy="706" grid="1" gridSize="10" guides="1" tooltips="1" connect="1" arrows="1" fold="1" page="1" pageScale="1" pageWidth="850" pageHeight="1100" math="0" shadow="0">
            <root>
                <mxCell id="0"/>
                <mxCell id="1" parent="0"/>
                <mxCell id="7" value="http://ics2o.mths.ca" style="swimlane;whiteSpace=wrap;html=1;" parent="1" vertex="1">
                    <mxGeometry x="40" y="40" width="1170" height="680" as="geometry"/>
                </mxCell>
                <mxCell id="8" value="" style="shape=image;verticalLabelPosition=bottom;labelBackgroundColor=default;verticalAlign=top;aspect=fixed;imageAspect=0;image=data:image/jpeg,/9j/4AAQSkZJRgABAQAAAQABAAD/2wCEAAMCAggICAgICAgICAgICAgICAgICAgICAgICAgICAgICAgIBwgGCAgIBQgIBwoHBwgICQkJCAcLDQoIDQYICQgBAwQEBgUGCAYGCAgKCA0PDg8ICAgODQ0NDQ0NDQ0NDQ0NDQ0NCA0NDQ0NDQgICAgICAgICAgICAgICAgICAgICP/AABEIAtAFAAMBIgACEQEDEQH/xAAeAAEAAQQDAQEAAAAAAAAAAAAACAEGBwkCAwUECv/EAF0QAAEDAgIEBA0PCQYFBAIDAQABAgMEEQUSBgcIIRMiMVEJFDJBQlJhcXJzgbGyGBkjMzQ1U2KCkZKUorPTJFaTocHC0dLVFRdUVXSDJUNEY6M24eLwFsMm8fJk/8QAHAEBAAEFAQEAAAAAAAAAAAAAAAcCAwQFBggB/8QATREAAQIEAwEKCgYIBQQDAQAAAAECAwQFEQYSITETIjJBUWFxgZGxBxQzNUJScqHB0RYjNFRzkhU2U2KCsuHwFyQlQ6LC0uLxRGODs//aAAwDAQACEQMRAD8A2pgAAAAAAAAAAAAAAAAAAAAAAAAAAAAAAAAAAAAAAAAAAAAAAAAAAAAAAAAAAAAAAAAAAAAAAAAAAAAAAAAAAAAAAAAAAAAAAAAAAAAAAAAAAAAAAAAAAAAAAAAAAAAAAAAAAAAAAAAAAAAAAAAAAAAAAAAAAAAAAAAAAAAAAAAAAAAAAAAAAAAAAAAAAAAAAAAAAAAAAAAAAAAAAAAAAAAAAAAAAAAAAAAAAAAAAAAAAAAAAAHzTTNa1XOVGtaiucrlsjWol1VVXkRGn0kTeiaa6FwbROtSN2WpxNzcLgVFsqJUtetS5FTjJlw9kzc3YucwAh3p70YWuj0kz0UUMujlPK6nWmWJvTFbCjmtfWtncvCRzLlfJTx5mx8G9Gyte7jN2jartZ9DjVBT4lh87aikqWZo5ERUVFRVa+N7HcZkkcqOjdG7jNciofmNijVVRERVVVsiJvVVXkRE5z9JGytqq/sTR3CMMVESSmo4umETk6amvPU99Om5JPk2AL5000ypsOpKiurZmwUtJE+aeV/IyNiXXcnGc5dzWxtzOc5Wtbmc9pYGzztR4PpRSrU4VU53st0xSTZY62lVVVG8PAj3Wa/KuWWNzo3Wdlc5zHNbrb6LhtZ9O1iaM0Mq9K0D0kxJzHLlnrkS7KZ1uK+OjauZzeM3ph3Ga11E0jb0PHSWvptMMFbh8mR9TUpTVLVurJaJ6K+rZI1F4yNpo3TN7WSOJ3YAH6FjVR0S3bsxPDceo8NwOtfSuwnLU1ro1RWT1U8d2U08apwc0EVC9HOhkzN4SftqeNzdlusrTyDC8PrcSqVtBRU01VJzq2GNz8rU67nuRGNb2TnIfml1g6aT4lXVeIVLs09bUzVUq3VUzzSOkcjb8jW5srW9i1GgH6C9jbabj0rwOHEkY2Gqje6lr4GXyRVcTWOeseZXO4GWJ7J48znK1r8quc6JzjPJp+2QtLMQ0T1e6QaRNcjH4jUwwYQx7UdaZrlo31qI5XRvRsr5HNjdHxukVzZmvJJ9DE21XaQUT8JxOd0mM0OeVJpXXfX0b5FdwqL8LTPekEkfwfS7m5s0vBATuOjhm3y3TNbNlul8t7Xty2zdc7zSFiG2HPhesyvxmeodPRR4hU4VUIxzpGf2THJ0sjYmpmu2Dg2VrY4/bJo1d/znOAN3oPOwbFoqiKKeCRksM8bJopY3I5kkUjUfHIxycVzHxqjmu67VNJe1pt14pLpis9NWVSYZgeKRtpaFkjqeKXpGVjalZms9tWpqYpm56hrnNhe1uVvGaAbxQQh26dtrE9H8IwLE8HpIHR4t7I99fG6RIGPpo6iGBzIJ40SaRsj1zNkc1vAPbxs+ZsFMW6MDphIlmOwynXtoqFVVP088zfsgG8kH519Jtu/S+rqYaubH65s8DVZH0usVHEjXXvnp6SKGklVcy8aaNztzeNxG5bK0h2kNIavN0zjuMTo9VVzJMSrHM3rdUSNZ+Da34rW5WgH6XQfmI0Q1tYnh9VFWUdfVQVMMjZWSsmeq52rfjtcro5Gu6l0cjXRyNVzXNc17mkz9MujLaSTRRx0lJhtE9ImNmn4OWpkfMjUR8sTZZGwRMc67mwyRzZb+2OAN1APzvaU9EB0zrGq2bSCuajty9K8DQr5HUUNO5vyXH16k+iB6U4HUSTx4jNiLZWZH02LzVNdTqqK5Wvaj6ls8T2yOc7NDNHmvxswB+hYH59tY3RJNMcSV6OxiWjifyQ4dHHRJGi8qMniZ0/8AKdUOcYlotI9IMWkeyOfGcTlciK9jJa2tkVL3RXta6Ry8ZOy5gD9MSKVPzbaqtofSDRmrb0jW1dHJSySRy0E6yLT5kkVJ4Kihl9iRVlRzZG8G2Rrrua6ORuZu+PZN2hY9KMDpcWZF0vJIskNTTo7OkNTC7LI1ruqVjm5Zo83G4ORmYAzMAQv23eiL0GjUc+H0D463HsqNSFEV1PQK9t2y1b09jWRqWkbRNdwjuJn4Nr2ucBMJcSjSRIlkYkqtzpGrm8IrEWyuRl8ytvxcx9x+ZjSrXpi9diceMVdfPPicL4JIqtytzxOplR0HBNajYo2skTNkja1uZXOy5nOzb7diXXTWaQ6NYfilfE2Kqm4eORzG5Y5+l55IOmGMvxEl4PM5vU8Ij8vFygGegDD+u7auwDR2zcXxKGmmdEs0dK1HzVUjLua1zIIWSSI18jXRtkkyx5mu43EdlAzADQRrz6IrpBiOOSYrhtfWYXTxpwFFSRTextpmqqtWqh41JPNK5Vlk4RsjWuVrW8WnjNrnQ99ftXpHo1T12ISsmroqiopKqVkbIuEfE5HRvdHG1sTXupJInO4NrW5ruyt6kAk2AYZ2qtpGk0WwifEqm0kvtVFS5srqurei8HEi9UjEsskkjWu4ONr3cZ2VrgMzA/Nhp7tRY9iOKJjFRidWldHMs1M+GaSJlGtlajKSNr8kEbYlWPLH1TVfn4R0sjnbd+hz7dC6UUz8PxJWtxqhha+SRuVrcRp0cjFqmxsY2OKWOR0bZoo+LmkZJHlbK6OICbAIMdF20sq6TRukko61aOX+16ZzljqHU9TIxkNSqJTuY5sznRzrFK5sfUtbm7Ag/qF6LNpHhLWw4hkx2laiIiVb1irWoiIiI2uYyR0nbOdWQ1Mjr9U0A3jgjlssbc2CaVsWOkkdS4gxqulw2qVrajKnLJA5PY6mLtnQ8aPi8JHFnbmkaAAAADwdMtLKegpKmtq5EhpqSGSonkdyMiiar3rzqtk4rW8ZzrNae8atOjIbSrmNptGKWS3CIytxTKvKxHXo6V3cc9q1cjfi0juzAIpa4eiN6R4hjaYpSV9VQ0tNUZ6DD45Xx0zIGOTLHVxRPayrfKxPZ3TOdmzva3IzK1u0LYb29afTBtVBLTMoMSpEZI6mbOszJ6Z1mrUQq6ON6JHUrwckXG4PPC7hHcLxdBpNToRyu/8AzOntnt0hX5siojcvBJ7Yi9UzhMvFb/zODd2ABvUMZ7QGvOh0cwqpxSukRrIWKkMWZEkqqlWrwNNC1eqklenyWo+R2VsTnNtvaX2ucH0WpXzV9Qx9U5iupsOie1aypct0blj5YocyLmqZssbbO6p2WN2izaY2osU0pr1rcQltGzM2koo1clNRxKt8kTF6qR1k4Spd7JI5G9S2KOOMCVWoHov2NQYg1NIeBrcMmkesrqekiiqqRr8yx9LcE+GOWKJ6tR0dRwkzo0d7I5ycbcNgmNRVMMNRTyNlgnjZNDKxczJIpGo+N7VTla5io7yn5aj9CnQ68Dmp9DMCZNNwyvpnTxqrMixw1E0k8cK8d2fgmvytk4uZuXioASUBjnW9r9wbAIo5cYxCChZLnSJJVe6Wbg0RZOChiZJPJkzNzcHG7LmZ27TTtth9EfxLGMYimwKsrcMw/D1c2jWGV8EtU9ypwtTUsY7K5smVGR002ZrYk4zc1RK0A3nghH0LnaixLSTC8Qbi1Q2qrcPqo2pNwUUUjqaoizRcI2FkcTnNljmbwjWtc5qNzZncZ3T0R/bNxnRJ2EphlPRvZXJWLNLVxSzNR8C0+SNiRTw5HZZXOdmc7NduXqHAE4gaM8Y6L1pjKioyTDadVTqoaFHKndTpiaob9Jph7HtunS+pq21smP17ahsXApwD2UsPB8bctLSxw0TnZnqvCOhWTczjexMygfotB+Z3SHaHx+rulVjmLVCOVVVsuI1kjN/LZjp8iJ3GtPP0J1xYrhtSyrocQq6aoYt0kjnkRVvdFR6Zsr2uRVzNkzNdcA/TkDCWyVtI02lOC0+JQq1tQjUhxCmby01axreFYiK5zuCeqpLC5zuNC9mbjNe1t26+NMnYdgmL17JGRSUmG1tRE96ojWzR08jor35V4dGta3snKjeyAL5imat7Ki2XKtlRbKnWW3Iu9OL3TvNOHQktqfpPFarBcRqHLHjUqVFNLM9zlXFeR7XvdxlkrobN4SR3GmhhbxnVBsA2ldvDANFncBXTyVNcrWuTD6FjZqlrXWyvmV8kdNTtVqo5rZpGyObxmtkAJHg0wa6ejG47WK+PBqamwiFVVGzPRtdWqiO3OzTM6RjzM6qPpaTLdcsruqIh6abS2kOIve+txvE5863Vjq2dsKdxkDJG00bfixxtaAfpbB+bfUbtPYvgWI0tfTVtU9kEzXy0r6mZaeqi6mWGaNX8G5HxK5rXOa50blbI3jMafom0E0xhxGho8Qp8/AVtNBVw52qx/BVEbZWZ2rxmuyOTM0AuIAAAAAAAAAAAAAAAAAAAAAAAAAAAAAAAAAAAAAAAAAAAAAAAAAAAAAAAAAAAAAAAAAAAAAAAAAAAAAAAAAAAAAAAAAAAAAAAAAAAAAAAAAAAAAAAAAAAAAAAAAAAAAAAAAAAAAAAAAA1H9G01gZ67BMLa9bQU1RXSsRdyuqZGwQqqds1lNNl8Y424GgLonWmy1ummLb7spOlqGPuJBTxrIn1x83zgHg9D+1Q/wBtaWYTTvbmgp5v7QqeS3A0XszWuReVstWkMDk/7puT24dqKPRXA56trmLiFQjqbDIXb1fUvbvmVvXipGLw8nYutHHma6oaawehqa7MH0ZXHsbxWZrZWUdPTUNKyzqysWaWWSVlNEqtu3hKaFsk7sscd0zOb2WANqDaZxDSrE34hXKjGNRY6OjY5Vho6e90iYq5c8juqmnc1rpZOxY1sUcYGKcSxCSaR8sr3SSyPdJI97lc+SR7lc973Lvc5z1VznO5ybnQfNAOmtK3VbmqrMMw+pnR3WSadWUkaL3XQTTu+QQWJYbBm2PTaHSYxPPRzVklZSRR0rIliY3piGR7mtnlevCRQObIuZ8LZnZmt9jd1TQJr9GP2g20uG02j0EidMYi5tVWNaqXZQ077xMciLmTpnEGI5ru1pZm9mapdV2r6oxbEaLDKVLz11TFTR7lVGrI5Gukcib8kTM0rl7FrXOPr1w63a7HsSqcUxGVJKqqfmdlRWxxMRMscELFc7JDFEiRtbmc7KmZznuc5zp89Bq2fFnravSOoZ7DRNdQ0CuTc6rmai1Mre7BROSG/ZdNP+CAMqdFYwumwfQvBsGpVRkcddR08MeZEc+Cjo6jM9zeqenCrE6R3wkjM3VtIn9CO0X6Y0xgltuoqCuqVWy7s0baRN6LuX8p7Iyb0ajWZw2L4VhLW2Sgo5Kt77pd0lfIjEZa2ZODhpGu6rjcN8UipspbWVZojUVtXQ0lHUz1dKlMjqtJlbDaVkuZEhmhc5rsvGjzNzWZxm5HNcB+ieurGxsfI5bNYxz3KvIjWorlX5kPy86VYqlRVVM7UytmqJpWt5kkkc9E+Sikitb3RHtLcZZJDLiS0dNK3K+mw2NtI1W34yLO3NiCtkbxXRuqcrm8Vzcr3Zo86F6LyVtZSUcSOWSrqYKaNGpmcr55GxtsnXXM4A/QHqh0+jw/QLDcRqUWOOj0ZpaiRq3urYcPY5Gp1Ls0mVGty9k5D891NSvmkayNqvklejWMbdznPe6zWtvdyq5yohvR6JvJ0hoHWU1OqRx3w2ia1LJ7CypgTg2/7USNt2qONVfQ+dAG4lpjgcD25o4qpa16WVUtQxSVbL26zp4Y27+cA3LVuyJQ4loph2jWMLNO2ko6OPpmOTLUQ1VPCjOHp5HpI1qtzSRtbI2RvBuyua5pGvTDoT+hmD0lTidfXY4+koYJamdslVRoxzI2KuW0OGxzq5zrNa2ORrnOVjTY2a8+jIa6ek8DpMGidaXFqjhJkT/B0SskciqnJnrnU/hNjlANPUOGrU1DYaWJ6unmSOngzcJIqyvywxZ8kfCPzObHmytzO7Fp+g/Z92NsDwbDcPgfhWGT19PTRsqa99DTSVE1QrUdO/h3xOnyunV2VubitRjewNXHQntnxMX0h/tGdiOo8DbHVKi8j62RXJRNtbfkfHJU+FAztzeSAarejU6qY2Q4JisKQxtjfPh0kTUax7uEb0zA5jUTjMZwc7XdrwkXbmvPUNo7gdTXZNIMRqcNw9sT3rLS0rqqaWVFajIWo1knBI5rnScM6ORvseXL7LmbInopm0YmN6QuooHq6hwVJKOOytVklZn/ACydqsc5qpwjI6dviOxzuMRartiPSnGqKPEcMwiWpo5Xvjjm6Yo4UkdG5WvVjKiqhmcxsiKzhWt4PM1zc2ZjgCYuz63VDBV01E1KvE6mqm4JlZjUUiU0av3sbKxUpaFjHPRsbZHUznZnNzOy5nNmbtFbAeBY7hKYdTUlJhEtO901DU0NJBE2GZ6WekkUTY0mhmRG8IzM1znNY7NmYazNV/QmdLK6pbHXU8OEUyKnCVNRUU1S5G9dIaejnmkkkROxkdBH/wBxpuZ1Nar4sFwqhwqCWaeKhp2wMlncjpXo263cqJlRMyrlY3ixtRrW9QAaONrzY6bofS0ENZVpV4piE88qOpszaOCgp2RMyqksbZ31EtbNmzdS2OHqcz8zrg0f6JxjlHo7FgVDBRUUsTeATE6aJsU6UqMRrWsgY1tMyq3K11fxnOaqOytl9nd2dFe1lpiGl9TCx6ujwymp6BONdnCtR1RPlTqUc2eoWJ3xovink7NvQ2cf0lo4cSgfRUWHzvkSOerlk4SRsUjopHxQQwyOVGzsfH7M6HNlXscrnARz0O0NrsXroqOjimra+slVrGNVXySyPu573vcu5G8aSSaR2VrUe5zmta5x+g/Y92ek0XwCjwpZGy1Dc9RWSsvkfVzrml4O6NcscbUbBG5zWuc2NrnNa52U1G66Nm7G9W1bh+K0+M0Dql8itpkpnubVq3I/hlmoZo8slE5qcE6TNI3M9jXNa5zTZTs57e9NjOi2I47URNgq8Gp5nYlSsXiLLFA6aKSnu90iQ1eXLG2TjNkSWPNJwXCSAWD0SLb8XR+P+xsHlT+2p2NfPO1GvTDad+9q2ejo1q52e1xua7g414R2XPBn0/aF6DYljde2looKjEK+qkc7K28ksj3uvJNNI9crW5nK+WpqHNa27nPc3qhjGMV+OYo+aThKvEcTq72Te+apqZLMjYiruThHNjjZ1LWoxvFa031bFWyFSaJ4XHEjI34pUxsfidWnGdJL1XARPVMyU0DlVkbWtbmssjuM8A0+7QXQ/NINGsPbieItpHUy1LaZ3Ss753xOe1XRySosEbGxSPRYmuzOdwlmua3OzNNzoNe0Lw1JV6NVD04SiV1dh6LZFdTTSflcSJ1+BrXpP2TndMv7GInftBaJYbXYLiVJi8kcOHTUsqVM8jmsbTtamdtQj38Rr4JWtma53ZMafn52Z9aP9haR4XiTXq6GlrmJK5qObwlJI5YKhUb1XHopHuax3xbgH6NtIMcipYJ6mdyMhp4pJ5XuVERkcTFke5VVbIjWNV3GPzd7R+u6fSLGq/F58ydMzLwETlvwFLHxKaBOM5qKyma3Nl4rpFkd2ZtW6LvtF/2dgsWCU0lqrGVVZ8q8aPDoXIsl7cZOmZ8kHaujbUtNPGh9TTR1dPJWxPnpI5o31MEcnAyTQteiyRMlyScG58aK3Nl4t+x6oA9TSnVXiNFR4fX1dLJBSYo2Z9BK9WJ0wyncxkr2sR/Csbd7MrpGtbI1yOZmbxjZ/wBBI08z0OOYYq74Kqmro050qonQSW7jXUsf0yIu2Pt3RaV0GH0EeBxYVHh0ueBzKzpnLDwKw9LsYlFSsjjypE7i5vamGB9U+vDFsCmlqMJrZaKaaLgZXxJG5XxZ2yZVSRkjfbGNdmy5uXtnAH6JdoTWF/ZOBYtiSKiPo8PqpolX4ZsTkgTf21SrG+U/OrpxrWxjGn0zcRr67E5IW8BSNqZpaqRvCOS7Y0e5z3SSvyo53GkkyxtdmyMy7Fdp/aVxvENWUNRjVJDRVWM4lT0sXBcLEtXQRZq1lX0u/M6BJZKZseV0jmzR+zNytqImmrAAnhrJ2GcEwDRWWox3GI6XSqWNlXTYcyZkisS3Fw91LGkk8rpc/s1bxYYZkiyu4OGV1TgTYl1kT4VpVglTBvWWvgopWqqo2SCukbSStdblysl4Rv8A3GMd2BZ2rfUjjePTOTDcOrsRe6RUlmiikfE2VyZ3LUVTvyaJzr5s1RK3NmTt0NmGwx0Laowutpsb0hfElRSubPR4bA9szYp0S7JaydG8C58D1zNhpXSN4RscnDuycG4C9+jKaKtm0Ypardno8VgVF6+SeGoie1N2+8nBu7HqPkkZ+h6bF2j+luBYguIR1MNfS4lwba6kqXMlSnfBDIyNYZeGoFThUl43S2bK7q+LxZB9Ge1jNgwLD8MRWcJiFdwzmrfOkFFGquc2y5U/KZ4W8bNyr4Tba6DVUQUeBY/iNVNHT06V0TZZ55GRwxspaThXuc56taxGxzq5znOy5cvauAIlbWOwjjOhcsOI01S+qoGztWnxKlSSCoopmuasPTLWOd0tI59uDnjlc1zm9VG57YzZJ0N/bLk0pw2WnxBzVxjDeDbUua1GJV077pDWIxEbG2RzmujmZHxWyI2RrY21DI2x925OijYZVYdWYLgLFrlrYZKapr5oVZSxwyIrJW08UzGzTzOZdrZZI4447tkbw/Y4q6C/o7Uv0ir6pjH9KwYTJDPIl+DSWeppnQRu7FXObBNI1v8A23gG58AAHhaZaWQUFJVV1S9I6ekglqZ3r2MULHSPXurwbV3H5rddetOfG8WxDFqj22uqZJst78HH1MMKL12wUzY4W/FY022dGG16LQYHT4NC5WzYzMqyql0tRUbo5JG3Tk4WrdAzL2UaTNNLaNAKHsaN6UVNFMypo6iekqI7rHUU00kE0aqitVWSxPbI1VYqt4rupVTcZrM6GHTYjonguH0j4aTGMLpc7Kl6O4GqnqkSathqlajpeDfWqro5csjoLZWtyvc0gjL0LPTdJli/shitR+XphMRw7gVbe3CperbPky8a3A8J8XNxQCLuPaQT1U0lRVTzVNRK7NJPUSPmmkdZEzSSyK6R62REzOd1j2tHtWNfVUlZXw0z3UNAxrqurdaOniV7442RcLIrY31EkkjMtLG50zruc1uVjnN2ZbPnQY443sqNJa5s6It/7Pw50jYnb9yT1r2xzq1zdzo6eOJ3aznu9FtfSYPoxhOB4dBDRU1RiCvSmp42xR8DSRPe/isy3V1ZPDI57sznOTM7M7jAGoI/TfqQwh1PguEQPYkTocMoInxoiNRjo6WJrm2TcmVyK3yH5wNUeAuqsVwymYl31FfRwtS2bfLURsTi3S/Kby+iRbRX/wCPaNVHAyZK/E82H0WVbPZwjF6ZqG24ycBSZssjepmkp+2ANS+35tDu0j0jrJ2OVaKic6goGo67eAp3uR86ZVdGq1NTwk+dv/LdC3/lGHp9VWItwtmNOpZG4ZJVrQsq3KxGPqkjdKsbGq/hnI2NjvZWx8Hma6PNmblLVgtmTN1N0zWWy266IuV1lt2WVxMXXzt80WK6NR6L0OjzcOoqZabpWd+IdMSRpSvzJIsTaGFqzTxrJwjnSO400ruM7jAGT+gpadcFjOLYcq2Stw+Opb3ZKKdG2Tu8DVyO+SbLtpPZlwzSmgbQYmkzWxypPBPTPbHUU8qIrVdG58ckSo+Jzo3Mkjka5q9TmY1zfzyattZ1fg9WyvwypkpKuJsjI5o0arkbKxY5Es9ro1R0blTjN+Nuc1pu46G3r80h0gwiWoxqmjSKF8cFDiKNdFJiKMZlnfJCqcG9Y5Wpmq4eDjkke+NsbXU8jgDCWtXoX2hmj+GVuMV1ZjU8FFTvkWGWso2NmlWzIIUWHDo5c89W5kLcsnVPQ1R6H6JzV9ZTUNK3PUVlRDTQMVeWWeRsUaKqJuThHJmdlNqvRpddXBUeG4BE+zquR1fVtaqX4CnvHTMenay1bpJfCpmmF+g+7PnT+MT47UMRabCGZKe97OxCoaqNcidS5Kaj4R7s3UyS07m9QAbNNUmyTo/hFLSQxYThj6impoYH1z6ClWqqHxsa180s6w8K58srVkdxuqU1ddGQxeJdJaOmiyIlLhECPYxW5Y5JqmqkyqxvUP4DgnZXdi6N3ZtN1x+dDbm1l/2vpZjdYjcrErHUkaIqLeOga2ia+6Jv4XgOF+Lny9iAbBOglaL5MLxutt7fX09Mi2Xf0rTrIu++VU/KyRvRJtIGU2heNq9L8LFT07Eva756uBje/lusnyVNU2z90RPGNGMHTCcMpMNstVPUvqqiOollcszY0tkZVRxZ2cHlz5XNyIxuXM1znY1117XukWkTeDxXFJ56dHK9tIxI6akRb3bmp6dkcUqx2RI5KjhJG8bjcd2YDy9lyZzdJtHnNar3JjWF2Yl7r+Ww8yHo7Yj6hdKtIVqmvZN/a9dxZEc13BcO/pdyI/jZHUfBOj7Hg1Zl4uUyn0LjV/0/plhzlYro6BlTXv4t0asULo4XOXsctbLC5ru2Rpui1p7N2A44qOxbCqOtkRvBtnkiRKhsaKqoxtTHlqWsRznOytky5lUA/N7oziUUNRDLPTsq4Y5GulpnySxNnYi8aNZYHxzx5m9nG5rmm33YU0g0B0lgkw+n0Xw+ixCnp2yVFLV08VeskLZGs4Wnr6hJKudjZOB4ThuCkzPb7b7YX/pp0JXQ2pic2npqzDXrbLLTV1RKrVTnbXPqo3Nd2XF6nqXN6o1VUOmS6G6UumwPFW4jHh1Ska1ccb4IK6Hi9NU0seeTPC5yOhc6N0jHOYyaN3Fjc0DeS/ZC0UVET/8AG8Csiou7C6JF3b96pBmVPiuMsU9O1jWta1Gta1Gta1ERrWolka1E4qIjesVo6pHsY9OR7WuTvORFTzn0AAAAAAAAAAAAAAAAAAAAAAAAAAAAAAAAAAAAAAAAAAAAAAAAAAAAAAAAAAAAAAAAAAAAAAAAAAAAAAAAAAAAAAAAAAAAAAAAAAAAAAAAAAAAAAAAAAAAAAAAAAAAAAAAAAAAAAAAAAAA0vdF52cX4fjDMep43dJ4uiNqXNauSHEIWNY5HKiZWpVUzWTN7aRlWboTw9K9EaWup5aSsp4aqmmbllgqI2yxSNvezmPRzVyuRHN7VyNcAflzM37MWyTi2lVY2noIXMpmORKvEJGuSkpGbldnf/zJ8ipwdJH7JJdHcWNkkjdweG9C40JjmWf+ynyeyZ2wyV1a+Biot0ajOmMz2Zv+XM6RrupdmaSf0a0WpqKCOmo6eGlp4m5Y4KeJkMMbeZkcaNjb8loBGap6Hlg0WilZo1SRta+qjSVcQlai1EmJQpmpqqZzcrskc/F4CPK1sL5Y2+2yOdoh0u0WqKGqqKOqjdFU0s0lPPG7qmSxPVj2rz8ZF39kfqOIq7RvQ59H9Jq+PEqvpukqrI2pkoJIYunWsajY1qElppk4WNjUjbPHlc6PiuzZIeCA0kahtSVdpFilNhWHxq+ad13yKirHTU7VThqmdU6mKJqp4TlZG3M6VrXfok1KapKTAsLo8Jom2p6OJGI5URHyyKqumnktuWSedz5nfGdu4uW1t7Omy1g2i1K6mwqnc10qtWpq53JLWVTmpZqzSoxrcrbrlhhZFC1znubG10r3OzCAfnB2xdPZsT0oxyrmbKxy4hPAyOb2yKKld0tDG5LNyq2CJvF7HfxndU7J2xP0Pqs0vbJWOqmUGF09R0vLNkWWomla2OR8VPFxYuLBI3NPJJljc9mWObjNbsH1+dCgwfHMXkxSOtqcN6aldNX08EbJUqJ5HufNPFJK/wDJpJXOVzvY5o83Ga1uZ2aV+p3VFRYFh1NheHRrHS0rVazOqOke57lfJLK9Ebnlklc5znZW8vFytytANT/RINjTA9FMHwhcMp6h1RUVksVTX1NRLLLIxkCubG6NvB0DM8iq+8cEbvY+y4xjboUej8FRplRrPCsqwU1ZUQL2MU8cVmTPTM26NY97W9VlkdE7LxMzdz2vbUbh+keGzYXiUbn08qte18bkZNBNGt454HqjmslZdeqa5rmue1zXNe5rrB2ZNifAtE0kfh0UstXMzg5q+rkSWpfHmz8E3IyOCGLPZXNhjj4TJFwjpeCa5oGOOix6HzVeh1U+FXfkVXSVkrG9nC17oH3+Kzh0m/2zXR0J/EGR6aULXI1Vlpa+Niuvdr+lXyXZbkdkje3jdi5xu/060NgxGiq6Cqbnp6ynmppm9dY5mOjfZes7K7ir2LkQivsydDLwfRrFGYtHWV1bVQslZTNn4GOGFZmLE+RWRRtdJJwDnxtzO4NvCPdlc7g3MAmUaZ+jU006aQYY97FSnXCWthkzXa+RlXULO1G9i5jXw5u2zsNzBHva82NsO0wpIYauSWlqqThnUVXCjXLC6ZGI9ssTuLNA90cbnR5o3cRMsjADFfQk8BoYdEYZKaSGWqqaqplxHg3NdLFMkjooYZkT2RitoY4pGsk+Fc5vFlzE2CLexBsRx6GQ17f7QdiE+IPgWSTpdKaKOOmSVImMi4aZ6uzTSOdI6TjcRrWtyOc+UgB+Y3XVgrqbGcWp39XBiVdE7da7o6qVirbrJuJS6G9Fm0jw6gpMOo6HAoaejp4qaDLSVqvSOJiMarldibmOe62ZzsvGcrndkbEdpPoZ+AaSVz8SkkrKCumROmJKR8SxVDmtaxsk0M0MjeEbExrc0Loc3VOzO4xiDCugm4Gi+z4xi0ic0TaOFfnfT1HogEJ9OuihaZ1yZUxJtCzLlVlBTQwK5VVePwr2TVbXWXL7HM1u5vFzcYnd0O7a/wAWxLRzGZ8XZJUNwCnV0WJuY98lY2OnnnfDUOV/5RVU0cceaRuV0kc0PCeyP4SW6tC+hEaH0u+ePEMSW9/yutdG1PiolBHR8Xws3KS30R0BoqClZQ0VJT0tHGjmspoImRwoj7q/iNTKqvcquc53Gc5Vc7NmAPzGY9jUtTPNUzOzzVEsk8r15XSyvWSRy+FI5XeUnDiXRXcRpMKosH0ew+DCoKOihpG1U70r6tViiYxZY0dDDRxvdIj3OWaGpzOdm4vUkkcc6CvhctfWTx4vVU9DMkrqSjjpo3SUkr7KxH1L5HNnpon58sXAwyOj4Jrp8zHSSePoP0EeljnR+JY7NU06Lvgo6JlJI/mvPLU1TWN7ZrYHO38VzQDV/prp5iOL1a1NfVVWIVkyoxHzyPnldmcqsijRc2ViSPVI4I2ta2+VrWmyrZJ2IsapNDdKZKiKSGvx/DViosNejo52sp2TPiWdrva56uSVY2wSNa6NqNzOb0w5sU5dSOxvo5o6vCYZhkMdT16uZX1VXvREXJPO6SSFrmomaOn4Nru1M3AH5jdVOsurwLE6XE6VsXTdDKskbKiLhI8+V0bmyR3a7qXObxXNc13Ga5rmtcS9xLozOlj22bTYJCvbxUdWrv8AzYjNH9knntC9C/0c0gq34heqwysmc59Q+hdEkNTI9UV000E0MjElcqK50lO6HhHOe5/COfmMPQ9BKwfhEV2NYmsPXjbFStkXvSqx0afoXAGtPXZtP49pG9HYviM1Uxrs0dOmWGkiXjWVlNC2OBHta5W8K5rpMvVOcZH2KNi7E9J8Qppel3xYPBPHJWV0rHNgkjikRZKamcrcs9RI1qx5Y8zYb5pMvFa7azqm6GXohhMjZkw92IzM6mTFJOm2pyb+lskeHK66ZszqbM3scpKOgw+OJjY4mMijYiNZHG1rGManI1rGo1rU+K0A/PHtz63Zca0pxapfnbHBUvw+liejmrFTUL3QMbkc1r2K+VslQ6NzczZJnk1dSXQs6PGdDsMlkqVw/Fq57cSWtSBam1HM1eAo3QrPDeNaZY6nM2SNzZnOvwrWNJG62Ohd6OYxjT8ZqH1sazyNmrKOCVjKaqmRbyPc5Y3VMXD/APMbTyR9k5ronPzEtcFwiKnhip4GNjhgjZDFGxLNjijajI2NTrNbG1G+QA057QGwDo1ohh7p8bxjGKysqI5m4dHh+HspaeWoY1Mkc00zK6mYjXOSSRrqmGV0bZXRtdkIbbPdNI/HsEbFHwsi4th2SPLnR7kq4VRqt7Ju7jfFufob2gdRlHpJhVThFcsrIKjg3JLCrEmilie2SOSNXskaitkamZHN4zVe3szCey30N7A9F6r+0I31GI4gjVZDUVaRoylRyK17qaGNjUZJJGqxumkdI7Lma3g2yyZgIzdG7xuoRmj9KjXJSOdXTuflXI6oYlPHG3N1KOjgfK7L2snxTXFo1qWxWsw6sxaloZp8Pw97I6ypjyuSBz2q9FfGj+H4NsaZpJWxujiarc7m525t/wDtTbK2H6W4fHQ175oXQTdMU1TTqzhYZcjmOSz2OY+J8bsro3dVZjszXMa49jZ32d8O0YwxmF4ekjoUkkmllqFY+eomlsj5JlZHHGq8G1kbUbG1rY2Mb8ZwGivZr228f0WVzMOqGy0j1zPw+sa+ejV68sjGNkjlgkd2T6eSPhLN4ThMjcs69BOjc0jt2KYFUQqiJ7JQVUdRmXr+w1DKXIn+9ISG169DH0Wxtz5mUr8Kq3qrnT4YrIWPdvX2WkcySiXM5yuc6OOGR3ZSEM9KegmYwyVqUOM4bUQKvGfVRVVJK1t03tihZXRvXLfiumj5ADE3RNdeMeP4rhNdSveuHzYJT1FGx7WtkjWapqmVLZUa+RqTMq4Vp5MrnNzQcXN1ToiuxaXgkp+Fk4BJFmSHO7gklc1rHSpHm4NJHRNax0mXNlajexN1WOdCfwqswbBMOqK+qbVYRHLE6ugjhRamKpqX1c8KxPY7LGypll6Wc5znRte7Nw+YzhqK2HtGdHkjdQ4bFJVR2Xp+sRKqtzo3KsjJZG5Kdzm9U2jjp2714oBqT2Zuho6QaQPjmqIXYRhiqiuq6yNzZ5Gf/wDLRuyzyq5LZZJuBhyrmbI/Llduc1CagMN0aw6PDcMiVkTVzyyvVHVFVOqIj6iokRG55XNaicVrWtajWsaxrGtMnAAAAA1OdG+weTh9HqjKvArFiEOfrJIj6Z+VeZXRrmb3ndqYP6FRqAXGNJGV0rIZKPBEbVTsmTPnqJWzMokYzqVdHVsWpzO4reATsntNte1NsxUOlmGf2dWvkgyTx1FPUwo1ZYJWI5qqiP4rmyQPfG6N3bZuqY0+XZQ2UMP0SoJaOhfLO+onWeoqp0Yk0rkTJGyzGta2OKJMrWds6V3/ADQDOQAABq86N9QSrTaOzInsLJ8Rje7LySyR0jo0zX3Zo4peLl7Fe1NoZYmuDUxhmP0TsPxalbV0jnslyK+SJzZI1uySOWF8c8b23VuaN7czXPa7M17muA059CV1ILiekqYhIzNS4LEtUrlRFatZNmio2Lfsm+zVLV7F1O3tmnydFg1wS4jpVNRLnbT4NFHSQxuRzUWWVjKipnRrmtdeSSRkebqZI4IXNzNdmN0OrfVRhuD0zaTC6KnoadLex08aMzuRLZ5X+2zSZf8AmzOdI7tjAG0x0OXA9KMRjxOqlraSpyMiqVpHxIlUyNESLhEmhmRkjI04PhI8uZuXNmyNAIZbEXQ7KPSHRKsrKyR1NW4lUK3DaxsayrRwUcnBvckKyRtkSpqWzQyNzNdwcbMsjc7jlrJ6GRo7ovQyYjpHj2K1FMjkjY3CsLSF6yK1ysjdJIuIQRrK5uRslQ6njzKjc/HNqerzV9R4TRU2HUEKU9HSRpFBEjnPyturlu96uke5z1dI58jnOc5znOKaxdAafFaCsw2rRzqatp5aaZGKiPRkrVarmOVrmtkbfM12V2VyNcAfmPqmNdK5IWvVivVImus6VWqto2uyNRHPtZOK3qj9Puh0b0o6VJGJHIlNAj40blRj0ibmYjU6lGuu3L3CIeoLoVej+B4hHiUk1Xic9PJwlJHV8ClPBI1145liijas08VkyvkdwbXeycHmbG6ObABo+6MTTzJpc10jFbG7CqPgHXuj40kqEcqdrlqeEbl7mbszYl0MrRyhptDsM6TlhmfOktTWvicxzkrJXq58U+TjJLBBwVPlk42WNnxT19srYfw/TCGBZp5aKvpGSNpauJrZGo2SyuiqIHZeGi4RqOajZIpGuzZXcZ7XfbsV7Iseh+HVFG2tdXzVVStTPOsKU7LoxscbI4eEmc1Gxt4znSOc5yu6nitaBf8AtHacy4ZgOMYhAySSalw+qliSLq0kbE7I9Lo6zYnqkrnZXZWsc7K4/NRLKrlVVVVVVVVVVuqqu9VVV5VP1GaS6PQVlPPSVMbZqeqhlp6iJ98ssMzHRyxusubK+Jzm8XnIGYB0GrAYsSdVzVtbPQJNwsOG5Y2I1ubM2CeqV0ks8Lfa+LHDI5ts0nVOcBgTZF6Eq7FaSkxXHa19PSVcMdTT0NGidNSQytbJE+oqJWOjgR8S5uBjjkdlc32SJ2ZpH7oieprDcB0jdh2FUjqSkjoaSRGumqJ1lkka90k2eokkdxnex5Y3cH7GuVreMb/oIEaiNaiNa1Ea1rUREaiJZERE3IiIYB2pdiPBdLlpX4j0zBUUl2x1VFJHHM6By5nU8nCwzRPj4S725o80blflc3hZGvAiX0EnR+DpLHKrgV6aWppqdaheRYEidI2FnG3K2dXPk4rc2aHjOyNy5d23eiKy6IYnBh0eENruHoWViTvrFp2tc+aeHg0jbSzK9G8Dmc7M3q07Uk7qY1I4Zo/Qsw7CqZtNTNe6RyZnSSSyvtnmmlerpJJHIjW5nO4rWsa3K1jWtwRtkdD3odLqqlrn10uH1VPTupnyRwMqGzwo90kTXsdJHlWKWSXjNdxmyK3sGgGqvaL6IVpJpI19PPVNoaB6Oa6gw/PBDIxcyZamRXuqalHRuyujkk4F1kdwLT19gjYrrNJ8SgqZ4Xx4HSTNkrKl6OYypWN2bpKmdb2WSVyI2Z0ftESuc5zXPgbJsN1PdCK0Zw6RJq51VjMrVRUZVOSGkRWrdF6Xp8rpOtmZUTzRut7WTVwXBYaaKOCniigghY2OKGFjYoomNSzWRxsRsbGNb1LWtygH3oltyHMAAAAAAAAAAAAAAAAAAAAAAAAAAAAAAAAAAAAAAAAAAAAAAAAAAAAAAAAAAAAAAAAAAAAAAAAAAAAAAAAAAAAAAAAAAAAAAAAAAAAAAAAAAAAAAAAAAAAAAAAAAAAAAAAAAAAAAAAAAAAGsXEuhA4nJJI9ul0sbXyPe1jaKosxHOVUYlsVa2zWrl6lvIbOgAau/WdMU/PKb6lUf1ces6Yp+eU31Ko/q5tEABq79Z0xT88pvqVR/Vx6zpin55TfUqj+rm0QAGrv1nTFPzym+pVH9XHrOmKfnlN9SqP6ubRAAau/WdMU/PKb6lUf1ces6Yp+eU31Ko/q5tEABq79Z0xT88pvqVR/Vx6zpin55TfUqj+rm0QAGrv1nTFPzym+pVH9XHrOmKfnlN9SqP6ubRAAau/WdMU/PKb6lUf1ces6Yp+eU31Ko/q5tEABq79Z0xT88pvqVR/Vx6zpin55TfUqj+rm0QAGrv1nTFPzym+pVH9XHrOmKfnlN9SqP6ubRAAau/WdMU/PKb6lUf1ces6Yp+eU31Ko/q5tEABq79Z0xT88pvqVR/Vx6zpin55TfUqj+rm0QAGrv1nTFPzym+pVH9XHrOmKfnlN9SqP6ubRAAau/WdMU/PKb6lUf1ces6Yp+eU31Ko/q5tEABq79Z0xT88pvqVR/Vx6zpin55TfUqj+rm0QAGrv1nTFPzym+pVH9XHrOmKfnlN9SqP6ubRAAau/WdMU/PKb6lUf1ces6Yp+eU31Ko/q5tEABq79Z0xT88pvqVR/Vx6zpin55TfUqj+rm0QAGrv1nTFPzym+pVH9XHrOmKfnlN9SqP6ubRAAau/WdMU/PKb6lUf1ces6Yp+eU31Ko/q5tEABq79Z0xT88pvqVR/Vx6zpin55TfUqj+rm0QAGrv1nTFPzym+pVH9XHrOmKfnlN9SqP6ubRAAau/WdMU/PKb6lUf1ces6Yp+eU31Ko/q5tEABq79Z0xT88pvqVR/Vx6zpin55TfUqj+rm0QAGrv1nTFPzym+pVH9XHrOmKfnlN9SqP6ubRAAau/WdMU/PKb6lUf1ces6Yp+eU31Ko/q5tEABq79Z0xT88pvqVR/Vx6zpin55TfUqj+rm0QAGrv1nTFPzym+pVH9XHrOmKfnlN9SqP6ubRAAau/WdMU/PKb6lUf1ces6Yp+eU31Ko/q5tEABq79Z0xT88pvqVR/Vx6zpin55TfUqj+rm0QAGrv1nTFPzym+pVH9XHrOmKfnlN9SqP6ubRAAau/WdMU/PKb6lUf1ces6Yp+eU31Ko/q5tEABq79Z0xT88pvqVR/Vx6zpin55TfUqj+rm0QAGDdkTZ6m0Zwp2Gz164lI6rmqVqlidE5ySsiYjFa+eocqsbFlzcJ1NjOQAAAAAAAAAAAAAAAAAAAAAAAAAAAAAAAAAAAAAAAAAAAAAAAAAAAAAAAAAAAAAAAAAAAAAAAAAAAAAAAAAAAAAAAAAAAAAAAAAAAAAAAAAAAAAAAAAAAAAAAAAAAAAAAAAAAAAAAAAAAAAAAAAAAAAAAAAAAAAAAAAAAAAAAAAAAAAAAAAAAAAAAAAAAAAAAAAAAAAAAAAAAAAAAAAAAAAAAAAAAAAAAAAAAAAAAAAAAAAAAAAAAAAAAAAAAAAAAAAAAAAAAAAAAAAAAAAAAAAAAAAAAAAAAAAAAAAAAAAAAAAAAAAAAAAAAAAAAAAAAAAAAAAAAAAAAAAAAAAAAAAAAAAAAAAAAAAAAAAAAAAAAAAAAAAAAAAAAAAAAAAAAAAAAAAAAABQqAAUuLgFQAAAUABUApcAqChUAAAAAFLgFQAAAAAACgBUFCoABQAFQAAAUABUAAAAAAAAAAoAVBQqAAAAAAAAAAAAAAUuVAAAAAAAABQAqClxcAqAUAKgoACoBQAqChUAAFACoKAAqAAAAAAAUAKgAAAAAAoVAAKFQAAAACgAKgAAAAAAAAAoVAAKXFwCoAAAAAAKAAqAUAKgpcqAAUuACoBQAqAAACgAKgoVAABQAqAAAAAAAUuAVAAAAKAFQCgBUFBcAqAAAChUAAFACoKXFwCoBQAqAAAAAAAAAAAAAAAAAAAAAUUqUUAwtrI1wz0lUsMbGq1GIt3Xvdb8ytbYtZdoer+Ci+1/E8rXo78vd4DPOp2artV7MQZI98jmZH5bNy70si3W7Xb955ym6rWpmrx5KSjro52VuiJZOdUIOmanVZipxZSVirwlyt0TROlD0fVEVfwUXzv/iPVEVfwUXzv/iXV6myD4eX7H8g9TbB8PL9j+Q2fiGLf2ze1vyNl4nib9q3tb8i1fVEVXwUX2v4mRtUesKXEOG4VrW8Fky5b782a97r3P1nhJs2QfDyfMz+QvHV5q2jw/hcjnP4VW3zZd2W9rWRvOp0NClMQw5tj56Lmga5m3ReJbbEvtNzSJatMmmLOvzQtc2qci22c9i9FPkxDEmRNV73NYxqXVyqiIiJ3znWVSMarnLZGoqqqruS3ORY1maypK2RWtVW07V4jU3Zrdm7nzdinWb8bNbqsRYig0aBncmaIvk4fLzrzIdBXK5CpUHO7fRF8m3l6eZDI+lG0OxiqymiWS27hHqrG99qWu5O/lLEq9euIO3o9rE5ms/mc487QLVdUVy5k9iivZZXJy25cjey7/Fby8bsTMmFagaJieyI+VedXubv6+5uX7VyK5f6S1xN1Y/cYS8HXKnVZFcqc6kewv0/V03Vj9xhrwdcqdVru61MW0evXEGrdXtcnM9n8uVS/dFdoaN6oyqYsaru4Rt3Nvzqlrt/Weti2oGielo2vid2zXud86OzJYw1p7qwqKFbqqPiVbJI1FTvZm9h9JzfjdiVTC4loabtEi7vCTha5k67ojk6UEZa/R03V792hpwtcydd7L1oSpw3EmSNR7HI9rkujkVFRU57pusfWRS1Y6yX0UqI5VdA9eO1d+W/ZpzZeyTrt+NlvKWjqke1HIt0ciKluS3fJRw5iKDWIG6MTLETykPk505l4iQqHW4VVg52b2InlG8n9FPL0uxt1PTTTNRHOjY56It7XRFVEW2/rGC/VD1Sf8qL7X8TMutFPyCp8U/0VIl0EKOkY1b2c5rVty2VURbd04PHFYnpGZgQpSKrEcnNtvbjQ4/F9Vm5OYgQpZ6tzJzbbmUPVF1XwcX2/4j1RdV8HF9v+JecOztSqiLwku9E7Jv8AIdnqdKX4SX6Tf5Cy2m4rcl/GG9qfItpT8SL/APIb7vkWXFtFVPXijVO+qftce9g+0g1VRJ4HMTtmPR/lVFRtk+kfdPs5U6pxZpUXrLdip5U4P9pifWBqzmoVTMqPjctmytTLvteyt41lyovZOa63yTAm4+KKQ3d4z90hpwtjkTp0RUTnQwZuNiGmt3eI/NDThcFU69Lp0kpcBx2KojbLE9HsdyKn60VOsvc6x6bWEWdTOmDqaqbGrvYpnI1zV5EfyMcndXcx3ye1aSkRxKmGq62sSu72yvRbRG8i83MvESJQawlUlt2tlemkRvPzcymHtZWt+ejqVgjjYrUY113Zr3W/Nxbbi1odoqpul4o7XS9s17de2/lynj680/L337RvnUx9luQZXMVVOXqMaHDjOSG16ojdNERegiKr4jn5eeiw4cVyNa5URumy/QTaoK1sjGvbvR7UVF50VLn1I4xvqM0g4aibGq3dCqsXweVn/jVv6zJDUPRlMnGzktCmG+m1F+adSk4yE0k3Lwo6ekiL806jlc6amVGtVy7rJdfIdyFg66NIul6KSy2dL7E3vvui/RZmd5Cqfm0lJeLHdsYir2IXJyZbLwHxnbGoq9hjWu2hqhHvRkcasRyozlurd9lXflvlsXlqn1ozV0sscjGIjWI5Fbe972tZV5CN+Yy1s4+6ZvFp6Snn3DeJ6jOVWFCixnLDVVu3S2xV5CFKDiGdm6lDhxIrnQ1Vbt0tsXmJDzv3L3jAGNa/alk0saRx2ZI9iXvezHK1F3Ly7jPtT1LueykM9JvdE/j5vvHHf48qs1T4MB0rFdDVVXNa2unOdnjGpTEjChOl3q26rm7CWOg2OuqqWGZ6IjntuqNvZF7l95cbSydUDf8Ah1P4P7S9SQKXFdFlIER65nKxqudyqqJc7SnxHRJaE9/CVrVd0qiHNTqqH2RV5kVTtU+et6h3gr5jYxFs1VM162apHV+0RVXVODi5fjfxM86N4ms0EUqoiLJG1yonIiuai7vnIYScq99SYer9v5HT+KZ6CEP4HrU5PzEyyYer2t4Oa2mq8iEY4Rqs1Oxphsd6ua3g7OU8LWxp1JQRRyRta5XyIxc97ImVzt1uvxS19XGuOerqmwSRsRrmuW7b3uludVactpD3PB439x5j7UYv/EI/AeWqtWZyDiKBKQ4rkhKrM0PS2u3i4ympVaahVqFKseqQlVuZunHtJUoVKIVJpJTAAAKXKKgQ6KmZGtVV3IiKu/dyFDnZUVx8VcqXUxbrV1tvo5Y4YWsc5Wq5+brIq2ba1uWzi3NFNfU0lRFFNGxGSOyqrc10V25nXt1ds3xVMXaX44tTUSzL2b1RngN4rN3PZPSPhxTCnQSLG7c9lr9blRHNVPIqHmiexjUPH3xoL3eLNeiI3S1uRdONEVSApzFM944+LCe7xdrk00tbk2caIqk12HJELR1Z6S9NUcUl7utlf3HN3L3uMl+8pdx6NlZhszBZHh8FyIqdC6k6y8dseEyKzguRFb1nYChUzTJAAAMRa1das1FOyKNjHIsedVde98ypbcvJuLITaKqvgovtfxOO0Qn5XH4r95Tx9VerpmILOj5HM4NI7Zcu/Nmve6O7VDzxVqtV41ZfIyUVW6rubdETRt12p0kJ1GpVSJVnyUpFVuu9bpbRt9qoe36oir+Ci+3/ABHqiKv4KL7f8S6fU2wfDyfY/kHqbYPh5PsfyGd+j8W/tve35GZ4lib9q3tb8i1F2jKr4KL7RfWqrWlNXSyRyMY1GsRyK2++62tZV5D4vU3QfDy/Mz+QubQDVTHQSPkbI96vajbOy2RE37srG7zd0eTxGybhPnIuaBfftunIvIl9ptqXK11kyxZuLmhX32qcnMX6dFRVNYiucqIiIqqq7vnOyR6JdV5vMRl1t6z3VUjoInZadjrcVd8jmryqqdijk4reva69jl7XEFeg0eX3WJq5dIcPjVfknGp1NarEKlwN0iauXybeVflyqX7pVtBwxqrKZnDql0zquViL3Fs5zt/aty/GMe1evmvevFexifFZ+1yuQ8TQnV1UVzvY0ysRePI5FyIvXRE7J2XsW86ZnNzGasF2fKONE4XPM7uuViX7iMy/aVxEsvFxJXfrIT9xhLwXXyp1W3y9JG8F9erH1sN+4wvR9FOq13L0mLabXliLVusjXJzOYiJ9nKv2i9tF9olLo2qjy3/5sd3NTuuZyongq5S5sT1B0D0sxj4nds2Ryr8zlc37Jh7T/VJPRIrkVZYe3RLKzmzt41kvuz5svbZSqPCxNRE3dYu7w04Wqv7UVEW3OmwrjQ6/Sk3ZYu7MTha5k60VEXrTYSbwjGY52NfE9r2u3o5q3RT0CIWgGnktFKioqrEqpnZfqk5MzeZyN82UlfhWKsmjZJG5HNe1HNVORUVL3JMw1iSFWYKrbLGb5SH8U5l9x3dBr0OqwlW2WInCb8U5jq0jxFYYJZUS6xxveiLyXa1VS/c3GAm7RFUm7gov1/xM46ce5Kjxb/RUhw043HlZnZCNLslIrmZkW9ra6pyocvjGqzUlEgNloiszIt9nKhlf1RdV8FF9r+JT1RdV8FF9r+JeMGzvSq1q8JLvROybzeAd3qdaX4SX6Tf5DEbTsVuS/jDe1PkWEkcSKl/GG+75Fls2iarrxR/Ov8T2sI2kkVUSancidtG5HfZVG7j1JNnKmVFtLKi9ZbtX50Vm8xZrC1WTUNnI7hYlW2dEy5VXkRzbusi9sjsvg5mmBORMU0pvjER+6MThbHInSlr250MKbi4ipzd3e/NDThcFe1LX60JNaOaSw1USSwuR7V3buVFTlRU5UVOZT2LETdU2l76SqYiu9jlc1kjb7uMtmv7io9eXtVUlhHJdL85J2GK8lYld1VMsRFtEbxX5U5lO/wAP1lKpLborcr00iN+KcyncAUOzOoLY0+0hdSUks7ERXRo1URb2W7kTfbf1zCnqiar4KL9ZnXSrR9tVBJA5VakiIiuba6Wcipa6OTlQxp6m6D4eX5mfyEa4ll63FjsWmPysy77VE1uvLzWOGrsCrRIrVkH5WZd9qia3Xl5rFqeqHqvg4vtfxK+qLqvgovtfxLqTZrg+Hl+x/IYa050dbS1UsDXK5I7Jd3KuZrXLeyNb1yN6tMYkpcJseYj5Wqtt6rV1sq8nMcFUo1fp0JIseNZqrba1dbKvJzF9ptFVXwUX2v4lE2iqr4KL7X8T59WGqaOuhdI6WRiterbNy23ZVReMxy33l4t2boPh5fsfhmfJw8UzcFkeFH3j0u3VvyMyVh4imYTI0ONvVS7dW/I8jRzXxUy1EMTo48skjWO6q6I5yJdLra+8yxp7pG6kpJJ2IiuaiWRb23qib7b+uWXguoKCGWOVJpXLE9HonEsqpvRFs3kuXDrkS2Gzp3Gek07uQSqylNmok+/NFRrlhuui2s1eTnOxkkqMvITD51/1iI5YbrotrN5ucxtgGvupknhjdHHlkkYx1s10Rzkaq715d5n6N/605CGminumm8fF6aEx4N6J3UQxMB1SaqEvFfNPc9Udvb25OYxsHVKYnoMV0w/M5F3vYfWVKAlMkIsvWbpdJRU6yxta52drbO5EzLvXdvMe6D67qioqooXxsRsiq1VS+ZLNc7dvVvKhcuv73Cvhx+khhPVQv/EKbw3fdvIXxDWZyWrktLQormwlyZm6WW62Xi5CK63VpqXq8CXhvckN2TM3TjdZSXLFMOaztbk9HU8DGxjmpG113Zr3crktu4tuKZiRSMGvlPy//ab6Uh1GNKhHkKdu0u9WvzImZP6nR4qnY0nI7pAdlddN8ej6omqT/lRfa/iPVE1XwUX6/wCJ5mqzVjHiDZXPkezg3NRMuWyoqX35kcX6uzhBu9nl+x+GRtIJiifl2TUKNvH8HVqcdtluY4KSTEU5BbHhRt4vB1by25OYtb1RFX8FF87/AOI9URV/BRfO/wDiXV6myD4eX7H8g9TZB8PL9j+Qz/EMW/tm9rfkZ/ieJv2re1vyPCwLX5UyTwxOjjyySMY5UzXRHORqql15d5ICJ+5FMTYTs+QxSxypNIvBva9EXLZVaqORFszkzIZZYn6iRsNQalChPSpPzOvvNUXS3MdvQYVQhw3+PuzOvvdUXTqO4AHaHUHVc+PE8TZCx0kjkY1qXVVXciH2kateumLpajpdjlSKG2ZL7nvVLqq8+Vqp8q5yuIq22jyjphUzOvaG3lVfgm1TQVurNpkq6OqZnbGt5V+XGpcWk+0TZVbSxZkTkkkXKi91GJxlTwsrvilmT68sRct0kY1OZrUVPtZl+0fPq31XSV6q5XZIGrZX2u5zuujUX7Tnc6dVxsuY8P1BUDEs9r5O6r3IvzMytImlmYlrbd3ZF3GGvB1yp1IiKtuddpG0Blfq7d3ZF3GGvB1y9lkVbdJimh19V7F4yskTmcy3zKi/zGR9D9fcMzkjnbwD3bkcrszFXmzWa5PK3L8YYxs9UrkXgXPid1uMr237qOW6p8ppgvSvRWWklWKVEv2Lk5HN6ypfk66eEilqYnMQ4eVsWZfu0G+uZcydF1sqcxbjzNbodokd+7Qr63XMnRfahMmN6KiL1u4dimHNQmnTpY3Usrsz4kRY1Vd7mcll57O4t+1VpmJyE20qpw6jKsmoWxfR5F2KnUpLFOn4c/LMmIexfR5F406jBOmOvKogqpYWRsVsb8qKua67k3rZbGTNW2lT6ylZO9rWucr2qjb24rlalr7+RCNusz3fU+GnooZ11D3/ALPj8KX7xxGWGq3OTVZmZWK9XQm58rdNLORE4uJCP6DVpqYq0zAivVYbc2VunE5EQyaChUmglQ+aZ/L3E5DAOM6/alk0saRx2ZK9iXvezHK1F3Ly7jPtV1LueykMtJvdE/j5vvHEVY8qs1T4MB0q9zFVVzWtrpzkd4xqUxIwoTpd6tuq5uwlloRj7qqlhnciNc9t3Il7IvcvvPg1naWvoqZZY2o5yOaiI69uMu9d2869UPvfT+AeFr+T8hXw4/SQ6OZnIqUVZlHfW7kjs3PlvftN7Hm4rKUswjvrNzRc3PlvcsBdoiq+Ci/WZT1U6wHV8T3Pa1j43WVGr2K2yrv3796eQissRkjUNj/BVvBKtmzNVvczsu5q/RzfOQ1hfF89EqEKHNxXPhvXLvrbV2cXLYizD2J5t88yHNRVdDettbbV2cXLYlEClyp6XJ6OsxPrV1tvopY4Ymsc5Wq+TNfcirZiJbr7ncvcMqTPsi9xLkO9Ocd6Yqp5lW6K9Ub4DeK39Tc3lUjfG9biUyUZuDssV7rNXkRNVXuTrOExbV30+VTcXZYj13q8yar8E6y/qDaCqnSMascdnOa1bX5FVE5yQtLLdqL3EX5yFeDe3ReMZ6SE0qXqWd5L/MavAFXm6iyYWaiuiWVuW9tL3vs6DXYMqkzPMjrMPV1lTL13PrABLhJh1KocVLU1gaZMoYHSu3u5I2871Tcn6l39qimJMzMOXhOjRFysaiq5eZCxHjsgQ3RIi5Wol3KfXpVprT0bM8z0be+VvK5yp1kam9etv619+Uw1ju0ZMqqlPE1res6RVcqp1lyNVqIvczKYxx3HJquVZJXK97lsiJyIl9zWp1k39T+84yNoVqFknaklS9YWrZUjanHVF7ZVu1vW3Wc7nykFxsS1euR3QqSxzIaenpe3Kqrol+JE1Iii16p1eM6FTW5IaenpfpVV0ToTXpPEl144iq7pWp3EYlv15nH34Zr9rWKnCNjlbfeiorXW8JFsn6NxlOn1EYc1ERYnOXnWWTf3+Nb9Rb2kezvC6608ixczXcdq8yb+OnfzeQuuomKJdN2ZNZ3ermVfc5LFTqRiGAm6Mmc7vVzKvucli4tC9dFLVKjHewyLZEa+1nLzNdyKvxdzvimQ2yELdINH5qWRYpWZHpyLyo5Os5q9k3+GV2VWmaNSmtB8qpSTuVz0ReCkcu9zW8rXL13NTsuyRFzb2rm3eHcYxY0fxCpM3OPezXWtdeRU4l5LaKbahYoiRY3iU83LG2Nda115FTiXk4lM1ohj7W1p9JQMhdG1qq96oue+5Eaq7rLy7jIVzCu0qvsdP4a+i47TE83FlKZHjwHZXoiZXcmqIdXX5mJLSEWLDdlciJld1oWyu0XVfBRfa/iUTaGq/go/ncWjq70TZWVPAuc5iKxzszLXu1Wpbejm9cy16myD4eX7H8hDNKi4mqcHd5ePdl1TfK1NU6iLKdEr9QhbvBjXbdU2tT4Fq+qIq/govnf/ABHqiKv4KL53/wAS6vU2QfDy/Y/kHqbIPh5fsfyG38Qxb+2b2t+RtfE8TftW9rfkdGrzXPUVVXHBIxiNfnurb3TK1XJa6qnWM1NMa6I6k4qOoZUNlkerEciNdltxmq3fZt+RVMlkn4cg1CFLOSpOzRcy5dUXe2S2znud5Q4c7DgKk+7NEzLyLpZLbOe52gA6s6MAAAAAAAAAAAAAAAAAAFCpQAixr1d/xB/gM/aX7s2v9hn8Z+40sPXr74P8BnnU+jVPrQhoY5GSMe5XvzXajV3WRN93N5jzbIzkGTxPHix3tYzM/fO5yCZOahSuIY8SO9rW5n75xJwrcw/6pCm+Bm+iz8QeqQpvgZvos/FJm+lVK+9Q+0lT6Q077xD7TLyKFUxPQ7QlNJIyNIpkV7msRVayyK5Ual7ScmZTKkc10S3XS5uJGpys8jll4rX24WXiNnKz8CbRVgPa+3CymLtfmkqw03BNWzp1VvdRrUu757oz5RgzQrR1aupih32c6715mN3u39ZbJlb8ZUL62iq5Vqoo15GRq5PluVF9BDu2dMNR1RNL8GxqJ8tyr+4QVWE/S2J4cs/ybFRMvMiZl7dSHamn6RxA2Xf5NqomXmRMy9upnzDcPbG1rGtRrWtRqIiWRERLIiJzWPsBU9Csa1rcrSb2tRrcrSinn4vhLZmOY5qOa5qtci70VFSyoemcVYfHw2vbldweQPYj25XbCGel+jq0lRJAvIx3FVeyYu9q9+1s3xkUztqA0kWWlWJy3dA7KnPkcl23729nySzNo3DEbPDInLIxzV5vY1S3l4/6kOjZ2rlbVSR9Z8eZebiPRE9NTzvR0/ROJokrD8m5Vbl5nJmTs0IQpifo2vulmcByqnUqZk7NDMmtP3DU+Kf6CkUcG9ui8Yz0kJXa0vcNT4qT0VImYdMjZGOXkR7VVe4jkVTJ8IrrVCU6P+oyMcOyzcsv97SbVH1LfBTzHdcxrBr0w9ERFldyJ/ypP5Ds/v6w74V36KX+Ql+HiCnZU/zUD8zfmSa2syGVP8xC/MnzMhIhYWu1rf7PmzW7DLfnzttY86u2gKFicTPKvM1ip6WUw9rF1nyV6tRG8HCxbtZe6q7ku5eS+VVytb3eqOVxLiqnw5KNCZFZFe9qta2Gt9qWuqppptOcruI5FkpFhsitiPe1Ua1uu1LXW2mhbWAOXh4bcvDRWTu52/tJpUy8VO8nmIwamNDHVFU2VzV4KFUeq9Zz03tandatnO8nbNJQsQ13g4kosCTixntyo9yZedETb2rYwcCycSDKviP2PVMvVx+/3EXte/u9/i2+dxbf9jq6h4ZE9qnyOVE35XNZa6+HZvlLj17e+D/AZ51Ln1S4GlThtZCvK5y2Ves7g2Ki+RURfIR7EkG1CtT8v6S7pl6U1T3ohxTpJs7Vp6B6So/L0pqnvQ8bZ90g4OrWFV4szNyfGZdU+wrvmQkuhCjB8RdT1EciIqOikRVTk6l3Gb8pt2+UmVhdakkbHot0c1FRedFQkXwdz+eTfJv4UN2nQuvfc7jBE7ukq+Vdwoa+5f63PssRz2htI89RHA1d0LVc63bP5EXvM3/KJBV1UjGOcqpZrVVeZN17kPMVrX1lW9yXV081movWRVRrU+SzKnkL/hAnlZJw5KH5SM5Ey8yf1sXMaTislmSrOFEW3UmvfY5Yjgix01PKqe3ulVO8xWtT9d3eVC/9nRfymbxaedTnrywtsEdBE3qY45Gp3kSPl7u44bOfumbxaekRxTpBJHEcCXT0cqO6dzRVXrW6nESMmknXoEBOJG9uRL++5Imr6l3eXzEL9JvdNR4+b7xxNCr6l3eXzEL9J/dNR4+b7xx2PhO+zy3tL3HT4/8AIwOle4lDqf8Ae+n8FS9Cy9T/AL30/gqXoSlRvsMt+G3+VCQqV9jgew3+VDkfNXdQ7wV8x9J81Z1DvBXzG0i8B3QbF/BUg/Jyr31JiavfcdP4mP0EIdycq99SYmr33HT+Kj9BCBPBt9qm/wC+NSG8CfaJr++NTHu0n7RB439x5jzUd74R+A4yHtJ+0QeN/ceY81He+EfgOLdc/WuX9qH8C1WP1jgdLCVKFSiFT0KTYACgB1KY714aSJBRvYi2fN7G3vOTjL9BF+UqGRbkY9e2kyzVnBIt2QNy9zO6znL5G5PlIpwuMan+j6ZFci79+9b0rt7EupyeJqh4lIRXJwnb1vXt7EupbGr3AOmayGK3Zo9/NkZxlRe/bJ8pC+9oHRjg5Yp2pxZG5HKnbM6m/dVl/oHrbO2je6Spcm9eJH3ktmVO4r7N+QZB1qaN9NUUjES72pnZ11zM4yInf6nykfUvDW7Yci5m/WxN+zl3vBTrS/acTTaDutDi3b9Y/fN/h4KdevaYp2etKMk0lM5d0qZm+G1N6InOrLL8lSQ9iFGB4q6CaOZnVRPRyJz797V8Jt2+UmRguJNmiZKxbte1rkXnRURU/Ub/AMHlV3aTdKPXfw13vsr8lubjBFQ3aVdLP4UNdOhfkt/ceoACXCSgUUqACNW0N7rj8V++49fZnXj1fgw+eQ8naJX8rj8V+8p42qfWFHh7ple1zuFyJxUatsua97ubbqk/Web1moMpix8aM9rYaKuZztmrFTvUgx0zCl8SOiRHZWoq5nfwWJVlDEHqkKb4Gb6LPxB6pCm+Bm+iz8QmP6VUr71D7SUfpDTvvEPtMvIFMQeqNpvgZ/ot/EMtxy3RF6ypc20hVZWfzeLRWxLWzZeK+w2UrUZebvuERr7WzZeK+wsTXPpT0tRPyrZ8qpGxeZXXzL30YjvlWI0YDhDqieOFnVSPROeydkq95l3eQy/tK1S3po+svCuXmuiNanpL85a+oOiR9c1y/wDKje5O+qtb5nKQbiZzqliGFIv4DVa3qWznL027iIK+q1CuQpReA3Knbvne7uJD6O4EyCJkTEytaiIiJ3OfnW99/XPXQqVPQUGGyExrGNytTRqchNbGIxrWN4KBp89XRo9Fa5EVHIqKioioqKllRUXlQ+pCilxzUcmVStyI7RSIGsbRXpSrfEnULZ7PAcq7vIqK35ndkZU2c9I1fHLTOW/Bqj479q9VzNTwXpm+U0+TaUoUtTy233cxd3KjkRURV77f1qWfqKqlbiDGpySMe1fJZ37p50gIlGxRuUPew3utl5nponUqpboIOgN/ReIdyh+TctsvM9NE6l7iQ+nfuSfxb/RUhuhMjTv3JP4t/oqQ3QzPCUv+alF/vahlY98vK9fehN7D+ob4LfMfQYzpNeuHo1qcK7cif8qXm8A7/wC/nDvhXfopf5CW4Vfp2Rv+agfmT5klw6zIZU/zEL8yfMyBm/WWfrYy9IVGa1si2v23Y/bseJV6/KFqXYr5O4kbmr9tGtMS6yNa0lbaNGrHCi3yqqK56pyK+26zV7FubjWdm6nLzuIMV06HKRWQ4rIj1aqNaxb7UtrbSxoq1iKRhy0VqRWxHKio1rddqW1tpblLFpb5m25cyW799xNuh6hngp5iK+qbQx1XVsVWrwUTmvkcqblVq3a3uqrkT5NyVzGfqNB4NpOLCl48d7bNeqZee17r77dRpsBykSHLxY7+C9URvPlvdffbqO1CoBNBKYAAB1qRP1y++NT32fdtJYKRP1y++NT32fdtIl8Jfmxn4jf5XEa49+wM9tO5xlbZy9ySeNd6LDLhiPZy9ySeNd6LDLh1+F/Ncr7CHUYf83S/soCxddHvdP3m+khfRYuun3uqO830mmfW/N81+G/+VTMq32OY9h3cpGjRJ35VTePj9NCZMCWaneQhRheIcFNFJbNwcjH2va+VyLa9nWvblymYYNpZ6bulEWyfDL+EQfgXEEjTJeKybi5HK66aKvFzIpEmEK1JyEF7JiLlcq73RV4uZFM+2OVjAfqmX/4Rv6ZfwR6pl/8AhG/pl/BJP+nFG+8/8Xf9pIH0tpX7f/i75F16/vcK+HH6SGEtVT/y+m8N33bz3dPtci10Kw9LpHxmrmSTNyb+Tg2+c8TVT74UyfHd928iKtVSWqNelYss/Oy8NM1lTVHcioikZ1SoS8/WZaLLvzNuxM1lTXNzohLhq8hGPX97vXxTPSkJON6xGPX97vXxTPSkJK8IXmn+JvxO8xt5sd7TS8Nmr2uo8JvooZsapF/VZrNjw9sjXxvesjkXi5bIiJbfdW7y+12koPgJf/H+IYWFsR06VpcCDGjta9EXM3XTVV5DGw7W5GXp8CHEjNa5EXM3rUzQDDXqk4PgJf8Ax/iD1ScHwEv/AI/xDrPpbSPvEM6T6SU77xDMxtBjzQfW7FWyOibG9jkbmu5G2VLom7K92/ehkLhDopOcgzkPdYD2vZ6zeY3crNwppm6QXZm+sdoBQzzLOp7dykPNP41StqUclvZXLv5lW6L9FUJhtaYM14as3vctXA1X8iSsbvVURLI5E662sjk7VE5iMMfUyNPSCLATM5jrubx2sqLbo2nAYzp8WbkkWC3M5i3VvNbXsLl1FYxG+hZG1Uzsc/M3dfe5zk+dFTf3zJzpCEmHYrJA5HxPfG5Ou1VatuZedPiuMhYJr+rWW4TJMnXumRy+VOKn0TncPY8lYMvClZ1jobmIjc6JdFREsirxovaaKi4ylYUBktNNc1zERMyaoqJp0oSauYx1zaAS1jIlga10jHb7qjeK5FvvX4yN3HnYJtF077JNE+JV5VSz2p83H+yX/gGnFLVb4JWPsiKqXs5EXnau9PlId++epddgPlkjtc16bEWzuXRF19x2z5un1aCsBIrXNd6KLZ3YuvuMX6rtVNZSVSTSrGjEY5qojlVy3tbdkta6dsZwVdxW4ebWlUmDS5fxeXzZbqu+W63U2FNpsGnwdxgZst775bkQNZnu+p8NPRQzxqD974/Cl+8cYI1m+76jw/3UM76g/e+PwpfvHEL4P/WGb/j/AJkIqwz58mv4/wCZDJYAPQpNZ0VfUu7y+YhfpN7pqPHzfeOJoVfUu7y+YhfpN7pqPHzfeOIT8J32eW9pe4inH/kYHSvcSg1Qe99P4J4u0F7hXw2eke1qg976fwTxdoL3Cvhs9I6yb/VxfwE/lQ6SZ8xr+Cn8pgPQbCknqY4l5HtlS/8AtP39++88+lmfTztdaz4ZEWy9ZzHb0X5SZS5dT6f8Rp/Cf928+rXVgHAVz1RLMlRHt767np386ZvlHn6DJKlJbPw+FDjKjncyo1UXqVPeQpClF/RjZ1nCZFVHdaNVF6lT3kmcExNs0UcrN7Xta5q9xyIp6CmLtQmkPDUnBKvGgcre7lXjNX5ly/JMpIeqaROpOycGYT0movXxp1LoeiqbNpOS0KMnGiL18adSlk63dIul6KVUWz3pkZz3fxbp3Wpd/wAkjNo7hCyOkW12xQyyO+S1UT7S38imStonSHNNFTtX2tFkdv67uK3d3GI5fKNXmjuXCq2oVN8sciN8FjXNT7au/UQxXv8AWK2sum+hQWKrulEuvvsi9BF1Y/1Wr7h/twWqrupLr77NUxVhHt0XjGekhNWk6hvgp5iFWEe3ReMZ6SE1qPqG+CnmM3wY6Nm+lPiX/B/wZrpb8T6AATkS6dRGbXzpMstXwKLxIERLdZXPTMq/Jbl8Hf2xJeodZq95SGGldSslVO9evNJ5EzrZPo2Ih8I86+DIsgM/3Hb7oTW3bYjTHU26FJshN9N2+6E177GRdQeh6SyvqXpxYlRrLpuzKm93fRi/aUkVk5iwdSGHpHh8XO9XuXu3ctvsWMgWOqwlT2SNMgIjd89Ec5eVXJf3Jp1HR4ckWSkhCRqb5URzuldfdsOwqAdodQY91taFJV0zsrfZo0V7Ftvuib235nJxfmd2JGCgrXRSMkauV0bmub3Fat/2E2J03O7ykNdMaJI6mdiJZGyusnMl1VP1WID8IsikvEl6hC3sS9nO501RelNdeghvHMokGJAnYe9dsd1aoveS50axZs8EUzeR7GuTyoi/OYr2lE9jp/GL6Li4tRFdnw9iL2Dnt8iOW32bfMW7tKL7HT+MX0XHYVya8Zw4+MvpsarulVS/vOorEx4xQ3RV42NXtVLlk6hfdyeLd52kn1Ih6udL20VTwz2uciMc2zbKu9Wqm5Va3rL2Rl5No2m+Bm+iz8Q5zA1ckZOn7lHjsY/M5cruTQ0WEatJyshucWK1rsy713UZgBh/1SFN8DN9Fn4hX1R9N8DN9Fn4pIf0qpX3qH2nb/SCn/eIfaZdRTkeNo9jyVEMczUVGyNRyI6yKiOS6XRFVt/lHsIp00N7YjUexbtVLt6FN+x6Paj27F2HYAC8VgAAAAAAAAAAAAAAAAAAoVKAEWNfHvg/xbP2nkaHat561r3RKxEa7Kua6LeyLdLNcnXPX16L/wAQf4DPOpfWzc/2Go8YnoNPMkCmwKliSPLzDXZFc/grbYQDCkIM/Xo8GPwVc7m2XLU9T3XdtD9J/wCGPU913bQ/Sf8Ahkl7CxKP+H9I9R/5lJD+hdM/Zu/MpHLCdQlYyWN6uisyRjlRHOvZrkVeVvLlQkLTx2aicyInzHaiFTp6RQpWlNeyVa5ua2bMt9h0NMpEvTUc2XR2ts11vsI07QaflrfEt9N57ezSvHqt+/LFu8sm/wAx3bR+De0TonIrmOXv8ZvkzNX50LM1K6RJBWNRVs2ZMnylVFb+tMvyiGIzvEMWNiReC53C9ptk95FcVfE8S54nBcv8zbJ7yVZU4tUrc9FE3FSguUcoBgLaVkTPSp10SVV+wn8Twdnxv5c5eaF9/K+M8zXNpAk9a/Kt2xJwe7tkVVf5UVbfJL22cMJt0xMqblVrG+TjO9JPmPOcF3j2LM8PgtdwvZbbvQhCE7xzEueHwWr/ACtt3mTdaK/kFT4p/oqRFp4Vc5rU5VcjU76rZCXOtNfyCp8U/wBFSKGE+3ReMZ6SF7wjNzz0o1eT4lzHbc01LN5viXkzUbiHLkj37+qX+U+LEdUdfE1XLArkTevBqjl+j1S/Ja4ldRpxW+CnmO5WnUL4Oaa5t2vitd0p8jolwLIObo6K3rT5EGl5l3GWdWuqukq28I6dZLWzwo3g1b8V+9yqi2XjNtfsXHra7tWiJergZa2+ZrU5U7dETrt7Ltm+DxsS6LaTSUkzZol3t3Obfc9vXavcd9lyI7sSMGSELD9T3KoQmxYPouW+z1kTYtvSRbkeMkodEqO5z0JsSH6LtdnKiXsv7yLcl9hGERwMbFE1rI2pZERLf/d56R42i2kUdVCyaPe1yX7qLyKip1lRbp5D2UPUcs6G+CxYOXc7Jly7LcVuo9CQFhrDasLLlsmXLstxWIu69fd7/Ft86mQNnJv5NP41fQYY/wBevu9/i2+dTIGzf7nm8cvoRkEUP9aZr+Mh+k/rFH6XmLtb2AdL10qIlmyWkb8q+b/yI750M1aitIeGo2sVbugcrF73VM/8ap8ynibReAZ4Yqlqb4n5XrbsH2S/00a3yqWbqB0i4OrWFV4szd3hMu5PsK75kL0r/o2Jnwl3sKNwf4tU7HaF6B/pNfdD/wBuNwf4tU/5aGUdeOkHA0T2otnTKkbfldV9jN+oxJqL0e4asSS12Qtzruumd12onf3uX5J9uv8A0i4SqbCi8WFu/wAN9negifOpkDUHo/wVJwqpZ0y5+7lbual+a3H+UZj/APWMTNbwoUBPen/ktuoyX/6pX0T/AG4Pen/ktuotvaW5aTvS/uHl7OfumbxaekeptLdVSf7v7h5ezn7pm8WnpGsmP1xb0p//ADQ18b9aG9KfyISHqupXvKQx0o901Hj5vvHEz6jkXvKQy0uZaqqEX4eXudm423hOT/LSy/vL3Gyx+n+Xge18CTup5P8Ah9P4BedyxNS1Wj8Pgt1kc3vZXKhfiEo0RUWQllT1G9yEhUpUWTgW9RvchSx81duY/wAFfMfSh4+lNckcEr15Gse5e81qqbGZcjIT3rxIpnRnWhuVeIhpJyr31Jh6AN/I6bxMfoNIctJo6Lwq2nhavWY1F76IiEF+DZLx5x3R3qRDgNLxpl3R3qYx2k/aIPG/uPMeajvfCPwHGQ9pT2iDxv7jzHmo73wj8BxYrn61y/tQ/gWKx+scDpYSpQqUQqehSbAUAAPE0nxpsFPLM7qWMcvfsm63duQ5rat0kjpHLdz3OcvdVyqqr9JTO20RpHlijpWu3yLmeidq1d1/l2X5KmFtH9F5qpysp4+Ec1Lql2pZLonK5Wp5Dzlj6eiTk/CkYDXRMicFqXVXLrsTbZLe8g3Gc2+bnYcnBa52ROC3VVcuuxNtkt7yQehemmH0tLFD0zFxWpms5Eu5d7l5eyeqr5T3ZtaeH2VOmY99+yT+JH/+5zEv8Mv04vxAmpvEv8Mv04vxDbQcSVyFCbCbTXI1ERG71+xNENpCr1XhsSEynuyoiIm9dsQ8XTCCJlTNwL2ujVyuYrd6WdxreRyqnkM2bPek/CQOp3LxoV4vda5VVPmXM3yIYcxrVzW00ayTwKxjVRFdnYtsy2S+V7t2ZUb5Tv1XaR9K1kT1XiuXg3+C9URL9xH5V8hxlDno9KrKRJiE6E2Kqo6G5FSyOXkXWyKcpSJyNTqoj48J0Jr1XM1yKlkcvPxIvcS/B1xyXRF5zsPVKLc9EoChUofQRs2iPdcfiv3lLO0M0DmruESFW3ZlvmVydVe1rI7tVLw2h3/lcfiv3nHrbNSojqvvQ+eQ8zTNPg1DFD5ePwFVc2VbbG329JA0aShTuInwIvAVVzcWxlzxfU913bQ/Sf8Ahj1PVd20P0n/AIZJexWxJ/8Ah/SPUf8AmU776F0z9m78ykZm7Pdb20P0nfyEkaeKzWpzJb5jtCIdNR6BKUjP4q1zc9s11vsvbvN7TKNLUzP4u12+tmut9l7d5gLaVZ7JSr1ssqdzljPG2eHfljvEu3fLYXztFYIr6eOZEvwL7O7jXpb08hiHVhj6U1bC9VsxyrG9eRER+5L9zPlIYrDkksUw4sXesVzFzcytRt+pbkXVNfE8Rw40TguVq9Sojb9S3Jfg64n3Q7D0Ui3JvABRT6DCm0lMiQwN66y38iMci+dDHepJP+IwfLVfoKnnVD19oDSNJapsKLdIGrm8J9lt5Go351Pr2eMCV88sy8kbEanhOdfd3mt+0h5ynHeP4rYkLfZHN/4JdexUVCDpp3jmJGJD9Byf8UuvxQzZp17kn8U/0XEOCZGnXuSfxT/QUhwhl+EtuaYlG8y96GTj1uaLLJ096F+x6kK9UvwbPpf+x8eIancQjaruAzIiKqoxyKvzcqr8VrXEq8PXiN8FvmO9W3OlTwc02IxFR0Zq9KfI36YGkHM0dF7U+RBt0SoqoqKioqoqKllRU3KiovIpk3VnqwpaxMzqhXq22aJrcjkXmc5Vc5Udzt+ldC8dderRJGLVQtRJGpeRqJ1bE6+7lc1vz/RMJYBpDJTStmhdZzF+S5vXa7nRUIviUyHh6ptZPwmxYHou1S6ctkWyqnGi3I7fIQ6JUGsnITYkH0Xa7OVEva6caLcl9gOj8VNG2KFjWMbyWT9ary3756xbuhGlUdZTslZuulnNvdWvTqmr3Ud8+5eyLiuen5N8F8Bj4GXc1RMmXZbisehJZ0J0Jiwcu52TLl2W4rHYADOMkAAA61In65ffGp77Pu2ksFIn65vfGp77Pu2kS+EvzYz8Rv8AK4jXHv2Bntp3OMrbOXuSTxrvRYZcQxHs5e5JPGu9FhlxDr8L+a5X2EOow/5ul/ZQKWLrn97qjvM9JC+lLF1z+91R3mekhnVv7BM/hv8A5VMyrfYpj2HfyqRbwmh4SWKO9s8jWXte2dyJe123tfkMyRbNbl39NIl/+1/8zE2iXuqm/wBRF94hMyHqU7yEIYFw/I1OBFfNws7kdZuqpxcyoRJg+iyc/BiPmIWZyKmXVU4uZUMHepod/i//ABf/ADHqaHf4v/xf/MzuCT/oPRvu/wDyd8yQvonS/wBh/wAnfMjJrA1MrQwLNw/CWVqWyZeqW175neiW/qo98aZfju+7eZs1/e4V8OP0kMJaqmXr6Xw3fdvIhrVMlqbXpWFKsyMvDXLdV1V3OqqRjVqfLyNalYcuzK27Fy3Vdc3Oqku06xGPX/7vXxTPSkJON6xGPX/7vXxTPSkJK8IXmn+JvxO9xt5sd7TTw9B9W0tcj1je1uRURUdffdL9YuhNnaq+Ej+Z38C4tmvqKjwm+YzajTQ4awfTp2nQZiKxznvRc2+VONU+BpqBhiQnJGFHisdnW+bVeVUI4+p1q/hI/tfwHqdar4WL7X8CSIOn+gFH/ZO/Mp0H0Mpn7N35lMQ6sNUs1FO6WWRjkyK1Ebe91c1b705N36zLStOLWnYp2VNpsGnQUgQG5WIqrtvtOokZGDJQtxgNyt6b7TsKFShtjYnW0o5OdDy9JMX4CCWbLm4Njn5b2zZWq617Ote3MYXh2jpXPYnS8bGq9qOVZHOVGqqXVOI3fluc7U67J017GTT8rn8HRV7ksaSfq8rIuayYflV3B0Ve5DI2kuqSjqbq6LJIvLJGuR1133VE4r18JrjHONbN70usEyO5mvaqfO5vL5GoZ7gkuiLzpc5WMOewxTJ/fxYDb+s3Rfda/WY85QJCc30WE2/rN0X3Wv1kR8c1VV0CKroHOanZRqj793KnHT6JbDZHxORzVcx7F5UVWuavfTjNUm6rDFuurQOGSmfUNajZokz5k3Zmt3ua63KmW+XNyOROtmvGVZ8H7ZWE+ZkIrkViKuR/NroqW15Lkf1XBTYEN8xJRXI5qXyu5tdFS3Uefqc1rOnXpapW8qIqsk5M6InIqJ2SN38Xl39rvzG/kIY6J1ix1VO9q2VszN/cVyI5N3Wc1Vb5SZUS8VPBOswNWYtRknsjrmiQ1tm41S2l+fRdTpMIVSLOyrmRlzOYts3GqLsvz7SIusz3fUeH+6hnjUH73x+FL944wZrVp8uIVKfHReS3VMav7TNOz5Wo6iy9pJI1fKuf984jCa2xFNI7/wCz+ZDksN7yuzTV/f8A5kMrFCoPQxNh89T1K+CvmIXaRrepmXlRZ5V+d7lJmYhJZjutxV8xCrEKjPI9/bPc76TlX9pB3hNf9XKs53L2InzIk8IDvq5dnOvwJV6nk/4fT+AeHtAe4V8OP0y5NV7FbQUyLy8Ez9aIW5r/APcK+HH6SHaT7cmHnpyQU/lOrnG5aK5P/qT+Uw3qb3YjTeE/7p5lTaE0dz07J0TfC7evxX2av2svzGKtTvvjTeE/7p5J7SbCWzwSxO5JGOb86cqd04TB8ik9h+al3cbnZenKip70Q47C8mk5RZiByudl6crVT32I66h8f4Kt4NVs2dqsXmztTM37KP8AnJNTyojVcu5ERV3kLIpHwTovJJDIi2+NG7ei/MSM1laZI3C0kYu+oY1rF7j03r30ju7yF7BdYSVp01BjbYF3I3mW+n5kXtL+E6okCRmYUXbBu7qXi7U95gPSPEnVlXLIl3LNLZidy6NjT5kaSNx7CEp8KkhbyMpXNvz2jVL98wlqT0e4eua5UuyJFevNm6lid+6q75JIPWEn5DU+Jk9FxcwhKuiSk9UYnDiZrO6EVV7VX3FWF5Zz5WanonCiZre9V7VX3ESsI9ui8Yz0kJrUfUN8FPMQpwj26LxjPSQmtR9Q3wU8xb8GXBm+lPiW8AcGb6W/9R9AAJyJcPlq14ru8vmIXY+208yLu9lkvfw3E1XtuliJGtLBlgrp224rn52rzpJxlt3Eerk8hC3hMl3rKwIzeC1yo7rTTuIsx9BV8tCiJsa63an9CQmpxP8Ah9PvvxV/UtrF6o8w7s86SZ4H06rvhddE52vXMipz8bN+rtjMLUJEw5MtmKbLPZ6jU60Sy+87ehx2x5CA9nqonWiWX3nYVKFTpTeHQ9vL3iH+sWVHVtSqcnCKnlbxV+0ikrtJcWbBDJK5bNYxyr3kTrd0htXVayPfIvVPc5y99zlcv2lIQ8Jk01YMCWThqqu6kS3vv7iJMfR2rCgQPSuq9SJb4+4kbs/RqlCi8732+dU9JFPE2kva6fwl9FS/dV2CLT0UDF6rJmci9ZzuMqeRXKnkLE2lE9jp/DX0VN3V5dYOGNzXakNmbpulzcVKCsHD25u4SMbm7UMNaL6Lvq5khiVqOyq67lVEsioipuRy9cvluz9XdtD9J34Z82oP3wTxTvO0k+cjg7CshU5Dd5hrs+ZU3qqmiWOZwxhySn5LdY7XZsypottliNXqeq7tofpP/DHqe67tofpP/DJMWKWO5/w/pHqP/Mp130Lpn7N35lLe0MwR1PSwwvVFdGxrXW5FVEstrpyHvlLHKxIUGE2DDbDZwWoiN6EO2hQ0hsaxvBRERvUcioBfLoAAAAAAAAAAAAAAAAAAKKVKKARY17L+Xv8AFt86l+7NftM/jP3Glha9k/L3+LZ+0v8A2a09hn8anoMPPdGhu+lMd1ltmf8AEhelsd9I4rrLa7zNBUA9CE0AoVABbemWjLKunkhfuzJxXWvlcm9rk7zkRxEXE8NlgmdG9FZJG6y9aypvRzV66KlnNXuoTZLC1kasoq5qOTiTtSzXol7py5XJ2SX+UnW6p2aNMYYZWqQ2x5f7QxN7+8m21+VPRODxRQFqLGxoGkZn/JOS/EqcRb2rHXIyZqQ1LkbMlmo9bI1/MqdZH9s3tuTmblpsyKnKi95SH+kmgVVSqvDRLl6z23cxe7dE3Xt2WV3xT56DS2piskc0jUTkbmdZO8irlQ46n44m6eni9Tlojnt9LYvWi7ek5iTxdMSKeLz8B6uT0ti9aLt6b6kx3TIicqJ3bmJdaGuRkLXQ0zkfMt2q5LKjOde1Vydi3tuXmdhDEdLamW6STyuReVuZ1l76IuVT6dHNBKqqVEhicrb73uu1id3MvVWv2OZ3xRUMcTdQb4vTJaI17vSXVepE2dNz7OYumJ1PF5CA9HL6S6r1ImzpvoeTh+HyTTMjYivkkdZE66qu9VVeZu9zndqiuJc6E6LMpKaOFu+zUzL2zl3ud8pyqeBq31WxUDc7uPO5LOeqcidq1OxT7S+RqNyA1x1uD8MvpjHTMz9oemv7qbbX5V4+g6TC+H1pzXR4/ln/APFOS/KvGWvrQX8hqfFP9FSKGDe3ReMZ6SEr9Z6fkFV4l/oqRQwb26LxjPSQ5Hwgw3OqEnlRf7ccvjVjnTktZF/txNWk6lvgp5jvQ6KVOK3vJ5jvQnmHwUJkZwUPkqoEc1WqiWVFReull5boRU1o6ErRVKo1PYpLujXrJv4zfI5foqnMSzVC0tY2hja2nczdnbxo3czk5PIvUu+Kq85xOLKC2qyjkan1rNYa96dZymJaOlSlXInlW6w1706/kYQ1J6d9LT8DI60MyoiKq7mv5Gr8rc36HxiTDXXtzEI6qmfE90bkVr2qrXJ12uatlT6RJjUvpwtXT5HreaCzXqvK5vYu8qIrXfGa74pxmAaxETNTJlHZm3WErve3q2p1nKYMqkRM0hMIuZt9zVfe3q2p1mJdeq/l7/Ft86mQdm5fyebxy+hGY+17J+Xv8BnnUyHs2t/JpvHL6EZgUSG5MUzLrLbf6mFSWO+kMdVRbXeZE0xwVKimmiXkexyJ3FtuXyOsvkIi4dVvp5mP3o+N6Zk7rV4yL8ytJpype6EU9c2j/AV0tksyW0je+u5/lzorvlIbXwhyERWQJ+Dw4a2cqc+qL1KnvNljeTdkhTkLhsW2nanYqe88BVfWVe7e+aXdflRHOsn0I7fJQmBg9C2KNkbUsjWtaicyIiIiEddQOAcJV8KqcWFm7wpEVG/YR3zoSXaZng+kXtl4s7GT6yI5dV5E4+tbmVgqUe2BFm4vlIjvcnzVVMEbS/VUnel/cPL2cV/KZvFp5z1dpdONSf7v7h5Wzkn5TN4tPSObjw3fTBrrLa6a/wABo4zHfShrrLa6fyISLIta8NH1hrnPtZkyNe1etdERjk790RflEo1cWnrB0GjroFY7ivbxo3ol1a7vddF6lzev8VcqtkvFdEWqyLoMPyiLmh9KcXWiqd5iOk/pOTdCbw0W8PpTi60MOaldZLKZXQTORsT3ZmvXkY5URFR3WRq2TjdSjs1+qJDwVbXIio5qoqXui3ReuioRE0o0CqaNV4WJ2TrSNRXMVOst05OTs8rjzaLHZoktHLIxOZHvai+RFykU0fF03RIfiM9LPdk4K7FROSypqnIpHFMxNMUmH4pOwHuycFdionJrtTkJoLUtTlVE8phrXbrKiSN1JC5HvfZJFat0Y1F3tVU3K53Jl7W+bLdubC1XpHUSJZ80r05nSvVv0b5TtwHReoqXZYYnP32uiWanfcvET5TjIqmN49ShulJGWe1z0tm2rZdqIiJ7y/UcXxp+GsrJQHo5+mbatl22RO87dCcAdUVMMLUuivRXdxjVzOX6KL8pWkxom2RvcQsDVdqxbRMVz7OnciI56JuROXI2+/L57djxWtyIp32DKA+lSrljeVeqK5ORE2J07b9J2eFaM6nSy7p5R63cnIibE7+0w5tIv9gg8d+48x1qPmTp+NV3Jlf+wyJtIJ7BB43/APXIR+Y5U5FVO8Rfi2YfKV9k0kNXZMi5U0vbW19SPcTR3S1aZMIxXZMq5U0vbnJwdOs7ZvzoOnWds350IS9Nu7Z3zqOm3ds751Oi/wASnfcX9v8A4m9+nq/dH9v/AIk2Eq2ds350KrUJlVyKiolyEvTju2d86mUNCdKH02FVj8y5llcxi3W6OexjUVO6icbyG5peOvHXxGvlnw0RrnZlW+xOTKm02tPxek49zHwHQ0RquVyrfYl9lkLR1k6QdM1k0iLxWrkZvumVl0uncV+ZfKZj2etHuDpnTqm+Z27wG3RP1q53lI+Ydh7pZWRt3ue9rU+UqInk3ky8BwxkMMcbOpYxGoneRP4HMYIlIk9Upipx0XS9r+s7k6E06znsJSz5yoR5+Mmy+W/K75Jp1nrWFgVPQBM54WlWBpU08sLuR7Fbfltu3L37kOKumcx72OSzmOcxyczmqqL9pCcCkYte2jnA1nCNSzJm5uTdnbZrk+jlXyuIa8ItLdFgQpyE3fMWzrci7Oxe8i7HFPWNAZNM4TFs7oXZ2L3mZ9UukvTNHG5VvIxMknPmbuuvhJZ3yi9iN+z9pKsdS6nVeLOl29xzEVfJmZf6KEkEedthapOn6dCiPvnTevvyp80sp1mHp5ZyRhRHcJN66/KnzSy9ZzQqCh150pG3aKX8rZ4r95x6mzR1dV4MPnkPK2ik/K4/FfvOPW2aW8eq8GHzyHn+Xhu+l7nZVtddf4FIYgsd9J3Ostrrr/AZ+AB6AJnBQqADx9IMFZUQyQvS7ZGq1U76W8nfIg6TaNyUs74ZE3tXcvWc1epe3uK36Lrt7AmkWXrA1eRV7LO4sjb5Hom9FXzpfqk8y2cR3i7DX6XgtfB8uzg86caKvccTiag/pKE18PyzODzpyfIsLVVrkZZtPVPyuSyMlcu5yJuRr16zrdd253fM1R1LV5HJ86ESdKtWlXSKqviVze3YiubbnWycXl67W/KPKw3Saoi3RzSNb2qOdl+a+U4Sn4ynKSiSlSlojlZo12xbc99F6bnHyWKpunJ4tPwHuVOC5NFtz30Xpv2kzXVDedDG+sbW9HStdHCqSTqioiIt2tXncqciJzdU79ZgGt01q5UVHzyq1UtbMqIqcyo3K1Tjo/obU1a2hhe9Ou62Vid968X5PVF6fx5MTjdwpstEzr6W1U6ES+vPcvTmMY80m4SEB+dfS2r1Il+0+B/CTy33ySyv8rnuXm76kqdWWiSUdKyNUThF473ds5U3+REsnkPC1Y6oGUdpZVSSe1uRckd03o1F33Veydxsva3dmyc1TpMHYYiU/NOzfl3pwduVF23XlXj5De4Ww/Eks01M+WfxbbJx3XlU8PTlfySfxT/RcQ4QmTp0n5JP4p/oKQ3Q5jwjw3OmpTKi/wBqhoMdMc6PLZUXj70Ju4f1DfBTzH1nyUKcVvgp5j6idYXAb0EvQ+Ch0vjvdF5FIta39A+k6jMxtoZVVzLcjXcrmbuROu34vF7ElOjS3NOtFWVlO+F25VS7HWurHpva5O876W9OyOSxVQmVaSdDTyrdYTufk6F2HNYhpDalKuh+mmsN3PydC7CPeqHTvpOoyudaGVUa/ma7ka7uctnfF43YkoopLpfrKhCrFcMfDI+KRuV8blRU7qddF5ndU13aqhIPUZp3w8XS8i3lhRLKvK9nI13fTc13kd2aEf4Cq8WC51Mmkcioq7kruJeNvxTrOLwbU4kNzqdHR2l9zV3EvG34p1mXAAToS6ChUAHWpE/XOv8AxGp77Pu2EsFQifrnb/xKp+R920ibwkNc6msyp/uN/lcRxjprnSDcvrp3OMrbOXuSTxrvRYZdUxFs5J+SSeNd6DDLqnYYYS1Llb+oh0+H9KfL+yhRSxddHvdUd5vpIX0pYuuj3uqO830mmbWfsEx+G/8AlUzKr9jj+w7uUjNop7qpvHx/eNJnwdSneTzEMNE0/Kqb/URfeNJoQpxU7yeYjPwaMc2WmMyekm3oOBwE1zZePm9ZO47QATQSkYt2gV/Il8NnpGEtVXvhTeG77t5m7aBb+Qr4cfpGEdVKf8QpvDd9288+YphudiKVdZbfV/zKQviFjv07LKiep/MS7TkQjDr893r4pnpSEnk5EIxa/k/L/wDaZ6Uh2nhAa51K3vrN+J1eNG5qaqJ6yF27N86NZUXVE4zeVe4hmjpxvbN+dCEbJlTkVU7y2Ox1Y7tnfOpH1Exu+mScKV8Ue7JffXte6quzKvKcVSsXLIyrJfxZ7sl99e3Gq7Mqk2+nmdu350HTrO2b86EJem3ds751HTbu2d86m+/xKd9xf2/+Jt/p4v3R/b/4k13VzO3b86HeQf6cd2zvnUmpg3tbPBTzIdvhrEy1pYqLAWHkttW9735k5DraDX1qqvvCWHlttW9735kPQKgHdnXHwYpRJJG9ipdHtc1U50VFQhppDgz6aaSF6caNytvzt5Wr5WWd5SaqoY61oarm1zc7LNqGpZrlTc5OXK/r23r1PU3Xl6kjXGuHolVgMiQPLQ75W8qLtTp0uhwmKqG+oy7XwfKsvlTlRdqdPIW5qm1uRrG2nqXoyRqI1j3LZHtRLJdV3Iu63d3dvlMxx1LV5HJbvoQ5x/Q+ppXK2aJ7Evuda7F7z04vyc2Y+Six+ePdHLIxOZsjmp8yLlOGpuOZunMbKz8s9ys0zbHacqKmvScjIYumJBjZeegPc5umbY7rRU16dCaMlU1OVUTymHtdGsyFIX0kLkke/ivVqorWN66KvbuTi27G+Z2Xi5sJ1ek9Q9LSTTPReVHSPVv0VXKfTo7oZU1bkSGJzk5FeqWYnffyfJ6ouVLG8xU4bpSQln5npbMuq2XbZET33K6hi2PPw3SsjAdmels21bLtsid59GrjAnVNZAxE3Ne2Ry8zY1Ry3VOS7kRnhOQl+yOyInMhY+rXVyyhj32dK+yvdbm5Gt5mt/8AvM2+iQMHUJ9Kk7RfKvW7ubkTq4ztcMUd1NlbRPKPW7ubkTqI3bQmj6sqUntxJWoir8dvP4TFT6KnnantYLKOVzJVtFLa7t65XpuRypzOTqu8hIbS/RSKshdDIm529rk6prk5HN5lQjDpdqyqqRzkdG6SPlSRjVVuVOu5E4zFtz9l1LnEe4jpU7SKn+lpJuZirdyIl7Kqb5HInEvLznEV6nTdMn/0lJtzNVbu0vZeNFTkXl5yV1FirJGo5j2qipdFRUVFTnRU5T6nSp11QhTQ4zNDfgpZI+fI9zb9+y7zvqdKal6Kj55XJzLK9UXvpfKptIfhLh7nv5WJun7uzttf3Gxbj2Hk38tEzdVu23wM9a39ZkUUElPE9HTSNVnFW+RHblVVTkXIvF7LkI+4Lhbp5Y4WJd0jmt7113r3mtu53xUU54Ro/PO/JFG+Ry9qnJftnLxWp3XOa0kLqo1TtpPZprOqFSyInUxtXlROdzuu7yJuvm5lkKexbUIcaLDWHLM0uuxEvdUReNy8xoGw53Ek7DivhrDgN5diJxoi8aqZGwukRkbGJuRrWoicyIiInmMe7QK/kK+HH6Rk1EMZ6/0/IV8OP0kJrxDDRtKmWN/ZrbsJXrbLU+M1vqL3GGdTq/8AEabwn/dvJZkTtTaf8RpvCk+7eSxOM8G7HNpr0cn+4u32UOVwI1zZB6O9de5pFfXbgHAVznIlmTWeluTNyPTv3RHfKLdxXSl8tPT06rugz+W7kVnzNu3ymctoLR3hKVs6JxoXoq+A+zXfryu+SR7w3DVlkjjal1ke1qd9VRE8m8jPFFPjydUjQpe+WOiLZONHORbfmQ4DEUnHlJ+LDgXyxrKqJxoqotvzISD1A6O8HSrOqb53KvyG8Vqed3yi9NYy/kNT4mT0HHp4FhrYYY4m7mxsaid5ERP2Hm6xfcNV4mT0HE/S8ikjSvF28UNUd02W69a3Jpl5NJWn7gnEz3217VIk4R7dF4xnpITWouob4KeYhThHt0XjGekhNak6lveTzEc+DVjmtmsycafE4XATHNbNZkXa34n0AAm8lk6zEmvTQVaiJKiJt5IkXMicro+undVOqb5ecy3c4SNRdymnqlOh1GWfLxdjk7F4lToU1tQkYc7LvgRNip2ci9RDHRjSWSknbNHyt3Ob1nN7Jq9zcnguRHdiSh0M1j09YxFY9Gvtd8blRHNXr7uumZeVOKWBrG1GZ3LPSZUeu90S8Vru6xepR3cdxd/VN35sMV2GT00nsjHxPau690Xd12uTlT4zSCJSaquEoroMWEsSWVdORedF1svKikPy0xUcNRFhxIaxJdV0ts6UXiXlRSabZ0XrnxYhjUUTVdI9rWtS6qqoiIndvyESqfT6talkqZbd1VcvzuzOPMrMUnncmeSSV3WRzlcu/rNS+75J0sbwkwsn1MtFdE/e0T3XU3sXHcPL9XAiZv3rW91y/wDW3rV6b9ghukDVRVdvRZFRbpuXkai9t1TrL2B4+qzQlaypaqp7DGqOlXrKqLdrPK5ON8VF52n16GamaqpVHSNWGHruelnKnM1q8ZPlZW+F1JIrRnRiKkibFE2zU5eu5yryucvKqr2xqaPQ5+uTzajU25YaWVrXJa9tjUTibyqu011Lo83Vpvx6fblh+i1yWvbYiJxN7/ee1DGiIicyGF9pRfY6fxi+i4zUYV2lE9jp/GL6LiS8YM/0eYa3kTvQ7zE7f9Mjo3kTvQsnUIv5eni3+dhKEjBqET8vTxb/ADsJPmk8HjXNpdnJ6a7eo1WCWq2nJm9ZfgcioBKB35QqAAAAAAAAAAAAAAAAAAAAAAAAAAdDqZF5WovfRDkyFE5ERO8lvMdoLeRt72S5TlTaAAXCoAAAoCoAPnlpkcllRF754FXoFRvXM+mhc5eVVY1V+dW3LksUUxYstCi+Uhtd7SXLMSDDicNrXe0ly26LQOiYuZlNC1U5FSNqKnlRpcMVO1qWRETvbjmVQ+wpaFCTeNa32UsIcGHD4DWt9lLHIFQZJeOLm3OnpRvat+ZD6AW1a121EPioi7UKFQC4fQUKgA+daRvat+ZDkyBE5ERO8ljsBbyN22QoyN5EOp1Mi8rUXvohyjhRORETvHaBkbe9kufcqbSh1vp0XlRF76Ip2lCpzUdop9VLnCOFE5ERO8h2FCoa1G6IESx1SQIvKiL30uUjp0TkRE7yIh3ApyNveyX5T5ZNtkKCxUFwqPnlpmuTeiL3zwK3QKjet308LlXlVWNVV8qoXIpRTGiy0KL5SG13tJcsxIMOJw2td7SXLag1d0LVulNCi8/Bsv6J70FG1qWa1ETk3JbzHehUphysGF5OG1vsoiFMOBDh8BrW+yljmUKgyzIOqSFF5URe+dXSLO1b9FP4H0FbFt0NrtqIU5G8aIfP0kztW/RQdJM7Vv0UPoBTubPVQ+ZG8iHz9Js7Vv0UKpTN5LJ8yHfYWKtzZ6qDI3kQ6Uo29q35kO2wuVsfWta3YiFSIibEKgArPoOt8KLyoi99DsB8VEXafFS50MpmpyI1PIh3FQUtajdgRETYAAVn06X06Lyoi99EUrHAiciIneSx2gt5G3vZLlOVNtkAALhUAAAClioAOh8SOTeiL3zwa7QqkkVXSU8LnL11Y1VXvqqFxKUMeLAhREs9rXe0lyy+Cx6b9rXe0ly2qXV7RNW7aaFF50jbf57Fww0rW7moid47LFbFMOWgwvJw2t9lEQQ4EOHwGtb7KWOQKgyi8cXIdPSje1b8yfwPoBbc1rtqIUqiKUKgFwqBQqAD53Uje1b8yFWQInIiJ3ksd1hYt7m3bZCnKnIhUAFwqAAAB0Ppmryo1fIh3goc1HbT4qIu0644kTkRE7x2AFSJbYfQcXMvynIH0HQ2kb2rfmQ7UQXK2KGta3YiHxERNhUAFZ9Op8SLypfvnFlK1ORrfIiHeC3kbtshTlTmB1Pp0XlRF76IdoPrmo7afVS583STO1b9FB0kztW/RQ+koUbmz1UKcjeRD5+kmdq36KDpJnat+ih9AG5s9VBkbyIdHSbO1b8yHciC5WxU1rW7EQqRETYhUAFw+goVAB881K13KiL3y36rV/ROW7qaFyryqsbVX57FyohSxixJaDF8pDa72kRSzEgQ4nDa13tJctqm1d0LVu2mhRedI2X+fKXBBStbuaiIncO0qIctBheThtb7KIhTDgQ4fAa1vspY5FQDKMgocHxIvKiKdgPipfafLXLbrdCKSRVdJTwucvXcxqqvfVUOqHVvQpvSmhT/AG2fylyi5grIS6rdYUO/QhirKQVW6w4fYh8tNh7GIiNY1qJyIjURE+bkPsylEORlNY1qWaljJa1G7Cp1vjReVLnYC5a5UdDaZqciNTyId4BS1qN2HxERNh1ujvynBKRvat+ZDvB8VjV1VEPioilCjmnIFwqPnSjb2rfmQ70QpcrYoa1rdiIfERE2FQAVn0FCoAOB8dZhjHoqOa1yLyo5qKi99F3KfbmOKFp7GuSzkuUua12jkLXdq2of8LAn+2z+B9+HaKU8PtcETL8uVjU8yNPYahyaYrJGXYt0hQ0XmRDGSWgot0htRehCrWWOQBnmWDrfCi8qIvfQ7AfFS+0+WudMdM1ORETvIh3AFLWo3YES2wAArPoAAAAAAAAAAAAAAAAAAAAAAAAAAAAAAAAAAAAAAAAAAAAAAAAAAAAAAAAAAAAAAAAAAAAAAAAAAAAAAAAAAAAAAAAAAAAAAAAAAAAAAAAAAAAAAAAAAAAAAAAAAAAAAAAAAAAAAAAAAAAAAAAAAAAAAAAAAAAAAAAAAAAAAAAAAAAAAAAAAAAAAAAAAAAAAAAAAAAAAAAAAAAAAAAAAAAAAAAAAAAAAAABQFQAAAAAAAAAAAAAAAAAAAAAAAAAAAAAAAAAAAAAAAAAAAAAAAAAAAAAAAAAAAAAAAAAAAAAAAAAAAAAAAAAAAAAAAAAAAAAAAAAAAAAAAAAAAAAAAAAAAAAAAAAAAAAAAAAAAAAAAAAAAAAAAAAAAAAAAAAAAAAAAAAAAAAAAAAAAAAAAAAAAAAAAAAAAAAAAAAAAAAAAAAAAAAAAAAAAAAAAAAAAAAAAAAAAAAAAAAAAAAAAAAAAAAAAAAAAAAAAAAAAAAAAAAAAAAAAAAAAAAAAAAAAAAAAAAAAAAAAAAAAAAAAAAAAAAAAAAAAAAAAAAAAAAAAAAAAAAAAAAAAAAAAAAAAAAAAAAAAAAAAAAUAMZ67NfWHYDSuqa6ZrLIqtjRU4R6/FYq5lKHOREupU1quWyGTEQqaXdeHRasVq5pY8NY2mpkVUila57JnJzuRczUUwZo70QXSqCpbUPxaqnYi3Wnkl9iXk3LZM1t36ypuoVLH6FSlyM+xFtZs0pw7hXtbFVwK1lRG2+XOrVcqszcZzctuMZc1sa4aDBqV9VXTNjYxqqjVVEe+yXysaq8ZV7U+xE3PaUMXNsL9Bp+189F4rZpXw4RC2On3o2d6vjmv3upIv1+3vpY+XhExmtY29+DbKmTvdQUpqVKlj9D6FVNTeyL0VKqdVQ0GNo10UitY2rzOdJmW91kVcrESyfrNq+HYg2WNkjFux7WvaqddrkRyfZUuOYrUvxFtHa24z7gAUlYAAAAAAAAAAAAAAAAAAAAAAAAAAAAAAAAAAAAAAAAAAAAAAAAAAAAAAAAAAAAAAAAAAAAAAAAAAAAAAAAAAAAAAAAAAAAAAAAAAAAAAAAAAAAAAAAAAAAAAAAAAAAAAAAAAAAAAAAAAAAAAAAAAAAAAAAAAAAAAAAAAAAAAAAAAAAAAAAAAAAAAAAAAAAAAAAAAAAAAAAAAAAAAAAAAAAAAAAAAAAABaGtDSt9BQ1FVHE+Z8MaubHG3M5y9xDQZre1lY5phjKxPbLJK6VzIaViOVsSI7Kqo3qk4vGcfoZqYUcitciKipZUXkVFMY6JbNmEUNdLiFPSRMqJVRcyMamReurLN3ZuyKWNTPmfwbe8rV1m2ThfAgbqw6DtSvw9JcUqp2Vixq7JTubwaOyqqIuZubmNbmuzV9/ZWK1mH3V3SsvB5l5V3Iu/5z9KWk9ekVNPIq2RkMrr+Cxy/sPzd7RGlCVuNYhVIuZJZ1ci8t9yJ+wsrEvFsmyy96FbW/V350+JLHoZWuWDBUxGqqpGMgZHK+zls58iQ3Y1t+XNbKYw1ya3ca08xfgKZsr4FktBTtRysjYrt0kidbLfqiPOhOB1VZPHRUyvV08jGoxt7ZnKjUcqJzXN7uxLsfUujdBG58bX18rEdPK5Lua5Us5jFVMyN5OKbFWo7LEibESzedTDRcl2s4Srd3MhHLUp0ICjbCyXFqiVZ1aiujiVqxp3FzJmIsbfOxA3ReSOppHvkoqh+Rueyva/KrnJu3I3LY3q2NcPRl8fY3C6CDle6qctuZOC3KYEV63aqcplwGpqi8i6moCnkVHIqbluh+j3ZMx6SowKhkkW7kiay/cYxiJ9k/ODCl1RO6h+kPZUwF1NgVBG7lWFj/ACPjYqGwTyS9KfEwneVb0L8DL4AMUyAAAAAAAAAAAAAAAAAAAAAAAAAAAAAAAAAAAAAAAAAAAAAAAAAAAAAAAAAAAAAAAAAAAAAAAAAAAAAAAAAAAAAAAAAAAAAAAAAAAAAAAAAAAAAAAAAAAAAAAAAAAAAAAAAAAAAAAAAAAAAAAAAAAAAAAAAAAAAAAAAAAAAAAAAAAAAAAAAAAAAAAAAAAAAAAAAAAAAAAAAAAAAAAAAAAAAAAAAAAAAAChUAAwptf6eJh2AV1Qrst41iv41rm/tPzl1cyuc5VW91Vbr3zc/0XfT5IcEZRI6zql7HoiLZVSOTeaX6eJXOa1OVXIid9VshYg7+I5ehP77TJfpDanSpsn6Ehs6MqZ5sZqI0c2ndwUTXJdFV7Ee16IvFu1yG3ZHEa+h96BpQ6MYbdqNfPTxySbrKruMm/ukk1U2EwtnZOTTr4/ea6Dqmfl/tCppk6L7rG4bGIqFq3bDFHJ3Myo5q+U3H4hiDY43yO3NY1XKvcQ/OZta6wX4lj1fM9b5KiWFi/EZI5G/ZNW9LxWpya/I2MPRj16vmWpqV0R6fxWho038POjLeRV/YfpP0Kw1IaOliTdwdPCz6MbW/sNF3Qy9XfT2k1LLa7aJ7J3bus7Oz9pvpY2yIncsbaJvYTE5VVfh8DWpvorl5ERPidwAMQyQAAAAAAAAAAAAAAAAAAAAAAAAAAAAAAAAAAAAAAAAAAAAAAAAAAAAAAAAAAAAAAAAAAAAAAAAAAAAAAAAAAAAAAAAAAAAAAAAAAAAAAAAAAAAAAAAAAAAAAAAAAAAAAAAAAAAAAAAAAAAAAAAAAAAAAAAAAAAAAAAAAAAAAAAAAAAAAAAAAAAAAAAAAAAAAAAAAAAAAAAAAAAAAAAAAAAAAAAAAAAAAUKnx11Tkje9exa53zIqlLlsDTn0X/WD0xitNSNd7lZI1zUXruVrkuhCDVdgjqnEqGFqXz1VOip8VZmIv2VMlbbmm3T+kmIzo7MxZURvMlmoi+YuzocWgvT+k1LG5uZkccsq8yLHkenmK6e1FyquxdXdG0rnHWvbiS399Zve0D0dbSUkFM1LNhjRiInMn/8AZcSnGNAoct1VSyxLIiGINrHTBaHR/E52rZ7aWXJ4SJuPzk4xiTppZJXdVI9z3d9y3U3sdE4xZ8WjcqMW3CK5ju61WruNDRiQVzRX81kM192wmc91+BtT6DTq3t09iTk3SRpCxfjRS3Xzm01qkM+hZYTBBovG5r2XdU1CvW6IqXVi7/lHjbdXRBYMDidQ4ZK2XEXJvexUckHIrXdk1yusrcpsptbPy8lk7DXSsPMjnJxqq35ic5XKQ46H3tg1GktLJFWROSpp7K+bKqNkzLutuy8UmQ0tOblWxca65UAFBWAAAAAAAAAAAAAAAAAAAAAAAAAAAAAAAAAAAAAAAAAAAAAAAAAAAAAAAAAAAAAAAAAAAAAAAAAAAAAAAAAAAAAAAAAAAAAAAAAAAAAAAAAAAAAAAAAAAAAAAAAAAAAAAAAAAAAAAAAAAAAAAAAAAAAAAAAAAAAAAAAAAAAAAAAAAAAAAAAAAAAAAAUufFiOKRwxulle2ONiK5z3uRrUROVVVVyoUqtgfah52JaQQQpeaaKJOeSRjE+0rTW9tV9FeZSSy0WCRtmcxVY+pcr2ZHJuVY1TNG9PjGunWJtN4/jTnMq6+pqEkcqNh3LuXkY1GszLuPiLfYVq220/QFiu0Dg8K2fX0+7tZoneZ58Ue03gi7krofps/nNCOr7Zd0gxTfTUdQic87ZYUXvK9m8ubS3YZ0noo1llpFc1EuqRPfK7yNazMVrptKE12G+TDddGFS9RX0vlniTzvLno8bgk9rmik8CRjvRcfmAxShqqZ+SZs8L2r1MjZI3Iqdx6NcZA0M2pMfw9ESjxOohRORGq39rSpLKFuh+k05IQR6GPtG4vj9LVf2lI6fpaRkaTvddz80auuqI1reqJ2IfXtVq2Uoa65zABQVgAAAAAAAAAAAAAAAAAHWWBr10rSiwqtnVbZYZEv3XMVEMgHjaV6J09dA+mqomzQSJZ8b75XJ3bFmIiq1UTbYrYqI5FU/MTpHXulqJpHLdXSPVVXwlNlHQadAUfPW4g5u+B3BNdbrSxb/MTed0PrQ1VVVwGjuq3/wCZ+IZO1Wak8KwSN8OF0cVHHK5HPZFms5zUsirmc7sTKgvSGi9Fk69O4sxkWIvXf4l/AAtlZH3ba1TvxfAKyCJueZkT5Im9s9G2RD892PaPzUsr4J43RyRuVrmuRUW6LZbXTeh+pDKR51sbDOjuMTLU1NDF0w7qpUaquXv8fLyqWWtVjlVvHtLma7UReI0a6vto3G8Mp3UdBWSwwSq7NGxEW6uVFW27N1SGVtmbYqxjSirbNM2WKkV6uqKiW6PsrlVVayRONmd2vObWdD+hxaLUkjZFw6GZ7Vu1XtVLL5HkkMEwGGmjbFBG2ONqIjWtSyIiJYzGuRFzLq4xluuiaNLL1KakaHAaKOjoomxtY1MzkTe527Mqr8Z28yOcbHItOcqrdStEREshUAHwqAAAAAAAAAAPjrsSjiTNJIyNvbPe1ifO5SmHYtFM1HwyxysXkfG9r2r3nNVzVAPtAAAAAAAAAAAAAAAAAAAAAAAAAAAAAAAAAAAAAAAAAAAAAAAAAAAAAAAAAAAAAPkra5kbVfI9kbGpdznuRjWpzq5y5UQA+sHwYdjEMyZopY5U7aN7Xp87VcfeAAAAAAAAAAAAAAAAAAAAAAAAAAAAAAAAAAAAAAAAAAAAAAAAAAAAAAAAAAAAAAAAAAAAAAAAAAAAAAAAAAAAAAAAAAAAAAAAAAAAAAAChUAHW1pqv6KNtlyNV2BYfKrEVFSrkYu9eVr4XdU3K5psl1p6TdJYdWVN7LDTyyJ32sVU8x+bfWvpo7EMQq6x63WomfJ9JTEdv4iN4k1X4IZDNGq/qQt3CsLknkZFE1XySORrGNRVVzl5ERE5VNy+w90O2goKWDEMWp46mtka2WNkjUVIEciOa5qplcj8qq3K4hD0MPVVHiWkLHyojko2tqGovbNfb9pvZgjRERESyIljaL9WxPWXuNfw4lvRT3nCjo2RtRjGo1rUREanIiJuRD6VKgxjIIC9Ep2PqfEqCTFKSJkdbTpmcrUROGReXOq7+KidiaWZYlRytXlRVRe+i2P056y8F6YoaqLLmV8EiI3luuR1kTu5j89lZs1Y2tcrP7Krsjqm2bgH2yul5b25MqlmEn1it9HT+pkPW8NHcaafI21dCs0DSl0djqMtlrUZKu7lyo5pNREMYbNehH9m4Jh9GrVasMCNVFSyot1Xf85k1VM2YW8RebTs0NfBSzU59e3U7AUQqWDIAAAAAAAAAAAAAAAAAAAAAAAAAAAAAAAAAAAAAAAAAAAB8dfXMiY6SRyMY1Luc5bIic6qUuWwK1VY1jVe9yNa1LqrlRERO6q8hB7aq6J/h2DcLS4aja2uYlt91p7r/wB2NeVu8jLt89ERnq5pcLwiV0VNHdkk7FVHvdva9t04qtbI3ikYNmLZPxHSirtG1zYM2aaofdEXMq5lR1rKuYtwUdFX1W/32IXHZWJrwj19ONrfSvSKoeyKprFjkWyUdNmkjYi7rImTNY2idDY0Rxmhwl1PikaRsarelkVzs+Vbq7O1WtyrmUyTs57HGEaOwRtggbLUonGqpGpwqr1+MnWM+oZmZsNHMTW5jLeIqKvEcyoBZLoAAAAAAAAAAAAAAAAAAAAAAAAAOieZGtc5eRrVcq9xEuoB2qUMB43ts6P080kEtZG2SJyte1XsSyp8oyXqz1qUeLwLUUUrZY0dlVzVRd9r23BqXS6bAui2UvQAAAAAAAAAAAAAAAAAFAp8lfiMcTHSSPaxjUu5zlsiJzqpB/al6J1h2ENkp8NVlZWIio1yceBF693MXcrd5QrkQqa1VJf6e6yqLDIXT1lRHCxrVdx3ta5bdZqOXepBvGOi30L8RipKCnWWKSdkPCSsex3He1l0suXrmsHXZtL4tj0z5K2pkdG5btp8yrFH3Gopa2qdP+J0H+rpvvmF6Xh5npm2X2FMRURq27T9N1FPnY13OiKdx8OAe0x+Ch9yFLkspQxbohzI5bc+A4pVYFUU2Fxtkkma9kqK5UXglb2KI12Zc3YkjUOLmFl7cyWLzHZVufno0e2gtLdGZ2MdU11PHE+3S8qOjhlRu7LdWZlbu7HmNg2y90V6jxB0VJjMbaSpkdkZJHmdCvM6SR6ta3M1FXwiWmvPZkwrSCnfDW07Fe5qoyoRqLLEq7szFXioppj2xdhqu0ZmWaNHT0DlXJM1MyssiuVZFRMrUy2K2xrLlen99JSrEVLtU304PjUVRG2WGRskbkRWvY5HNW6X5U4p95o32INv2twSqipK+V9Rh0jmscj1Vywpzxp1KdZpux0W0mhrII6ine2SKRqOa5qoqb0RbXTrpcvxIVkRycH+9FLLX65V2ntgAtF0AAAAAAAAAAAAAAAAAAAAAAAAAAAAAAAAAAAAAAAAAAAAAAAAAAAAAAAAAAAAAAAAAAAAAAAAAAAAAAAAAAAAAAAAAAAAAAAAAAAw9tYu/wD4/if+kn+7cfm7ep+mTXxowtbhFfTtvmkppmtROu5Y3IifrPza6ZaOPo6qelkSz4JHRuResrSwzhuTmQyFS8NOlSbHQiNJYoMenZI7Ks1MjGX67lk5EN2DVPzGarNY8+FV1PXU7rSQStkROs7L1nJ10N/eyjtRUeklBHLE9qVUbESohumdrmoiOfZORrn3ymyf9YxqpxaO+BrkXI9b8fBM9goVMQyQfN/Z7O1T5j6QAURCoAAAAAAAAAAAAAAAAAAAAAAAAAAAAAAAAAAAAAAAAAAAAAAB12NcnRSdr9aGBcFoZbVE7bVLmrvZE9t25VTkdwjSdOt3T6PC8Nq6+RURtNC6Xf18tj842uPWBLimJVVZK9X8LNIrFVb2jV7lY1O41qmM7fvycW13yL7N63P1N+Z9eprVdU47icFDAiukqJbOet1Rua7lc5U7ayn6Etn3UhS4Dh0FHTMRqoxqyOsmZz1RFddU5Uz3IRdCK2e44qOTG5o/ZZ3Oiizp1HAybnN5szXGyq5soi5GpDb0u+XUYLd+7P8Al+KnYVKFTGL4APH0h0spqRuepmZCztnrZAD2AY7wnaAwWeRIocSppJFWyMa9Vcq/MX+xyKl03oosDtAPPxfHIadiyTSNjYnK5y2QA9AGOPVEYHmyf2nS5lW2XOt783IX3h2JRzMSSJ6PY7e1zeRe8LA+wAAAAAAAAAAAAAAFDzNJvc8/iZPQU9M8zST3PN4qT0FLMTguK27UPzdbSfv9if8Aqn/sNufQk/8A0/Lut+UJ6BqM2lPf7E/9U/zNNuXQlP8A0/L/AKhPQM6T+zP9lvehjzXl29Kk5wAY5dAAAAAAAAAAAAOBiLaS2j6LRqh6crEc5HK5scbLZnuaiOVEReVcqmX0Qw5tQ7PsOkeFT0D8jZXMd0vK9LpFI6yZt3GTip2Jbfe2hWy19TUBtEbfeOaSTpS0bpKeBzlSOGnVWySou5GvRFyu4tj1dR/Qv8dxdjaqpy0cb8znMqEeyZb70cnhOXMbH9mXofWEaPtSR8baqr68kqJI1qot0WNHJmavKSmZAiIiIiIiJZETksXkaxqWTV3L/e0tq5zl9Vp+bnaJ1CVOjuISUFS5r3MXc9l8rkVL7lUtXVT750H+rp/vmE3ejA0rUxWmciIiuR+ZeutkTlIRaqffOg/1dP8AfMPsi5Xubf1u5S5NIiXtyJ3H6ZsC9pj8FD0Dz8C9pj8FD0A/hOLMPgp0HMAFBWdaFqay9XNNitHNRVcbZIpmK1UciLa9uS/eLuOFyhzUcllPqKqLdD85W1hqAn0dxeele1eCV2eGS3FVHqrka1edrbE0ehbbYro5G4FXSKrH+5XuXqeVXI5V8hInooWz+zE8FfXMZepoUV7cqcZ+azbLzo1ppV0X0gloqqKeNzmSQyNW7VsqZXJdLp3iuUjarDf0L0cSn2ZhXRIjP/S8aH6hGSX3ocjEGytrdbjeC0dci8aSNEe3roreLv8AmMvlT2ZHKilqG66XOYAKSsAAAAAAAAAAAAAAAAAAAAAAAAAAAAAAAAAAAAAAAAAAAAAAAAAAAAAAAAAAAAAAAAAAAAAAAAAAAAAAAAAAAAAAAAAAAAAAAA6XtRUsu9F5zUF0ULY6mpqp2N0MWanmutS1jd7ZHKquffitRuVOpNv6uPL0i0chq4XwTxtkjkarXNciLuXctrpuUsvavCbtQrY+2i8FT8uRkDU9rwxHAqplXQTLG9jkdldd0brdZ8eZrXJ8VxNvbd6GhU0ckuI4LG6amcqvlp23V0XKqvzOXLl5G5Wmu3EMPfE90cjVa9qqjmqllRU3KhehxeTRT4+FdNdUN5uyZ0RnC8ebDS1T20eIORGJHI5vs8ibl4NrE3XsruM7qSZEUiKiKm9FS6KflroMQkie2SN7o3tW7XMcrXIvcc3jIbTNgvokubgsKxuRL7mQ1LrNTmRHdU5y5UQyMqO2be/oMdVVm3g9xtPB81JVtka17FRzXIjmuTkVFS6L8x9Jjl4AoVAAAAAAAAAAAAAAKFQAAAAAADrkeicqonfHDJzp86GtLoz+k1TTU+CLT1E8CumqEcsMskWazEtmyObc1X/3oYn/AJjXfW6j8QA/T7wyc6fOg4ZOdPnQ/MF/ehif+Y131uo/EH96GJ/5jXfW6j8QA/T7wyc6fOg4ZOdPnQ/MF/ehif8AmNd9bqPxB/ehif8AmNd9bqPxAD9PvDJzp86Dhk50+dD8wX96GJ/5jXfW6j8Qf3oYn/mNd9bqPxAD9PvDJzp86Dhk50+dD8wX96GJ/wCY131uo/EH96GJ/wCY131uo/EAP0+8MnOnzoc0U/L/AP3oYn/mNd9bqPxDfH0ODFJZtD8LkmkfLIrZbvke5719kXlc5XOUAk8AAAAUAIB9Fs1tuo8Gio4ncerkWOVvX4JzP5kNM+A4O+omjhjRXPkdla1OVV5kJx9Fx07dPjsdMirwcVPGtutnu5FMB7EeinTek+ERq3M3ptmZO4qO5SmQZndmVNq36k/oVzb8kOycSe9f6m+PZ40IZh+EUNOxqN/J4XuREtx3xMV3lzGSrHyYfToxjGJyNa1qd5qIn7D61Lj3XcqmPCbZiIUaVuUVTxNL6WaSlnZTuRkzopGxuVL2crHI3d4Vi251kuXkS5GLbP276LRuF8ELmz4i9qoyJqpeNd7cz2uTKqNcrXdUae9N9cOkWPyzVcs9TJbM+VsD3xwtS11tGkmVEykiMB2CNIcZ0jnixThEhZMrp6x+ZWPRuVysYmdzmcIy7Ta7oDs94VhOHdJU1JCsbIlYqyRske5EReqe5mZV39kfGsyw90c7fLsbyfIqV2+yN2ekfnLpNKqqN2ZlROxycjmyva5PKi5jdJ0LraFqsXwt1NWOWSWlcrGSLyrG1ERMyqrnOd8Y1KbTdCyPSDFo42oxjayVGsaiI1qbtyInFRCRGxvtSU+jWD4hKkjenZUlZTRrvVHqiK16ovFVPimRDeiw3KvJfr4izEauZETlsbHdsjboodGIVhYqT4jI3iQsc28V0u2SRr0yuY6ytytcafdYuv8A0i0jq5ZlnqXKqe1Uz3xRtZdUbdjZMl8vZdwy5sy7L2J6cYm/EcQfIlEsqvmlfntJxlzQxrfMzLdHdqbitWmz7hOFUzKamo4MrWoiukijke5bJe73MzLyFhIaol3cL1S+6Il8kPg+k7lPzeTaQVbXKjp50e1VRbyPuiou/r8uYlRsT7bOI4NiMMNTUvmoZ3tZK2ZzpHJdbNyOkc7Jxl7Ezb0XjUfQUMlFiFLGyCWqe9krI2o1jkjjRUsxqNai3XqjXLo8v5RBb4aP00LkvG1v1KhbjQ9Oq7VP1B4PiTZoo5WLdr2tcip8ZEX9p95YOo6dzsLo1e1WuWBl2qt16lC/lD0s5ULUJ2ZqKVABSXQAAAAAAAACh5mknuebxUnoKemeZpJ7nm8VJ6Clp/BcVt2ofm72lPf7E/8AVv8A3Tbj0JT/ANPy/wCoT0DUbtKe/uJ/6t/7Dbl0JT/0/L/qE9AzZT7M/wBlvehiznl2dKk5kKlEKmOXwChUAAAAAAAAAAAAAAAA009GI99KXvP8yEHNVPvnQf6un++YTj6MR76Uvef5kIOaqffOg/1dP98wqp3Cb7S96lc1x9Cdx+mbAvaY/BQ9A8/AvaY/BQ9A+v4TizD4KdBzABQVgoVABb2m2j7KqkngeiObJG5FRd/WU/Nrrr0Mfh+KVlM9LKyZ627jnuVP1H6ZZG3S3cNDnROtC+ldJ6p6NysmSNW8y2ZvMRd7GReVLfL4mSxM0Nycmvw+RKLoOutxXR1eGSv6lzFgZ8VGqrrG0NFNAvQ3NNFo9KKRVcrWPZK1yX3Krmo1Lp5TfvCt0Re4bWPqjH81ndX9LGth6Oczr7f63O8AGKZIAAAAAAAAAAAAAAAAAAAAAAAAAAAAAAAAAAAAAAAAAAAAAAAAAAAAAAAAAAAAAAAAAAAAAAAAAAAAAAAAAAAAAAAAAAAAAAAAAAB0TQI5FRyI5F5UVEVF76KQn2xOhzUGNskrKBjafEEb2KcWWycVqMTLG1cyq7MTfKWLbm3K2usfmI1k6tKvCauSjrInRSxqqcZNypdURUXqeMiFs01U5jkc1Va5q3RUWyoqG7zoleyxFi2FS4hTxIlZRsdJdqIiyoiIxrVt2t1caQqmBWOc1yWc1ytcnMqLZU+dBCfdVT0k/u5W9qWunBX+7G67oX2067F8OXD6p+apo0RM6rve1y8VLfFahO1GmiPoXemElPpNTQtdZk+fOl7IuVi2N7bHGbHZojuVDBh6KreTZ0FVQjbtP7ceE6NN4OV7Z6xyKrKZjt6oi2W7k4rVzW6rnMxa2GVa4fVdI+6uBk4Leicbg3W5fjWNaezR0OyvxiuqMU0szPV0i3gc7Mkquai57ovEyuTLlaYKIr1tstxmXdES668x2Yd0aFzpm58Lc2JXJf2Zq2b17cU2N6pNb1Li+Hw4hC5qRyRtc9FVLRqqXVqqvamkXoh2pjDcDxllLhkfBQrE5zmXVcrkfa115eKXFoBtN1iYBFo5gqyOrKyZGyOajr5Xtyqy/YpmTqi6xzXwnKnCumXtspbe1WxGoq730ubS5PraU6J/hWCSLT0jP7QqGuVsjGPyIxUvdbqmVeMhgXBejRKsrUlwtyRqvG9mbuTn5DJezj0LXDG0jZ8fjWtq5mo9zXuc3g1dZVbma7fl3tIJdEH2cKbR7GOBom5KWSKJzGX6lzmucqb+NzFu+5ORHa37OguW3VFy6W7ek3calNc1HjtBFX0UiPikui25WvbbO1b9q5cpkA1zdB0xCVcMqI3J7E1XKxc196y793WNjJlR4aMdpyIvahiQnK5NeVU7FOYALJkHzVNS1iXc5rU53KiJ86nz/wBtQ/DRfpGfxIf9FFxyup8ASSg4bhumaZPYWue7Kr3X3MTNY1Lf3raU8+IfoJ/5C21c1+ZSpU2H6LP7bh+Gi/SM/iP7bh+Gi/SM/ifnR/vW0p58Q/QT/wAg/vW0p58Q/QT/AMhcKT9Fq43D8NF+kZ/ErFikTls2SNy9ZGvaq/Min502609KOfEP0E/8hJLYA08x2fSOiZWrWcCsjc3CxStZyO5VcmVC5Dh51t0+5LluI7Kl+j3rY2AbcWxc7TCKhjbWpR9JySPusayZ+EajbbuTLYiV6yHJ/njPqzv4m10FsuGqL1kOT/PGfVnfxHrIcn+eM+rO/ibXQAaovWQ5P88Z9Wd/Eeshyf54z6s7+JtdABqi9ZDk/wA8Z9Wd/Eeshyf54z6s7+JtdABqi9ZDk/zxn1Z38R6yHJ/njPqzv4m10AGqL1kOT/PGfVnfxNg+zJqWXR7BaTCVnSpWlR6cKjciOzOV3U9blMrAAAAAohwU7D56jqV7xbetkcpUh+e/b40m6a0jrFzZuCkfFyWtleu4yJ0KzRtJ9I2PVmbpdI5UW9svHcl+6YO2s0//AJBin+sn+8Ukv0H6REx6q7tPEifpVLkjvWpbkXuUVFEu5OdO9DdahUAFIAAB0Mp2oqqjURV5VREuvfXrlvayccbTUFXO5bJHTyv+ixV/YXORq2/9YaYdo5VvV1lm/J0/3WvaY8dbMUvQW3ciGiHW3pGlXidbVN3pNUPkRe+Xfsw6j6jSDFYKKJqrEr2rUOTkZEq2c4xC5pum6FJqDZQ4W7EZWJ0xUuXI9U38C5EcifSNhLtRrNdiJ28hjTD1zabVXs5SYmqXVdTYRQwUdNG1jYmNa5WoiK5yNRFcvhWL2acji4xnOVVup9a1ESyGrno0ePs4LC4LXeksqqt+RFjS241j6u8LWetpo2orldNHuTuPaS06KrrJ6c0ifTNW8dPHErd+7M5io7zFidDv1fdP6TUSObmijc50m66JxVVL/KQqp6XVFVNLqvVt7i5OPyttyIidf/tTfHq/wzgaKmjRLZYY93yELkOinhyta1OsiJ8yWO5A9bqqlpiWREOQAPhWAAAcDAG1ftWwaKw0008CzNqJHsSzsuXI1HX7vKZ/UhF0TnZ/xXH6KgiwyBs74ppXSI56MytdGiIu/l4xZiKqZbcpego1V33IvcWN68lhv+Cd+k/9h68nhn+Cd+k/9iCvraWl3+AZ+nYPW0dLv8Az9OwvFknV68lhn+Cd+k/+J8WNdGGw58MrG0TlV0b2onC9dWqidiQj9bT0u/wDP07DhP0NrS1rXPdQMRrWq5V4dnI1Lr9lD461tT6hgbWXpl/aFfVVqM4PpmVZcl75boiWv1+Qm1sT9ELpNG8NkoZ6VZFdKj0ej7bkbbksQQ0gwGWlnkp5m5ZYnqx7b3s5Otcy7qm2PMexynWqw6lbLC1+RXOkazjWvyL3C7DukNUbwbJ2cRbiIiuRXcK6/wBTY768nhn+Cd+k/wDYevJ4Z/gnfpP/AGIK+to6Xf4Bn6dg9bR0u/wDP07C2Vk6vXkMM/wTv0n/AMT3tAOiv0GIVtPRx0TkWd+TPwnU7uW1t5r49bT0u/wDP07DIeoDofWlFHi9FUz0LGxRy5nu4Zi2S3MXoaNVyI7ZcoiKqNVU22N29LUZ2Nd2zWu+dEX9p9B8WGQq2KNq8rY2IvfRqIp9pZXaVIAAD6AAAAAAAAAaaejEe+lL3n+ZCDmqn3zoP9XT/fMJx9GI99KXvP8AMhBzVT750H+rp/vmFVO4TfaXvUrmuPoTuP0zYF7TH4KHoHn4F7TH4KHoH1/CcWYfBToOYAKCsAAA60NP3Rk8DRlfQzfC5/stQ3BuNSXRo5kWowtOunDX+ZDEicNnT8FL8NdH9HxQgfqA0mdSYvQzM3KlREzyPkYin6UMImzxRu7ZjV/Uh+ZLVf74UX+qp/vWH6ZtG/c8Pi2+Y3L/ACDOle5DXoloq9B6wAMEyQAAAAAAAAAAAAAAAAAAAAAAAAAAAAAAAAAAAAAAAAAAAAAAAAAAAAAAAAAAAAAAAAAAAAAAAAAAAAAAAAAAAAAAAAAAAADrU8ubSamaqtdUQNci2VrpY0VF5lRXbjq0yxNIaSplVbcHBK+/gsc79h+eTWxtHYnUYnWTxV0zIpZ8zWtVLIlkTdxe4W2reJk5i5l3ufnsfoxgqGuRHNcjmrvRyKioqdxU3Kd1jAuxLpI6q0ZwqR8qyyLSR53OVFdm38tuuZ6VS89mRytLDXZkuVABSVnhaY4e2almjfbK9jkW/Ifmf1n0KRYjWsat0bVT2VLfCv3bj9Gm0Lp9FhmD11ZKqI2GFzrLyrvRLInX5T82+lNcktTUSpySTSyJ3nvc5POYrfKu6E+Jf/2+skR0ObDOF0rw9MytssnJ4J+gJjLIncQ0y9CQ1ROqsWkxFyLkorWVU3KsiKnKbnTax7NaxOa69f8AQ10NbxHr0IVcdM8iMartyIiKq+Q+gsnXLpIlJhddOq24OlncnfSNyp5jXvdZqqZrEuqIaIdvrWAuIaS1++7aeeSFngoqLuJwdCn2UmxQLjdZEiyybqdrkvZi2c16d01nQSOxjGmqt81dVtvz+yOROufoq1JaINoMKoaVEtwNPGxe+1LGVLt3KBfj2dHGpZmX7pGy8W3s0QvlTRZ0VLT5avSWSJrrxwwQIllvZ6I9rjd7pPjbaanlnetmxMVzl5kQ/N7rhx+XEsbrHqqvdJVzMZbeqtSV+VE+SYjWrEjMb/euiGW1ckJ7+r4qbcOhLaEup9HW1D25XTzTt38qo2S6ecnQYy2cdC20GDUMDUt7BFIqfGkjY5ftGTUM2YVN0W2xNE6jXwE3t+XXtOYALBkHz1FK16Wc1rk5nIip+s6P7Fh+Cj+g3+BgHbX2nKjRXCv7Qp6WGqfw0MWSZ72NtI5Wqt2ca7bEC/Xt8W/yTD/rFSUNXNe3EfV0Nuf9iw/BR/Qb/KP7Fh+Cj+g3+U1F+vdYt/kmH/WKkevdYt/kmH/WKkrPhtz/ALFh+Cj+g3+U5Q4bE1btjY1edGtRfnRDUV69ti3+SYf9YqTM2yr0T/ENIsXp8Nmwujp45nI10kU0znoio7kR/FXkK2sc5bJz+4oc5GpdTY4CiFSgrAAAAAAAAAAAAAAAAAAOBwqepXvHcdby29LoVJtPzf7W7FTSHE7oqflc3KluzUkp0H+oRMeqkVURXU8SJfrrwq7kMT9ES0dWn0kqkW/sl5EvzOe497oYukSQaTUrFRv5RJHGmZbW3uXdzqXpDfInQvcpTUXavXnTvQ30oVKIVKQAAAdZrU6Mjp6jaGlw/NvldHPl8XIqftNlmY0c9Fe1gpWaQJA110o2SQOTmXOjv2mLF1cxOfu1MiClke7m79CIGg+ArVVdNTpyzSsj+ktj9IuobRNKHB8PpkS3BU0TXd1UaiKpoW2JdAVxDSGgYiXSGaOZ3gselz9ElJCjWo1OREsht36QWpyrfs0NcmsVeZO87bHk6TYw2nglmetmxsVyqp6tyO23vpm+h0YxSSN2WR1M9I3ItlRUcxd3yTVRls1bf3fQzYSXciKaJteel767Fa2okcrlWolYir2rJXo37JsC6Dbq8VZa6ue3ciR8G5U7qo6xrGmnWR6uXe57lVV51ct1/Wpve6GToF0nozTPc20kyyK66WVUzXb5zZS7dzhOXkRE61/pcxZp2d7U5Vv2f1sS/BS5UxS8AAAAAACioVABwyJzDInMcwAdWVOY87SRqdLz7v8Akyegp6p5mknuebxUnoKWn8FxW3ah+bvaU9/sT/1b/wB0259CXW+j8l+tUJ6BqM2lPf7E/wDVv/dNuPQlP/T8v+oT0DNlPsz/AGW96GLOeXZ0qTiypzHLInMckKmOXzhkTmGVDmAAAAAAAAAAAAAAUUqUUA01dGH99KTvP8yEHNVPvnQf6un++YTe6MFVNXFaZqKiqiPuiLvTcnKQh1U++dB/q6f75gp3Cb7S96lya4+hO4/TNgXtMfgoegefgXtMfgoegVv4TixD4KdBzABQVgAAHE1J9GlX8owv/e8yG2xTTL0YHSFJMWggRVXgUVVTmzNQxIq79nT8FMiEl0f0fFCD+q73wov9VB96w/TNo17nh8BvmPzibMmi61mNUMKNRy8Mx9l5LMe1x+kTDYssbGolrNalvIbiJ5FnSvwNci3irzInv/8AR9oAMIyQAAAAAAAAAAAAAAAAAAAAAAAAAAAAAAAAAAAAAAAAAAAAAAAAAAAAAAAAAAAAAAAAAAAAAAAAAAAAAAAAAAAAAAAAAAAADBW2dp43D9H66dVtdnBfpWuZ+0/OlK7evfU3t9E00JxLEcCdS4fBJO50kT3sjarnLkeq7kT4ppexvURjNNdZ8Nq4kTrvichjQ+G9V5k/vtMh1sjU6VNgHQsdr6ClY/BcQnyI56OpnyKiMa1rUakaOXiornL1Jtfpqlr2o5jkc1yXRyLdFTnRT8trHyQyIqZo5I1RUXkc1yb0XuKSL1VdEA0jwpuRtW+pYnUtqHucjU5ktyIZ73Z9V4RhozLs2H6EDwtKtMaWiidNVTxwRtS6vkejE3d1TS5UdFz0jcxW8DSpfskz385HrWftMY7j0isqKueRkvFSma9VjW/WRq//AHcYyovEXUtxkoeiJbeceN/8Lwxz0o43uSaTk4e6ZXNXsXMztzNITavdAKnE6uKkpY3SSyuRqI1FW1+Vd3xTLOp3Yg0gxmVGR0ctOxcqpNUMcyJUXmcbdNkDYSodGo2zyIk9eqJmlciO4NeX2NeqTlVpehQ0Zq7+qlEaIrt6xP6F5bHWzhFo5hMNMiXne1HTyLbM5V4yIqp2t8pn0FSlzlet1PjGo1LIcHkUeiTaxP7P0bnVFs6aRkNu5Ij2qSvcauOjL6wFayiw5L2lYk68145FT9phzGqNZyqiGZL8K/IiqQu2D9A+n9IqNlr8DIyde8x6KfoTgjsiInIiWNPPQd9Xqy4nUV6tuyKKSG/M5URyG4pDbRtGsZzX7TWs1iPf1dhgLbl0odSaMYq9jka9aWRGrey34q7u6aStkDRvp/SfC45G52y1iLJuui5mvVb/ACjdLt5aET1+jlfFTtV8jYZHIxqXc7ciWaicqmifVXrKq8BxOGuganTFHNm4OS+VXszNVr0Tf1SqYMo5GR3K7it3ae8zI7VWCiJx3/vsP0aaV6b0eEUbZquVkMMTGNu5yN3NRG2S/KepojplTV8DailmZNE/kfG5HJ3UunXNM7NJNK9ZFTDC+NYKJHI17o0e2msiZXKqr19xtk2dtSUOj+FwYdC9z0jRVc59lVXvsruTrZrl9GLlc+Jo6+9bzcaqY90u1rf4jKgKIVLZdMWa+tQVHpDSdJ1t+C4Rkm5EXfGqqm5e+R89al0c+P8Ao2E0zkUoiJsKlUhX61Jo58f9GwetSaOfH/RsJqgqKSFPrU2jnx/0bC9NUXQ/sGwWuir6XPw0So5t2MRLpfrp3yUNzhY+o5UXQpVqKllOZUA+FQAAAAAAAAAAAAAAAAAAKFQAaY+jAavHxYxDXoi8HLBHFfrZ0u5SKOynpYlDpBhVS5URkVUxzlXkRER38Tbj0UnU/wD2jgLqhjbvoldOqom/K1lrfrNHdNUOjejk3K1d3cUokn7m/KvEvuUuzLM0O6cae8/UVgNcksEMib0kijenecxHftPSMIbH2sxmK4DRVDHZskbYF8KBjGL9pDN+YvxW5XKhiQXZmIoQqAWy8eTpHiCQ088q7kjhkkVfAY537D84G05ph0/j2J1SOzNmqXvavcVG8nzG/Tat0x6RwKvm54JIktzyxSNQ/N/PMrlVVW6ryqYzNYq8yd//AKMjZC6V7v8A2bB+hA6BcNi81Y5t2RQPYi/G3KhuXNfPQgtAlgweoqXts6We7FVOVjmJydw2C3NnMbWt5ET5muhekvKpVxB7osmJuZo8jWrukfI13dRGNUnC4jB0QfUvNjOAVDKdHPnp2SSxRt3q9yo1uW3X4tzVR0XL1p3obCXVEf1L3KaBMP8AbGX5M7b/ADofo22ba2mhwCje2VvAshRXSOciIi5UV116nqj86OOYLLTSvhmY6OSNyo5rksqKiqnJ5C/dG9cmPvjbh1LX1ronXa2ljkcrVvyojENg114bmpx2t7zEezfo5eK5sM24+iWPiqEw3AJXZ4pGcNUxqqZla5FRkbm5mua/qXE3dkrXBVY1g1NWVlO6nndG3O1WuRFXfvbm4y8hr52GehsTVEkeKY5G6OO+eOmelnqvLeRrk7ZLm2PB8Hjp4mQwsbHHG3KxjUsiInMh8RNzh5F3zr9h8VyvVFTgp7z0UKgFsugAAAAAAAAFDzNJPc83ipPQU9M8zST3PN4qT0FLT+C4rbtQ/N3tKe/2J/6t/wC6bcehKf8Ap+X/AFCegajtpT3+xP8A1b/3Tbj0JT/0/L/qE9AzZT7NE9lvehiznl2dKk5kKlEKmOXwAAAAAAAAAAACiHEHwY1WLHE97Uu5rbohQ5URLqVIh6KnzVNU1jVc5Ua1EVVVdyIiGm3TbouukMVVVQNpqJGw1E0TVs++WORzEVd/LlQwrrO6IhpHicbo3VK0zXIqO6Xe5t0XrLcLe2gREvqe30S3WPS4hpDP0q/hGxKjXPbZWquVE3KnKRm1f4o2CupJXdTHUwOcvMjZWKq/RQ8arnc9znuVXOcqqqryqq8qqfOVy6bla3Et/ifYy51XsP046p9OqfEaGnqqaRskckaKitVFtypvt3i87H5w9Tu1xjeBo1lJVy8C1LNp3PdwSJ1uKn/3eSFw3ov+kcaInS9G+3Xcj1Xzlx9lW6GOxFallN3AMHbI+uipx3CIq+rZHHLIjVVsd0bvbfrmbihzVatlKmuRyXQ5gA+FZ887rIq8yKv6j8/3REdOuntJq1zVvGzI1tlvvRtl8xvN1zabMw/DKurkcjWxROVVXdypZPOfm309x99VWVM71zLJNIt+Xdndb7JjKmaKnMneZKb2Eq8q27NvwJQ9DC1fvrNJaeXLeKBsudesiq1Fb5je21tvIa4+g/6nlp6GoxORvupzFhVesiIrXWNkKKbOPojGcib7pX+ljWw98rnc/d/W5yQqAYpkgAAAAAAAAAAAAAAAAAAAAAAAAAAAAAAAAAAAAAAAAAAAAAAAAAAAAAAAAAAAAAAAAAAAAAAAAAAAAAAAAAAAAAAAAAAAAA8TF9EKWo3TU8UqLy52I7zntgAxPiuy5o/Mqq7CaK68rkp47r5bFn4hsI6OSf8AQxN8GNifsJEA+WBGaPofGjaKi9KN3dZWs/lL40X2TtH6RWujwykVzd7XvhYrkXnRbcpmEFVwfJQYfHE1GRMaxqcjWoiInkQ+oqD4AAADgWlpbqmw3EHNfW0NNVPalmunibIrUVbqiK5NyXLwABbGh+rigw9HNoqOnpUct3JBG2NFXkuuXlLnAAOiaFHIrXIiou5UXkUxJimyho/NK6V+GUivc5XOXgWcZyrdVXdvVXKZiABbuiWglHQR8FR00NMztImNYnzIXDYZgoVb7QVAAAAAAAAAAAAAABQOIabWfRGaPRqpWhSkmqKlUXjsdHkYqcmZruN10NeGs/opOkle6RkckMECqqRoyLJK1qp13tfvUtI6+wqVttpvJxLHIYd8sjWJ8ZbFvS638LatlroEXmV//sfn30SrdK8ckf0jLida7Nx2xTyKiLa9rLJu4pcmK7MunUTVkmw7F2tRLq5z1sic/txc1RLqU6cRv4wnTakn3Q1EcngLc93MfmPk1iYvSyOjWurYZI3K1zUqJWq1ycqLZ/KSr2a+ieYthL44a9VrKNLI5LIs6p1/ZZH8xcaiKUOVUN4xxLJ1Sa1qTGqGGuo5GyRSol8q3yPsivjcvbMcuVxfBSqK1bKfWuRUuhUAHwqAAAAAALe020VjrqWeklRFjnjWN6LzKfnT2mtUM+C4xV0kzcqcI+WJLW9ie9yx/YQ/SUQq6I3shJj2HuraSLNiFK1Xta1OPOiNRrY0ty8qu4zjEfvHbp1O+fUZDNUydnSRi6EhtItgmkwOpkRrJVvSIq71lkernp3eKhtwRD8wejukFThla2aJXRVFLKqddFa9iq1yLZeW92m+3Yu2raTSXDo1bI1tZAxrJ4FVFe3KiMR6om6z1RXG1d9a1HptThdHEvzNfbc3Knor38aElAAYpkHl49o7BVRrDURMmid1TJGo5q99FLF9TNo9/k2H/Vo/4GTgfLA8fR3RWmo40hpYI4Ik5GRNRjU7yIewAfb3AOCpfcpzABhbTXZIwGvlWaagg4Rd7nNiYiuXnXi7z7tDNlrAqFzXwYdTJI3e2RYWZ295bbjLYPiabAuu06o40REREsiciIdoB9AAAAAAAAAAAABxPhxSl4SKRiblfG9qL4TVT9p96lSlUvofUWxql1m9CNxOvxCurEr6Rraid0kbV4S7WqiJZ27lzITV2L9nKfRrDHUNRLHM90iPV0d8vU27IkEpyQrY5WM3NODZE7ChyZnZ123Ve0qAD4VAAAAAAAAAAAAA6pI0VFRUui8qKdoAMZVGzhgD3Oe7B8Pc5zlc5y00aqrnLdVVbb1VylPUzaPf5Nh/1aP+Bk4AGMfUzaPf5Nh/1aP+A9TNo9/k2H/Vo/4GTgAYx9TNo9/k2H/Vo/4D1M2j3+TYf9Wj/gZOAB5Oj2jVPSRpDTQxwRJ1McbUY1LcyIesCgABxMP7TG0TR6OYdLWVL28JlclPDdEfPIllVjL7r5VzFtzkRLqVtarlshDzos20iynpEwWCRFlqEVKlrV4zGKiOYq82axqw1U6AzYpiFNRwNV8ksjeKiXVWo5Fcv0bn164NaFTjeIzVtQ5XyTPVGJzMzKkbbX5cqo02ndDA2OnUECYxiEWWomRFp43t48Sciqt8zeM1U6kuSsO13v6V+CIUTMXZDb0J8VJsaitWceEYXSUMSWbFGl++u9f1qZCKA+ucrlVVKGtRiWQ5gA+FYAAAAAAAAAAAAAAAAAAAAAAAAAAAAAAAAAAAAAAAAAAAAAAAAAAAAAAAAAAAAAAAAAAAAAAAAAAAAAAAAAAAAAAAAAAAAAAAAAAAAAAAAAAAAAAAAAAAAAAAAAAAAAAAAAAAAKFSgBoz6Kz/AOopO+vmaYt2M9mWXSbFY6dUVtLHd88u+yZMruDunGRz2XNxGujYIwLHqx9bXRSPmfyq2Z7U5ETkTvF3bP2yxhWjTJmYbErOHc171e9Xuu1uXcruMiZSmVRISb7XbbrXQrmnZ13vIie5EUuvVfqXw7B6aOloaaONkbUajlYxZXInXfJkzuXuuL2mpmuSzmtci9ZyIqfMp3gqVVVbqWmojUshr26JTsZUlZQS4vRQthqqZjnzcG1GsfE1LrxGI1ufMvVONM0jFRbLyn6XtfzUXBsRRyIqdKyXvycndPzc6YNTpqotycNJa3J1SmNDW0RWc1zLdrDRy8tjZb0GzWtO6WuwuSS8EcTZoWLypJLNZ2/myobWjS/0HRF/tuu7lND98puhQ2MZb5V5u7Q10LRXpz96XOYAMcyAAAAAAAdT2ou5Uui9ZTtKAGtrb86HF/aCyYtgsdqpG3mpWp7ejU3JG1MsbHuequc7sjWdoRp1i2jOItlhWSmqYH8aN98jrKqKj2XyPTl6o/SnYwBtCbFmC6QsVamnaydEXg5Y/Y7OVLXcjE4xZa50Nd7wf72F1crks7tMQbLfRM8KxhkdPiD20VZZG+yOS0zuurGsTi/KJqUGIMlaj43Ne1UujmrdLGl/XB0KLHMOc6TDHrXIiqreCRYnNS+7jK/N1JPbodWqXEsKwhUxNZUnlVqrHK9z1Zlulruc4ykyxEVdjk95iLmhq1OE1fcS4ABbLwAAAAAAAAAAAAAAAAAAAAAAAAAAAAAAAAAAAAAAAAAAAAAAAAAAAAAAAABwPnqaprEVzlRqJyqq2Q+m5H/bW1d1eJYFVRULpEqGse+Nsb3Mc91rI1Fa5pae5US6JcraiKtlLM2meiF4NgLJIo5m1da1q2p43Ijmr1lXMmVU5UNN2unXxi2lFes1S98rnuywwMTKxrUujESNFyZ+DXK53ZWM+6rehdaSYpJmxDPRNX/mzrwyql/DzGyPZw6H/guj6NmSJKisytR80nHYqt33bG9HNbxr/OXWwkTWIpQsRbWYRF2CuhtS8JFi2ORKxGqj4aR6Kju45/VMcjmqjjapQ0TY2NYxqNa1Ea1ERERERLJuQ7YoERERERETkREsid5EO4qc6+ibC01vGu0qACkugAAAAAAAAAAAAAAAAAAAAAAAAAAAAAAAAAAAAAAAAAAAAAAAAAAAAAAAAAAAAAAAAAAAAAAAAAAAAAAAAAAAAAAAAAAAAAAAAAAAAAAAAAAAAAAAAAAAAAAAAAAAAAAAAAAAAAAAAAAAoADjYohZWtjWnS4PRTVlVI1jImOciKqIrlRLo1EvdVKHORqXU+oiqtkI/dEa19RYRgU8GdEnrWOgY1F4yZ27nW6q240NTTK5yuXeqrde6qmbNrPaPn0kxOWqe5eAaqsgYqrZI0W7dy8i2Mh7CexnNpHXMmqGObh8DkdKqpZJURbOYl++juKJeEqq57uP3IXI70aiMT/2pNLoRmoOSjo6jFpmKx9W1YWtcllyxyI9rt/bIpsbPG0W0bio6eKmgajI4mNYxqJZLNajU/Uh7KKZER+ddNiaJ1GJDaqJrwuM5gAtF4AAAAAAAAAAAAoqHWyNE5ERO8doAAAAAAAAAAAAAAAAAAAAAAAAAAAAAAAAAAAAAAAAAAAAAAAAAAAAAAAAAAAAABwVl+U5gA4I1E5NxzAAAAAAAAAAAAAAAAAAAAAAAAAAAAAAAAAAAAAAAAAAAAAAAAAAAAAAAAAAAAAAAAAAAAAAAAAAAAAAAAAAAAAAAAAAAAAAAAAAAAAAAAAAAAAAAAAAAAAAAAAAAAAAAAAAAAAAAAAAAAAAAAAAKAFuab6bU+HU0tXVSNiiia5znOVEuqIqo1Lrvc63FaUqqIl1PqIqrZDp1gawKXDKWWrq5WxRRMc5VcqIq5UVcrUVW5nLbqWmirbd2z6nSesdHE90eGxOVIYt6JLZbtle1yZmvy8XKejty7btVpJVvp6d7o8MieqRRoqpwyIuZkkjV5HtureKWxsfbIVZpNWsajHMo43I6aZUs3Kipma1XJlV2XsT7BhLFXMvB7udS5Fe2E23pf3oh37HGx7V6S1rEVjo6KNyOmmVLIrUXjIzMmVy/FzG9jVVqqpMHo4qKjjbHHG1EXKlle5ERFevdWx1aodUdHgtFFRUUTY442ojlallkciWV7vjOL4MiJES2RnB7zCa1VXM7b3HMAFgyAAAAAAAAAAAAAAAAAAAAAAAAAAAAAAAAAAAAAAAAAAAAAAAAAAAAAAAAAAAAAAAAAAAAAAAAAAAAAAAAAAAAAAAAAAAAAAAAAAAAAAAAAAAAAAAAAAAAAAAAAAAAAAAAAAAAAAAAAAAAAAAAAAAAAAAAAAAAAAAAAAAAAAAAAAAAAAAAAAAAAAAAAAAAAAAAAAAAAAAAAAAAAAAAAAAAAAAAAAAAAAAAAAAUAPixDEGRRvlkcjWRtc9zl3IiNRVX7KGljojG2y/Gap+GUMq9IQPyvcxeLM5rkc127c7LdWkq+ihbWn9m0iYTSPVKmqavCPYu+NrVs5rrcZMzHGnLCmsfNGkqqkbpGJIqcqMVyZ1Tu5bmMn1rv3U96/0Mi+5Jpwu5P6mcNkjZaq9JsQZFGxzaWNyLPMqKjEa2yuYjupzujvlab6NTup2iwSijoqKNrGMaiOciIjpHIls77criEuzntd6H6PYdDR0qqjkY3hZLx55XtumZ69dcqmVvXPtG/hHfSYbGLEREyN4PHzqa9rc67o7q5iYVzzMexyOmhknmcjI4mq97lWyI1OuqqRPf0UHRtEvwjl7iOYRU2zuif02JYfNhuExys6Ya6OaV9rcG5OwVq8uZDCcqomm0y2tRV12E8NDttPAq6tjoKepR08sixMbmbvcl+Ze4pnxDQD0OWjbLpXhzpN7m1DXIq9sqPupv9uZcSHlaxeVF77GK193vbyW7rnYACyXwAAAAAAAAAAAAAAAAAAAAAAAAAAAAAAAAAAAAAAAAAAAAAAAAAAAAAAAAAAAAAAAAAAAAAAAAAAAAAAAAAAAAAAAAAAAAAAAAAAAAAAAAAAAAAAAAAAAAAAAAAAAAAAAAAAAAAAAAAAAAAAAAAAAAAAAAAAAAAAAAAAAAAAAAAAAAAAAAAAAAAAAAAAAAAAAAAAAAAAAAAAAAAAAAAAAAAAAAAAAAAAfBjFQrIZXJytje5O+jVVP1n3nQ5qKll3ou5b9cpVLofUPzj7W2m1RXY7XzVD1c5ZlREutmoiW4qdbkMMH6danVPhT1Vz8NoHuXernUkDnL31WPMpw/ucwj/K8P+p0/wCGUw25Go3kQre7M5VPzF3B+nf+5vCP8rw/6nT/AIY/ubwj/K8P+p0/4ZcLZ+YgH6d/7m8I/wArw/6nT/hj+5vCP8rw/wCp0/4YBpf6FRQtfpG1XNRVYkbmqqci5nJdOY3mK0t/B9XeH0zs9PQ0kD+3hp4o3bvjMY1xcaFyI/M1qcnzuWGw7Oc7l+VjkAC2XwAAAAAAAAAAAAAAAAAAAAAAAAAAAAAAAAAAAAAAAAAAAAAAAAAAAAAAAAAAAAAAAAAAAAAAAAAAAAAAAAAAAAAAAAAAAAAAAAAAAAAAAAAAAAAAAAAAAAAAAAAAAAAAAAAAAAAAAAAAAAAAAAAAAAAAAAAAAAAAAAAAAAAAAAAAAAAAAAAAAAAAAAAAAAAAAAAAAAAAAAAAAAAAAAAAAAAAAAAAAAAAAAAAAAAAAAAAAAAAAAAAAAAAAAAAAAAAAAAAAAAAAAAAAAAAAAAAAAAAAAAAAAAAAAAAAAAAAAAAAAAAAAAAAAAAAAAAAAAAAAAAAAAAAAAAAAAAAAAAAAAAAAAAAAAAAAAAAAAAAAAAAAAAAAAAAAAAAAAAAAAAAAAAAAAAAAAAAAAAAAAAAAAAAAAAAAAAAAAAAAAAAAAAAAAAAAAAAAAAAAAAAAAAAAAAAAAAAAAAAAAAAAAAAAAAAAAAAAAAAAAAAAAAAAAAAAAAAAAAAAAAAAAAAAAAAAAAAAAAAAAAAAAAAAAAAAAAAAAAAAAAAAAAAAAAAAAAAAAAAAAAAAAAAAAAAAAAAAAAAAAAAAAAAAAAAAAAAAAAAAAAAAAAAAAAAAAAAAAAAAAAAAAAAAAAAAAAAAAAAClyoAAAAAKAFQAAAAAAAAAUuACoAAAAAAAAAAAAAAAAAAAAAAAAAAAAAABQAqChUAAAAAAAAoVAAAAAAAAAAAAAAAAAAAAAAAAAAAAAAAAAAAAAAAAAAAAAAAKAAqAAAAAAAAAChUAAAAAAAAAAAoVAAAAAAAAAAABQAqAAAAUAKgAAAAAAAAAFACoAAAAAAKC4BUAAAAoAVAAAAAAAAAAAAAAAAAAAAAAAAAAAAAAAAAAAAAAAAAAKFSgB1I85XOpX8/fMY43r8p4JXxOilXg3K1VRI7KqctryI63yTVz1RlpFqPmXtY1dG5jAm56DKIj472sauzMZSuVUsLQvW7T1r1jYj2ORL5ZERFcl7XbZzr5d2bvoX2jy9KTkGbh7pAe17PWaXZeahTLN0gva5vrNO4AGcZR13KZjhI+yKvMhiafaJpmqqLDNdFVNzWdZbfCGon6rKyGXxiK1l75c3Hbaa+aqEvKZd3e1l75c3HYy2w5oW7obpWysgbPG1zWuVyWda6K1VRb2Vzet2x77FNhBjNjQ2xIa5mqiK13KimXCisisa9i3aqXa7lQ7gAXy6daqFKXLU0708ioI2Pka9yPdlRGIireyu33VqWytUxY8zDl4bosV2VicJzuIsRozILHRIjsrU4Ti7GuKmH4to2lVUTgpkuvKqNsndW0l7GVaKrbIxrmqjmuRFRUW6Ki70svXSxhSNWlJ/N4vFa+1s2XiuYkpUZabvuEVr7cLKfaADbmyOtosURpZmnus2LD1jR7XvWTMqZEatsmW98zm9shhzU1ClIaxYz2tYnCc7nMaPMQpdjokV2Vqek4vRinJEMbaJa7KernZTtjla56OVFejLcVFVb2kc7kTtTIivsWpKfgTsPdJd7XtvbM3lLcrOQZpm6QHte29szeU+gFCpsTNOs4uOqqqkY1znKiNaiqq9ayJvuYn9UfS/BTfMz8Q1E9VpSQy+MRWsvfLm47bTWzdRlpO27xWsvwc3MZeuUvuLO0D1mwYhn4NHtdHa7XoiXRb2VLK66blLzuZcrNwpqEkWA9rmLsc3YZMCYhzENIkJzXNXY5pRrQqlMxj3TDXNBRzLC+ORzkajrtRlrLycsjXX+SW5yfgScPdJh7WNvbM7lKJqbhSsPdIz2tbszOMigxB6pCm+Bm+iz8Up6o+m+Bm+Zn4po/pVSvvUPtNT9Iad94h9pmAGIPVIU3wM30Wfij1SFN8DN9Fn4o+lVK+9Q+0fSGnfeIfaZfBh/1R9N8DN8zPxR6o+m+Bm+Zn4o+lVK+9Q+0fSGnfeIfaZgRCjlLN0E1kxV/C8G17eCy5s6NS+a9rWc7mU+nTXTuOgjbJI17kc5GojES97KvZK1LWReyNwypS7oHjSPbuVlXPxaLZfebNJ6CsHxhHt3L1+LkLoYpVVMT0O0HTSSMjSKZM7msRVSOyK5Ual7SZrZlMpxzXRLddLoJGpy08jll4rX24WXiErPQJtFWA9r7cLKfSChU2hnnWpQOcWPpxrVhoXsY9kj1ei2yI1US3Pdzd5hTc3ClYaxY72sYnpOMWYmIUszdIzmtb6zi92nNqGNtEddlPVzsp2xytc9HKivRluKiqt7SOdyJ2pkVX2LclPwJ2Husu9r23tmby8hRKzkGbZukB7XtvbM3lOxTi5C1dOdP4qFjHytc5HuyIjERVvlc7fdW7srVLKbtH03wM3zM/EMCcrshJv3OPHYx/quMSZq8nLP3OPFa13quMwlTD/qkKb4Gb6LPxR6o+m+Bm+Zn4ph/SqlfeofaYv0hp33iH2mX0UKYfdtIUvwU3zM/FPrpNoajctlSRndc26fZVx9biiluW3jULtsfUxBT1W3jEPtMqK8KpbuAae0lTuhma5eVW3s5O+1bOT5i4FcdFBmIcdueC9rm+s1UVPcbuFGhxUzw3Nc31mrdPcdwKFTJLxxaVOB8lfWNja57lyta1XOVeRERLqq/JQtvcjUzOKXOypdT7FOKoYgXaNp/gZvos/FLt0E1kQ16P4NHNVipma9ERd6bl3K5Lbl+Y0UtXZCZipAhR4bnrsa3bpqamXrEnMRNyhxWud6pe4KA6E3BwsUOVzxdJMfbTQyTPRVbGl1RLKqp3EWyXLEWI2G1z3rlaiKrnciIW3vRjVe7gpqp67XHMw+/aPpr+1TfMz8UyfguLNnijmZdGyMa9qLuWzkRUv3bKa2Rq8pOq5kvFa9U4WUwJSpS02rkgPa9U4WU9QFEKm5NmAAAAAAACgBwUIY10r13QUk74HRyudHlRVYjFbxmo5LXkR3I5OxO3RHXPT1cyQta9jnIqosiNajrb1Rqo5brbf5FNB+nZDdvF93h7rfLlvrfk6bmn/S8msXcN1bul7ZeO/IZJBS5U35uAAcXOAOIsYqxTX9TwyyRLFKqxvcxVRI7KrVVq2vI11sydqXXoJp5HXxukY17UY/KqOREW9kduyq5LWVOuaWXrEnMRfF4UVromu9TbptNXBqcrGi7jDitdE13vHptLqscZFOKPuY70t11wUc7qd8crnNRFVWIy3GRF3Kr2u6/amVOT8CSh7pMPaxt7ZncpfmpyFKs3SM9rG3tmdymR0UqWJoRrZgrnujYyRjmtRy50aiKiqqbrOdvL7QqlJuFNQ2xYD2vhr6TSuXmYUyzdIL0c31mnYAUM4yjgihVOp81uXrJcxbiO0FTRyPjWKVVY9zFVEZZVa5WqqXkRbZkNVO1KWkUa6YitY1eDm4zBmp6BKIix3tZfg5jK7RctXQTTqOujdJG17Ea5Wqj0RFuiIvWVyWs5C6rmZLzEOYhpEhuzMXgu5S/BjMisSJDXM1eC44tUq1DGek2u6npaiSndHK5Y1RFVqMsqq1HbryNdyKnYnmrtG0vwM3zM/FNDFxJTYURYb5iG1yKqObyKm01MSuSENysfHho5Fs5t+NDLzVOVjxtHdIGVELJmdS9Ecl+VL71RU6ypvR3dQ9jMdDCiNiMa9i5mql2u5UU3LHo9qPbwV4J2AogLxcOAc86pJ0RFVeslzFVbtCUrHvYkczsrlbmakatdlVUu28iKqLbtTVT1TlZBGrMRWsvwc3Ga6bn5eURFjxGsvwc3GZZuVuYtwHXzTzzMhSOVvCOyorkZZFXntIrrfJMnoVyVRlp5rny72vai2dl5SqUnYM21XwHte1NN6crBSzdPdYsdBwedrncJe2VEVdyIq3uqc5aXqjaX4Gb5mfimBNV6QlIqwo8eGx6Wu13PqYkxWJOXesONFa1yei4zCDD/AKo+m+Bm+Zn4o9UfTfAzfMz8UxPpVSvvUPtMf6Q077xD7TL4sYkpdoykXqmSt77G/uvcXjgGsqjqVtFM3MvYuu13Jfc11nL5DMlq7ITLskKPCV3q3S/UhlwKvJR1yQ48NzvVuly7gcWuOR0BtzruHKfNW1iRsc9eRqKq8+5Fv5dxij1R9L8DP8zPxTTTtWlJBWpMRWw73y5uOxrZuoy0mqbvFay/BzGYQYg9UhTfAzfRZ+IPVIU3wM30Wfims+ldK+9Q+01/0hp33iH2mXwYf9UfTfAzfMz8UeqPpvgZvmZ+KPpVSvvUPtH0hp33iH2mXEOZiH1R9N8DN9Fn4hdOr/WRHX8LkY5nBZb50al817WyudzKZcrXpCbitgwI8N71vla3mS/cZECsScxEbDhRWucvBa3tL2chxVTi2S5jjSzXdT0k74HxyudHlzKxGZbuajt15Gu6lydibCdn4ElD3SYe1jb2zO5eQzZqcgyrN0jvaxt7ZncpksGIPVIU3wM30WfilPVH03wM3zM/FNJ9KqV96h9pqvpDTvvEPtMw3FzD3qj6b4Gb5mfilW7SFL8FN9Fv4h8+lNK+9Q+0fSGnfeIfaZeaUchjfDtfFBJuc58a9bOx1vnbmanyi+8LxiKZqPie17V5FaqKi/MtjbydUlZzyEWG/wBlUVetNps5efl5nyMWG/2VRT0SpS4NsZ5wuEKIWppPrJpKXdLKmflRjeM5ebit327q8UwpiahSzVfHe1jfWctk95jxpiFAbniva1vK5bIXUx3/ANsczB1ftKNT2unc5PjvRvopIfE3aWk69I23jV/CORiY1o7FyrMJ/Cjl96Icw7FlLYtt3TscvvsZ9KmGcI2jYXqiTQujReyRUc1O6vI/6LXGStHtLaeqbmgla/nRF3p3FRd6L8VxvJCuSM/pLx2OX1di9i2X3G2k6vJznkIrXL6uxexbKe+CgN+bkqAAAAAAAAAAAAAAAAAAAAAAAAAAAAAAAAAAADqn5F7ykOdPfdlT453nJjT8i95SHOnvuyp8c7zkL+E37FA9v4KRbj77JC9r4HlYPi74ZWTMWz43XRet3UXnRUu1ydqqkutCdKo6yBszOulnNvdWuTlRfL/HsiHqxKiXVFsqqiL1roiX39xHJ86F86pdPFop8rltBIqNei8iLyI/uInUu+L4DTgsEYhdTZnxaOv1ES230V4l6F2L1HFYSrLqfMbhGd9U+1+ZeJfmSvB1xSoqIqdc7D1Ii31Q9DItz5q7qH+CvmITYh1b/Cd51Js13UP8FfMQmxHq3+E7zqQR4UfJyvS74EQeELgS/wDF/wBJJfUH73x+FL944yQY31B+98fhS/eOMkEqYd82Sv4be4kWh/YJf2G9yHMAHSG7OLzDG0l7RB439x5md5hjaS9og8b+485DFvmmZ9n4oc1iTzbH6PihH0zdqF1g/wDRzO3b1hVfKrmfJ5W9y/aGFIYnOXKiKqreyJyrZFVbeRFOdNVOje1zFVrmKitVNyo5q3RU7uY8vUCrRaTNMmGcDZEb6ycafFDz1RapEpsyyOnA2OTlTjT49hOC5W5ZWrTTdtbA1+5JGcWRqdZyJyonMvK3v98vQ9hSc1Dm4LI0JczHpdqnqGWmIcxCbGhrdqpdDsI+7SntlN4M3njJBEfdpT2ym8GbzxnGY68zx/4f5kOWxf5rj9XehaOpb3xp/l+g4leRQ1Le+NP8v0HErzTeDbzY/wDEXuaanAfm5fbXuacgCiqS0SQYw166ScDSLGi2fMuRLcuXld9hLeVCMyoq3sirZL7usl03rzJvT5zIWvDSLh61WIt2wJkTmzOsrv3U8hXVPoQlW2rVdyJFkavWRzruVfIiNXynmDEb4lerLpWD6F2s/hRVXtXS/Qef6699ZqrpaF6N2t/hRVX339x5OqzSTpWsieu5j14N/edazu5Z9vk3JbI+6d8g9NErVVqpZyKqKi8qKi2VPpEsNU+kvTNHE5Vu9qZJOfM3dde+ll8p1Pg3qbk3enxfR30PucncvadDgSoeVkX7W75vcqdy9peSkftbur+sqKx0kMCvYrGoio5ib0vdLOVqkgijUJVrdGhVeX8XjOc1t0Xe2vp0opItVpcKpwdwiuc1t0Xe2vp0opEn+6TEf8K76cf84/ukxH/Cu+nH/OS3yixwH+GlO/ax+1vyOM+gMj68btT/ALSEWL4RLDI6KVmR7bZmqqLa6Iqb0VydSqH2YHovPUq5IIllVqIrkRzUsi3ROqVvMpcGuRf+JVPfZ920vDZrZ7JU+DF53kRSVEgx606mq52553tzaZrNvbm4tdCMZSjwotXdIq5255nJm0vZt7cVuLkLJ/ukxH/Cu+nH/OV/ukxH/Cu+nH/OS2yjKS7/AIaU79rH7W/Ik/6AyPrxu1P+0xBqL0Sqabpjh4lizqzLdzFva9+pV3P+srtHJ+SxeOT0JDLimI9o73NF45voPN/VKdDp1Bjy0NXOaxjsrnWvqt+JE5Tb1GSZI0aLLw1crWtXhbddeKxgfRz3RB46L02k0aTqW95CF2jnuiDx0XptJo0nUp3k8xx3gw8hMdKdynNeD7yEfpTuU+kAE5EtHFSOm0Z7fB4D/O0kWpHXaN9vg8B/pNI7x75ni9Le9Dh8Y+bInSnehbWpb3xp/l+g4leRQ1Le+NP8v0HErzU+DbzY/wDEXuaa/Afm5fbXuaYY2j/aIfGp6DzAdHSq57WInGc5GtRVRLq5UREuu7qlQz9tI+0QeN/ceYS0TX8qp0/78X3jSOsawUjV1sJ3BXInacRiyEkWrtY7jyp2lyN1LYj8Cn02/wASv9ymI/A/bb/ElTCm5O8h2ZSRW+DemW4Uf8yf9p26YFp6pti9qfIikmpPEfgPts/ieDjWgtXTXWaB7WpvVyWe1ETrqrFdl+UTJOiama5LKiKnJvQsTHg1kFa7cnxWu4nOVFTssneWIuApJW/Vvitdz2VOyyEJIap8bmva5zXtW6Oaqtc1U5lTeikmNT+sZayNY5bcNGiI5dyZ2r1LrJuvus7Lxc1+pzNaYi1y6GtpKlHRoiRTIrmttZGuRbORE6yb2rbuny6ncTWLEILLZr8zHJzorVVE+m1q+Qj7D83NUGr+IxHb1XI17eJb8FydqKcVRZmYo1U8TiO3quRr28S32O96EtQUapU9RHoQ4GLtfekvBUvBNWz51yd3Km96/R4vyjKLlIqa59I+mKxzUW7IfY282a95F79+J8g4DGlU8Qpr7O37963r2+65x2K6h4nIPtwn71vXt91yxLKt7Iq2S/eS6JdeZLqieUvLVFpL0rWR5lsyT2N/NxlTKvcs9E39qqnqar9COmoK1VTfwaMjXrZur/UuQxyrVReuioveVFT9p5zgQY9KWTqK+mquT+FbKnWneQXChRqYsrPp6V1TqdZU607ycbFuci0NV+knTVHG9Vu62R/hN3Lu61+q8FULvPX0pMtmoMOPD4L0RW9C6npyWjtjwmRWcFyIqdYUs7W5731HgL5i8VLO1ue99R4CmFWfsMx7Du4xKl9kj+w7uUiWS81Ze4aXxMfoIRDJeasvcNL4mP0EIQ8GX2mZ6E7yJPB/5aP0J3l2gA9Ek3gAAAAAAopUooBEzXL75VPfZ920s+lq1Y5HtVWuaqK1U5UVFuheOuP3yqe+z7tpZXArbNZbXRL9ZFtdEXmVW+ZTxfXHPbVZpzOE2I9fep5Vq7ntqUw5n7R3epLLVtps2tpmv3JI3iyMTsXJy/x8pedyIOrnTZ1FUo/esb7Nkbzt6zkTnS9/nb2RLOiq2vY17VRWuRHIqLdFRUvdFTlSx6SwjiBtWlEzr9ezSInLyL195PWGa02pSuvlWaROfkXrPtQ65+Re8p2Ip1z8i95Tu3cFTr12KQz0y91VPj5fTcZu2bfc03jl9CMwjpl7qqfHy+m4zds2+5pvHL6EZ5uwh+sMf/8ATvIKwz59jfx95mAilrs98Zu8z0SVpFLXZ74zd5nondeEjzYn4idzjr8eebk9tO5S4Nnb3TN4tvpKSNQjls6+6ZvFt9JSRqGzwD5nhdLu9TPwb5sh9K96nMAEjncHRU9S7vL5iF+k/umo8fN944mhU9S7vL5iF+lHumfx833jiEPCf9ml/aXuIn8IH2eD0r3Gc9m73NN45fQjMwuMPbN3uabxy+hGZgX+JIOFPNMr7PzO0w75tl/ZQiRrf98ajwmfdsLOLx1t++NT4TPu2FtNolWN0icjXI1fKl0X9XmPLNahuiVKaRvrvXsVVU87VaE59QmcvruXsVTPmztj2eCSnVd8L7tT4j7rbyPR36jMKET9TekHAV0aKtmyXjd33b2/bRG+VSVzXHo7AtR8cpbGLwoaq13Qmqe6yE8YRn/G6exF4TN67q2e7uO0AoSMdqWfrO0g6WoppEWz8uRnhP4qKnect/IRGchmnaM0iu+KmRepvI9Pst/e/UYfZRqsaydZHI3vqrVd+ptvnQ8w4/nXzlQ3CHvmw2+/a5e5Oo8/40m3Tc7uDODDT37VXuTqPZ1c+7abxjfMpMRnIneIdaufd1N4xPMpMWPkQ7nwZfYY3t/BDrvB/wDY4vt/BDB20p/0vff5kMH0dG57msYl3OVGol0S6qtk3qtk8pnDaV5KbvyeZDE2hKfllOn/AHo/TQj3F0FI+IVhO4LlYnaiIcTiaEkatrCd6SsTtRD026psR/wzvpx/zlP7pMR/wrvpxfzktombk7xysSO3waU+3lY/a35HdpgGRX04vanyIcVugVZHfPTy250ZnRE57szIeDvReujmr3lRU8yk4HRIvKiGBtf2hbI8lVG1Gq5yMkRNyLe+Ve+lrfGunaocniDAaU6XdNykVyozVzXbbcqKlthzVawakjAdMy0Vy5OE11r25UVOQ9fUprPdN+S1DryIl43ryuanK13O5E35uyb3WOcZmRSF+iuIrHUQSN5WyMXyK5EcnecxVb5SZkL9ze9+w73Adai1CSdDjrmfDVEzcaouy/PtOywdVok9KuZFXM5iomblRdl+fRTz9KvaJfAXzKQvcTQ0q9ol8BfMpC9xxnhQ8pK9Dvgcr4QuHL9C/AuLCNXFbURtligV7FRVRyPjS+9UXldfn5T6/wC6HEf8M76cX85n7Umz/h0H+56bi+WtNpTfB9ITMrCjPfFzPYiuyqlrqiLpobCSwRJR5aFFe+Lme1qu1TjRF5CJP90mI/4V304/5yv90mI/4V304/5yW1hYzv8ADKnftY/a35Gb9AZH14van/aRJTVHiP8AhX/Ti/nMs6itEail6Z4eJY86syormOvbNfqXO5/1mXWnFG2N3ScESdLmWzMF8VXJfeuVLaoqcSIbamYTlafHbMQ3xHOS/CVLaoqcSJynJSJ+uX3xqe+z7tpLBSJ+uX3xqe+z7tpqvCV5sZ+I3+VxrMe/YGe2nc48HRrRGerVyQszq1GqvGRtkddE5V38ilxu1I4j8Cn02/xLq2bd8tTbrNi87yQCHL4awXI1OQhTUZ0XOt+CqW0VU40NBh/CclPyTI8VYmZb8FUtoqpyKRV/uUxH4H7bf4nXJqYxFEv0vfuI9l/1uJZWOJ1C+DamevH/ADJ/2nQ/QOn+tF7U+RCTE8FmhdkljfG7mcipfrcVepcngnpaHaaT0cqSROXLdM8arxXt5lTrOy9S7qm/SaSm0t0ViqoXxyNRUVFstt6OstlavWXf5yIeJUSxSPidyse5i25LtcqLbuZkIvxBQY+GpiFHlorsqrvH7FRU4l5fiR9WqNFoMaFGgRXZV4LtioqcS/3rqTI0bxxlTBHMxbtkaip5eVF5lvc9dFMNbOWKudBLCq3SN929xrt9u9nzL5TMbnHo2iVDx+RhTPGqb7pTRfeik5Uud8clIUflTfdOxfeYw1xayVo40ihVOHkRd+5UjbyK5UXlW+5E6ncruxyuja+V73KrnOe9y3VVVVc5y8qqq8ZVcXVrVxJ0ldUOvdGuRjU6yNaiJb9Jmd5VLx2fNEY5HyVD0RyxKjGIu9EcqXc63PlVGt77ucgCqxZnElZ8Sa/LDa5UTkRG7Vtxqtu4hmpRJiu1bxNHZYbVVE5ERNq86r8i08F1QV06I5IkYi8iyrlXyomZ6fKaexJs/V1uWFV5ke/8Mk02MKhJEHwdUtrcr90c71s1vch3ULA9OYyz90c71r/Ih7pJq8qqRM00K5E5HtXM3yqnU7+2ynlYJjstPI2WF7o3pzcipzKnUuReZxM6romvRUciKipaypfvkVta+h6UdUqMS0T04RidZt14ze81bZfiuI9xNhJ1Eak7JRYmRFTbwmrxKipbT3nD4gw06ko2clHuyIqacaLxLdLEgNW+m7a6nR/JI1csrE6zk5viryt/+Li8kaRl1BY06Ot4PsJmKip1szLq1fktRyfKJN3JjwnV3VSnsjP4aKrYnOqcfWllJSw5UlqEkyK/hpdHdKcfWllOZUA7M6kAAAAAAAAAAAAAAAAAAAAAAAAAAAAAAAAA6p+Re8pDnT33ZU+Od5yY0/IveUhzp77sqfHO85C/hN+xQPb+CkW4++ywva+Be+rnQdtbh9QzckjZXLE5es9GNtydZeTwV5zF9ZRuje6N6K17FVrkXlRWrZUX5Rn7ZvT8nm8cvoRnl699Xu5ayJu/ckqJzcjX2+LuzfF8E5qpYc8ZokrPQG/WMZv+dvL0p3dBz9QonjNKl5uCn1jG7+3G3l6U7j09RWn/AAkfSki+yRp7Gqr1TOS3dVm5vzfGMxNITYPir4ZI5o3ZZGORyL50XnRzbtc3tVUltoTpUytgZMzddLPbe6tcnKi93N86L8Y7TAmIvHoHikZ310NN7+83i602L1HWYQrfjkHxeM761ib3nb802L1Hv13UP8FfMQmxHq3+E7zqTZreof4K+YhNiPVv8J3nU0HhQ8nK9L/+k0vhD4Ev/F/0kl9QfvfH4Uv3jjJBjfUH73x+FL944yQSph3zZK/ht7iRaH9gl/Yb3IcwAdIbs4vMMbSXtEHjf3HmZ3mGNpL2iDxv7jzkMW+aZn2fihzWJPN0fo+KGHtXjL1tMnWWS36lPc1uaAdJz52ttDKt2qnI1/KrO4nXb8Xi9ih42rj3bTeNTzKSh0w0YZWU7oXdknFda6tcnUuTuo7+BDGG6EyrUaZh/wC6194TufKmnQuxSLKFR2VOkxYf+4j7w3c9k06F2EY9XemjqGpbJvWNbNlbztv1SJzs6pvlb2RLOgrmyNa9iorXIioqb0VFS+7yEMscwaSnmfDIlnMdZeZU5UcnccllaZe1D6wsq9Jyu51hVfncz95vym9g02GBa6+SmHUub3qKq7nm9F3G3r7+ky8IVh8pHdTpnepdcubidxp19/SZ8I/7SntlL4M3njJAEf8AaU9tpfBm88ZI2OvM8f8Ah/mQ7rF/muP1d6FoalvfGn+X6DiV5FDUt740/wAv0HErzS+DbzY/8Re5pqsB+bl9te5pR54el2OtpqaWZeRrFW3OttyeVbJ5T23qYR2i9IcrYqZq9Wud6fFb1KL338b5B3FfqKU6RjTHGib3pXRPeddWZ1JKTix+NE3vSuie8wZVTq97nuW7nuVyqvLmcqqqr8pSUmprRrgKJl0s6X2R/fem5Pkss3yEdtA9HumaqGG25X3f4DeM7yLbL4SoTCiisiInWQiTwc05YsSPUYvHvW9K6uXuI2wJJLEfFnX+y3pXV3w7VIr65NHOl616olmS+yN769X5c/G+Uh7mz/pRwdQ+ncvFnS7e5I1FWyeFHf6BfW0Do9wtKkzUu6F2b5C2R6fNZ3ySPOE17oZGStWzo3Nc3yKi7+4c/VkdQMQJHZ5Nyo/pa7Ryd5pKk1aJW0js8m5c3U7hJ326ibgPH0cxps8Ecrepexrk7zkvv7p66IelYURsRjXs1aurSemPR7WvbsU7SilSimQXCJmuX3yqfkfdtLv2a/banwIvO8tDXL75VPyPu2l37NfttT4EXneeY6X+tbvxIn/UQFTv1ld+JE+JIUAHpwn04NMQ7R/uaLxzfQkMvNMQbR/uaLxyehIcnirzVNeypzuIfN0x7KmB9HPdEHjovTaTRpOpTvJ5iF2jnuiDx0XptJo0vUp3k8xHPgw8hMdKdynD+D7yEfpTuU+kAE5EtHFxHXaO9vg8B/naSKcR12jvb4PAf52kdY98zxelvehw+MvNcXpTvQtrUt740/y/QcSvIoalvfGn+X6DiV5qvBt5sf8AiL3NNfgPzcvtr3NMNbSHtEHjf3HmEdEPdVP4+L7xpm3aSX2CDxv7jzA+E1yRyxyWVUY9r7Itl4rkVUTu7iPsZRGwq/De/gpkV3uOKxTERlahvdwUyk24U3J3kOZg2PaTYiW6Xf8AST+Jz9Uoz/DO+kn8CYm4zpFvtDex3yJQbiml28u3sX5GbQ4wim0q226lffuvRE+exa2kGv8AqZUckTWwIqKl7q9U7qKqNai/JcY0zjqkwWZmxs7vVai396IhYjYupkNuZIub91qL8URDt2gtImS1LI2KjuBYuey9k/Ktu+1Go75XxS2NVdCslfTInWer1Xmytcv/AMfKWrIquVVVVc5VVVVVVVVVW6qqrxlVziQOo/V46BrqmdmWWRERjV6pke5eMnWcq2XL2LUTruchD1KhxsQ1zxzJlbmRz+RGttZL8q2RCL6cyNW6v41lytzI5eRETYl+VbWMyM5DkUB6jPQhbum+PpTU0sy9ixbIu67l3Nb5XqieUh3NMrlVzlu5VVzlXlVVW6qvyjNu0VpL7TSNXeq8JJ3k3MTvOddfkmM9XOj/AEzVwxWu3NnfzZGb1Re47cz5R5vxtNLU6tCp8LYyzV9p1r9iW95BuLZh1QqMKRh8Vk/ida/Zp7yRmqrRbpejiaqWe5Fe/nzP32XvJZvkMBa3tGul62VESzJPZWfK6pPI+/F7XKSwhZZETmQxJtCaM8JTtqGpxoV43gPsju/ZbO8infYroTX0bc4TdYKIrehqWX3ar0HZYkpDX0rc4bdYaIrehEsvu16i1NnvSjg5n0zl4sqI5nhonGRO65m/5LiRFiE2CYq6CaOVnVRva5O7v3tXuObdvlJk4HiTZomSsW7Xta5q86KiKYfg6q3jEo6Ueu+hrvfZX5Lf3GHgeo7vKul38KGu96F+S39x6Klna3Pe+o8BS8VLO1ue99R4CkiVn7DMew7uO4qX2SP7Du5SJZLzVl7hpfEx+ghEMl5qy9w0viY/QQhDwY/aZnoTvIk8H/lo/QneXaAD0STeAAAAAACilSgBEzXN75VPyPu2nuaoNFGVkFbE7mjyra6tdx7Knyk+UeHrm98qn5H3bS+9mpPdX+3+8eYqbAZHxPHhxEzNc+Kjk5UVHEBSEJkbEMWHETM1XxUc3ms4w1jGFvp5ZIZEyvjcrVTrL10VOdFbZzfiqhmPULrBt+Ryu51gVeblcy/xeVvxbt7A9fXtoFwzOmY2+yRpx7cro03/ADt3r3r/ABSP9LUuje17FVr2KitXrtVq3RU8pYjQ42E6vnZmWCuz95i7U6U70MeK2Nhup5m6wV2fvNXi6U70JvnGZdy94s/VppslbA125JG8SRvM5OXyL1Te+ndLvnTir3lPSstNQ5uAkaE67HJdrieoEwyYgtjQ1u1yXQhtpj7qqfHy/eOM3bNvuabxy+hGYQ0y91VPjpfTcZv2bfc03jl9CM89YQ/WGP8A/p3kJ4Z8+xv4+8zARS12e+M3eZ6JK0ilrs98Zu8z0TuvCR5sT8RO5x2GPPNye2ncpcGzr7pm8W30lJGoRy2dfdM3i2+kpI1DZ4B8zwul3epn4N82Q+le9TmACRzuDoqepd3l8xC/Sj3TP4+b7xxNCp6l3eXzEL9KPdM/j5vvHEIeFD7NL+0vcRP4QPs8HpXuM57N3uabxy+hGZhcYe2bvc03jl9CMzC4kHCnmqV9n5naYd82y/soRI1u++NT4TPu2Hr6tcA6Zo6+NEu7LG5u7fmbmc23ymp+s8fW7741XhM+7YZA2a2+6k50j8ziCabLJM4kjwXbHOjIvQqOQh+nwWx69Ghu2K6Ki9aOQwnBMrHNc1bOa5HNXroqLdF+khMnRHGUqaeGZOR7GutzLbenkUizrKwDpasnjRLNV/CM5sr+MiJ3Ecqp8ky7s66QZ4ZKdV9qdmanxZLrb6aP/UbzA0dadVJmnROO6J7TV+KXNvhGM6RqMeRicd0/ibf4XMyHVO9ERV5kOaqWVrdx/peilci2e9uRvPmfxbp3URVd5CeZ2abLS8SO7YxFVepLkxTcdsvBiRXbGoq9hG3TzHVqauaW90c9Wt8BvFb9JEzeVS5tJsA4DC6S6WdJLwju+9jlT7CJ+stLRDA1qKmGLfx3pm8BOM/7CKZm2h4UZS06IlkSS3eTg3nmqmyzpuSqlUibVRUb0uW69mhA1PgOmpWfqETaqWTpVUVfgYk1c+7abxjfMpMNnIhDzVz7tpvGN8ykw2ciHfeDL7DG9v4Idn4P/scX2/ghg7aU5KXvv8yGJ9B/dlN46P02mWdpVN1L33+ZDCWF4g6J7HttmY5HJe6oqtW6XRFav2jgMWRWwcQrEfwWrDV3UiKcViWIkGu538FFYvYjSbkS7kOVyMjNoGv5oPoP/FOXqgq/mg+g/wDFJYb4QKRbhv8AyqSSmNKZ67vyqSYMK7QukjUiZTIt3OdnciKm5refm41sveXtSxcQ16Yg/s2xeAz+dzixZqh8r8z3K971S7nutdeRFVXLZE8J2Vpx+I8dS05KvlJJr3Ofo5zktpzJqqquziOYruMIE1AfKyjXZn6K5yW05k2rfZxHp6GYQ6ergjbyulaq+C1czl8jEVxMiBtkROZEMYanNXLKVvDPVr5pGpxmqjkY3lytVOXNuVzuy3dqhlLKdngeiOpskr4ukSIqKqciImidO2/9DqsI0h1PlFdE4b1u5OROJOnj6zytKvaJfAXzKQwcTP0q9ol8BfMpDBxwvhR8pK9Dvgcf4QuHL9C/AlTqT97oP9z03F93IsaM65qmlgZAxsatYjrK5FuuZVd2zU5VPUbtEVnaRfM7+Y6el44pcvKQIMR7szGNR29XaiIinQU/FtOgS0GG97syNajt6u1ERFJKi5Gv1RFb2kXzO/mHqh63tIvmf/MbP/EGkeu/8qmx+mdM/aO/KpJJrypGz1Q1Z2kPzO/mM6aF406opYZnIiOkYjlRL2RVS62vvsb+kYkkqq90OVc5zkS7roqabDb02vSlRc5ku5XKiXddLHvqRP1y++NT32fdtJYKRP1y++NT32fdtOO8JXmxn4jf5XHL4983s9tO5xd+zVJ7LU+BF53kgGETtWesFtA6Rysc/OjEsiolsquXffvmRfVKs/wz/pIYGEsTU6RpkKBHjNa9L5m2XjVVTYimHhmvSMpIQoMeM1r0vvbLxqq8SGbyhhH1Szf8M/6SHTU7SyW4tNdfjSIifqa652S40o6JfxhvY75HUriulp/8hvYvyMy4tiTIo3PeqNa1qqqryIiJvVe5YhrjuI8LNNIiLx5HPS/KiOcqonyW2Lh0y1oVNcmV6o2O9+DbdEW29M6qrldl+S3qXZbngYFgUtVK2KFqvc5fIids5exa3tiG8XYhSuxYUrJNc5iLppq5y6aJt099yK8TVtKzEhS8q1zmoummrlXTRDNWzZRrwdRIvI56MTvtS6+khmxyFu6D6Lto6eOFu9Wpxlt1Tl3ucvfcq97k6xcRPWH5BZCQgS7+Eib7pXVfepM9Gklk5KFAXaib7pXVfepEnWzg6w106Km5zke1esqPTev00cnkU9LU/rCSikc2W/AyZbqiKqsc3kcqJxlareq6pdyfGMy60tWza6JHNs2eO6sVeRb8rHW6y/ZWy87XRlxXBJad6xzMcxydZU5e61eRyfGbxSBq9ITuH6o6oS7fq1crmOtdN9ta73oQ5WJOaotS8dgtuxVVUdxa7WqTFwrSGGZqOika9q8itcip+o9NXEIKTEZI1zRvex3OxzmL87VzF5YTrnr4kRFm4RE60rWr86tyvX6R2Mh4S5aIlpqE+G71mWcnvsvedRJ49l372YY5rvWbqnwXvJWopaemerqCuWNZkd7HmtZVbfNlui8/UoY2wXaQXck8HfdG69+812X0jJWi+sekrN0UyZ7XVjuK9Ofiu3rbnTincwK3SqxD3BIsN97fVxNFXj2La/Vc62DVqbU27kkSG+/+27RV49i7T5sA1SUNNI2WKJUkZfK5XyLa6Ki7ldl5FXrdcvRhRid052OklpSDKs3OAxjG7crUREvy6G/l5aFLtyQWNY31WoidxzABnGSAAAAAAAAAAAAAAAAAAAAAAAAAAAAAAAAAdU/IveUhzp77sqfHO85MafkXvKQ50992VPjnechjwm/YoHt/BSLcffZYXtfAzLs3e55vHL6DDLVbTI9rmuRHNcioqKl0sqWVFReVDEuzh7RN45fQjMxvO4wu1HUiXavqnW4fTNTYCfukRNZWhS0VQrERVifd0Tvi9dt+urXLl8FWdsffqk0+6SqER62hlVGyX5GryNf3LdS74vgNM+6xNC2VlO+PkenGjd2rk/YvUr8VV5yJtbSPje9kjVa5qq1yL1lRbKQjiCmxsOVNk7Lb2Gq3ZyJ6zV5vgpEtckYtCqDJuX0huW6cicrV5vgvMTWqJE4NypyK1V/UQpr+rf4bvOpnXUprA4WFaSV3HjYvBqq73Rolrd1Wbm/N8YwViCcd/hO86mZjipwqlJyMxD2Ln05F3t0XoMrGM/Cn5WTmIWxc2nIu9ui9BJnUH73x+FL944yQY31B+98fhS/eOMkE24d82Sv4be4lqh/YJf2G9yHMAHSG7OLzDO0j7RB43915mZ5hnaR9og8b+684/FvmmZ9n4ocziTzbH6Pihh7Vz7upvGJ5lJix9bvEO9XPu2m8Y3zKTDZyIcT4MvsMb2/ghyfg/wDscX2/ghiTXnq+4aPpmJvssaLmROV7OVU7rm9U35TezI8wTujc1zHK1zXI5qpuVHNW6Ki89ybc0Obd1iL+uHV/0nPnY20EqqrbJua7lVm7kTrt+LdvYoarH2H3QnfpSWbrpuuXiXid8FNfjOiqx36Ql266bpl9zvgvUZx1ZabNradrrokrOLI1OsqddPir1Tf/APRjfaV9spfBl88ZjzV7po6iqGyJdWOs2Rqddqry252rvb8pvZF87Qtc2TpN7FRUcyRzVTeiovBru7i3LcziFtVw5GbEd9ezIkTn3yWXr4yiYrSVKgxc3lWZUic+qWXrLa1Le+NP8v0HEryKGpX3xp/l+g4ledL4NvNj/wARe5pvcB+bl9te5p1yyWRV5iH2sTSHpqrmlRbtzZGc2Rm5FTwt7/lEitb2knS1HI5Fs96cGzwnIqXTutS7vkkUkac94Sqn5KRZ7UTub8VNHj2oX3KSZ7Tu5PiZX1E1tNA+WaeSON6ojI0e5rVtuc5d69d2VPkoZpbrJof8TD+kZ/EiZ/Y83wUn0HfwH9jTfBSfQd/A0FFxfNUyVZKw5NXNS++1uqqt1XYailYmmKfLMl2SyuRPS11vqSlxbTfD5onxuqIFa9rmqnCN3oqKipy90ipiMCMkexrkcjXKiORUVHIiqiORU4vGbxjtXB5vgpPoO/gdNRQvYl3Me1F3Xc1US/lQ0mJa9HrCMdEllhuZffJfYvEtzT1+sRqoxjokusNzL75L7F/9GeNnnSjNFJTOXjRrmYi9o9d6J4L7/O0zQhD3V3pGtNVRS3s3Nkk5sjtyqvgus75JL6nkzIi86E04Dqvj1PbDev1kPe9XF7tOoljB1R8bkWsdwmadXF8uo+gopUopJh3ZEzXL75VPyPu2l37NfttT4EXneWhrl98qn5H3bS79mv22p8CLzvPMdL/Wt34kT/qICp36yu/EifEkKAD04T6cDEO0f7li8c30JDLxiPaMjvSRr2srV+y9P2nJ4o81TXsqc9iDzfMeypgTRz3RT+Oi+8aTTpupTvIQpwaZGzROXkbIxV7zXov7CadE7it7yeYjnwYKm5TSc7e5ThPB8v1MdOdO5T6SpQqTkS4cCO+0b7fD4L/O0kQRu2iapFqo2ddI830nW/dI4x8qfoeL0t70OGxmtqZE6U7zwtS3vjB8v0HEr1Ipak474jCvMj1+zb9pKw1vg2T/AEx/4i9zTBwH5uX217kMNbSXtMHjf/1yGAqWlV7msbbM9yNbdbJdyoiXXrb1M+7SPtEHjU9B5hLRL3VTp/34vTQjrGkBI1dbCdwVyJ2nD4rhNi1hjHceVC7Gaja/4Nn0v/Y4VGpHEES6RNd3Ecl/tZWkpoORO8hzUkZPBzS3N2xvzJ8jt/oLT+WL2p8iEOI4ZLE5WSMcx6crVaqL3F38qfGPr0Zw2GWRGTT8Ai2TOrbtVea+ZMvfc1W85JzWHoDHWwrxUSZqKsb7b2rzL11avZN/blIr4hh0kUj45EVr2LZzV6ypzc6dk13ZNVCJK/hx1BmWRHt3WXVdM10v+6traka1mgrRphj1bu0Fdma6X5lsqWXvJNaH6oKOmVsjfZZEsrXvVFt3WoiZEX42XN8YyI0jxqV1mrG5tJO68blywuVd7XdovxV7Htep5HNyyFYvIeg8MTUjMybXyTGw09KG3iXjvy9JNmH5iUmJVr5RjWJ6TG8S8/z4zllOueZGoruZN5zapYGufSPpeifZbPl9jb8pFzL8liOXyIb6fm2yctFjv2NRV7OLrN1OTLZaBEjO2NRV7CO+nGkHTVXNNe6OdZngN3N3da6IjvCVTIGoqupYFkmmmiY9bMajnMa5GpvVd63S7lT6LTETGqq2RLqu5ETlVT7P7Gm+Ck+g7+B5KplWiwKi6orBWM+7l47XdfXTp0PNVPqcSHOrPLDWIt1Xj2rxktH6yqH/ABMP6Rn8TytIdMsPmhfGtTCrXsc1U4Rm9HIqL1+XeRfdgs3wUn0HfwK/2NN8FJ9B38CRYuP5yKxzHSK5V6fkdy/Gsy9rmulFy9Z81VFlc5LouVypdLKjrKqXReps63Ykgdn3SjhIX0zl40K3Zfrseqqnfs/N+owBV4e9u9zHNTrKrVS/zoXHqx0j6Vq4n34rl4N/NleqJv7iPsvkOHwxU3U6qsc7escuWIi8jvktl6jkMO1FZGoort6x2jk5l+S2XqJfIWbrd976jxa+Yu+J90vzloa3fe+o8WvmPUFX1kJj2Hdx6DqS3k4/sO7lImEu9WXuGm8TH6KERCXerL3DS+Jj9FCEPBj9pmehO8iPAHl4/QneXYhUohU9Ek4AFLgAqAAAUUqUUAiZrl98qnvs+7aX7s0f9V/t+ZxYWuX3yqe+z7tpfmzR/wBV/t+Zx5oov62RPxInc4gik/rLE9uJ3OM4SMzIqLyEW9b+gHSdRmY20MqqrLcjHcrmdxOyb8Xi9iSnylv6a6LsrKd8L+yTiutdWuTkcndv/wDeMTJimhMq0m6H/uprCdz8nQuxST8Q0dtTlXQ/9xNYbufk6F2EZNXGmTqGpbJvWN9mzN5233Otzt5W+VvZEr6WtbIxHsVHNc26Km+6Kl7365DPGsIkp5nwyJlcx1l5l66KncVLOb8VUMu6jdYeVHUkrudYVXyq5nyeVvlb2CEU4Irr5KM+lzW9S67nm9F3G3r7+kjnCNYdKRXU6Z3qXXLm4ncadff0mLtMvdVT4+X03Gbtm73NN45fQjMIaYr+VVPjpfTcZv2bfc03jl9CMw8IfrDH/wD07zGwz59jfx95mBSKeu33xm7zPRJWEVtd8apiEq86MVO9a3pIp3vhHT/TE/ETuU7HHaf6cntp3Ke5s6+6ZfFt9JxIwjds7zWq5G9tFdPku/8AkSTM/AC/6RC9p3eZuDF/0yH0r3lSoKEkncnTPyL3v2ELtJvdE/j5vvHEzqx1mr3l8xC3HKjNPM5OR0sjk7yvcv7SD/Ce5PF5dP3l7kIl8IKpuEBOde5DO+zf7nm8c70IzMTzD+zky1NKvPM79TWJ+wzA8kPCulKlfZQ7bDvm2B7JEnW5741PhM+7YZB2aOWq/wBv98x9rb98anwmfdsMg7NH/Vf7f75ClC/WuJ7cXucRRR/1jd7cTuUbR+Ae01KJvS8b17i8Zt+41yL9IsPU7j/S9dFdbMkRY3d91lZ9tEb5VJFaxMB6Zo54rXcrFVnhN4zV+miEQoZnMcipdHNcipzo5q3Re/mQzcXwnUutwJ9nBfZ3W2yOTrS1+kzMTw1p1WhTzNjrL1t0VOtLdpONFI97Q+keaSKnbyMRXuRF3ZnXay/eRHfOZi0Zx9JqSKoSyI6PMvcXLyeRboRU0vxvpmpmn6z3rl8BOKz7CIddjurI2mQ4cJ2sZU/Loqr3dp0uMakjZCHDhrrGt+Xb8u0yTs7aP5pZKhU3MajGqqdd1ldv7iI35y4dpH2inX/u/uPLs1S6OdL0UTVSz3Jnfz5n8ay91qWb5C0tpJfYIPG/uPPsSneIYXfC9JWZndLrL7tnUHSHiWHnw14WW7ulVRfds6jD2rn3dTeMTzKTEZyIQ81c+7abxjfMpMNnIhi+DL7DG9v4IWPB/wDY4vt/BDB+0su6l78nmQwtg2H8PJHHeyvc1ma17ZlRL2u2/L1OYzTtKclL33+ZDEug62rKbx0fptOCxXCZGxFub+C5YaO6FRDjMSQ2xa6jH8FVYjuxDJjNmuT/ABLf0S/inL1NMn+Kb+iX8Qz5Em5O8ciYG4Fo9vIf8nfMlFMIUv8AYf8AJ3zI7V+znUJ1E0cnhNczzOcY90p0MqaNyJPHlRepei3Y63WRyci9x2UmSp4OlmjsdVA+J6IqK1bLa6ottzk7qOs7yGlq3g+kXwHOlM0OL6OqqiryLe668vEaepYJkokJyy+aHE9HW6LzLfUjLq/1kS0Mib1dEq+yRqt0svKrL8jvS7L4srMLxJkrGSMVHNe1HNcnXRUvf9ZCuaNWqrV5WqqL30WxI3Z8xR0lGrHf8qRzW95bOt87jnfB/WY+7up0ZznMsqs/dVNqJzKaXBNVi7q6RiuzJZVZzKm1Oj5F/wClXtEvgL5lIXuJoaVe0S+AvmUhe4o8KPlJXod8C14QuHL9C/AyLonqVlq6eOobK1qPR25Wqq8Vyt5Ud3D2G7Oc/wAM36C/zGTNSj/+HQf7npuL8U6il4KpUxKQIsSE7M9jVdvl2qiKvGdDT8JU2PLQYj4bsytart8u1URV4yPPqcp/hmfQd/MPU5T/AA7PoL/MSIBtPoDR/wBk78y/M2P0Npf7JfzL8yO67N8/w7PoL/MZq0PwRaemihVyOWNiNuiWRVRERVRD20KON9SsOyVLe6JKsVrlSztVXTbxqbinUKUp7nPl2K1VSztVXvORE/XL741PfZ92wlgpE/XL741PfZ92w4vwl+bGfiN/lccrjzzez207nHi6L6HT1avbCiKrEaq5ltucqonf5FLn/uKr/g2/S/8AiXHs2e21Nu1i87yQCIc1hnBchU6fCmYqxc63zZVRE0VU5FNDh/CknPyTJiKsTMt+CqW0VU5CJGM6pa6BqudArmpyqxyOt5L5vslok4XwopgzXbqyREdWQMsiXWZjU3LzyIici9t2zd/Y8bHxHgBspAdMSL3uRurobrKtuNUVLbOQx65gpJaC6PJq51uFDdqtuVFRE2chaGrXQGlrNz6lzXpvdCjEa5bddHKrkczwW/R4pIjRnRCnpG5IImsRbXXlc5U66uXjKQ9oqt8bmvjcrXscitVFsqKnMSg1W6wUrYbOVEmjs17fM5vcWy+C5HN62Y2OAJ+nvduCwIbJm29ibVcnHZVVVReVENhgudknruCwIcOPbev9ZOPVb2XlRDIFygPKx3G2wRPmdfKxquWyXWyJdbJ3icoj2w2q962amrlJdc5GNc52xD1cp5eM6NwztyyxMenxmovlS5jKo2jqdOphmXvpGn/7LmVMJr0ljZI3qXtRyX5bKl0/Upp5apSNSzw4T4cWyb5u1LL06Gsl5+Un88OG9sS3Cbt2mM8a2eaWS6xOfCvWRFzM+Z2/6Lmlh4vs+Vcd+DcyZPKxV8i5kT6RJYGhncF0qa1WDkd60Ncvu2e40s3hSnTOu5ZXeszT3bPcQvxvQ+pp1VJoHx27JW3Z9NuZn2jzIZlaqOaqtVFRUVqqioqcioqcik3JaVrtyoi35d1zAeurVjHAi1UDUY26JIxNzUzLZHNTrb1RHW4u/Nxcrs0V17Ab6fCdNycVzmM1c1eEiJxoqaLbbxEc1nBjpKE6ZlIjlRurmrtROW6bbdR7WprWu6ZUpql15LexSLyuRqb2u+Oib83ZNRb72rmzO1SE+D16xSRyt3Oje13zORbd4mlRdQ1U66Id9gKtxalKvhx3Znw1Tfcaot7X50suvQdng2rxZ6WdDjLmcy2+41Rdl+fRdT6yoBKRIYAAAAAAAAAAAAAAAAAAAAAAAAAAAAAAAAB1S8i95SHOnvuyp8c7zkxpeRe8pDnT33ZU+Od5yF/Cb9ig+38FItx99khe18DM+zd7mm8cvoRmYjDuzd7mm8cvoRmYTusKeapX2fmdhh7zdL+yhxsYM18av7p05E3eiIkyJ2vIj7c7ey+L4BnREPmq6ZsjVa5Ec1yKiovIqLuU2FapMKqSr5eJx8F3IvEpk1WnQ6hLPgROPgryLxKQqw3EHQvbJGuV7Fui+dO6jm3a5O1VTqllzOV3JdVVU763Lp1m6DrRVDmIi8E+7onfF67L9dWuXL4KsXsi08x49qEvHk4j5SPdFYq73ivyp0pbXjPME7BjykRZWLojFXe8/KnSiJrx6En9QfvfH4Uv3jjJBjfUH73x+FL944yQevMO+bJX8NvcenaH9gl/Yb3IcwAdIbs4vMM7SPtEHjf3XmZnmGdpH2iDxv7rzj8W+aZn2fihzOJPN0fo+KGH9XPu2m8Y3zKTDZyIQ81c+7abxjfMpMRnW7xxPgy+wxvb+CHKYA+xxfb+CFFYeDpjoyyrgfC9Nzk3La6o5N6KndzHvuU4vJdjwGR4bocRMzXIqObyopJcWEyKx0N6ZmqllTmIU43g8kE0kUiWex2VeZU5Wqncc2yt75StxqR7I4nLdsWbg79ZHK1Vb3mq3i9/wTPmvHQDh4+mYm+zRJxkTlfHyqndcm9zfKm+5HVOU8jYkpEWiTUSC1Xbi9N6vK26LZedFRDzNXqbFpMd8Jqu3N/BXlbe9l6FL61Ke+MHy/QcSsd+wipqT98YPl+g4k3jmJNiikkctkYxzlXmREVV/UhMXg5ejKVFcvBzu/laSpgZ6Mpr3L67u5DAO0DpLwlQynavFgS7vDeiLZe9Hb6ZbOqXR3pmuiRUuyNeFd8i2X/yq35Ny2cZxF08skr+qe9zl7l15O83qfIZ62d9H8kElQ5N8rrN8Bl0unferv1Ef01rq9iHdX+Ta7N/C3gp3IpxMg11arixXeTaub+FuxO4y42iZ2qfMhXpRvap8yHfYWPTm5s9VCfsjeRD5uk2dqnzIWVrZ0V6Yo5Ea272cdlkS+ZiXsnhJdvyi+7nCWO6KnOYE7Iw5mBEgualnoqL1oYs1KsmIT4Tk0VFResg40lVqb0l6YomXW8kXsb+e6Ill+UzK7ykedY2jvStZNEiWars7ObI/eiJ3EddnyS6NROk/A1fAqtmTpbfyI9t1b9Jub5Vuc844Tm3UesulIu9a9VY7pvvV+HWQThqYdSqo6WibFVWL030Xt7yToUNCnqE9BkTNcvvlU/I+7aXfs1+21PgRed5aGuX3yqfkfdtLv2a/banwIvO88x0v9a3fiRP+ogKnfrK78SJ8SQoAPThPp1PLG1y4SstBOiJdWokifIcj1+yil9qfPW06OarV5FRUXy7uTrmvn5VJuXiwF2PaqdqWMOcgJMQYkJeNFTtSxB8lzqz0qbVUsbkXjoiNkTrtc3cqL3F5W/FVCOGsLQl9DO5qovBuVXRP5UVva37ZL2d8l3ZHnaL6Wz0knCQvVL2u1Uu1yJ1nJ8+9uVzd/G4x5nw/VYmGahFgzLHbmuj040tscnL8iAqLUolAnYkKYY7Kuj040tsVOX43JnKGqYNwzaRbZOGgci2/wCW5HIq95ytsnzn11G0jB2EEir8bInme532SdG4wpKsz+MN99+y1yYG4npjmZ93b779lrmY55kairzERNZWkaVVZNKm9iKjWcytbuui8yuzL5T2NMNclTWNWNtoYnJZWtVVV3Ojn2bu+KjW3ut8xY1BRPlc2NjVe96o1rUTeqqQ9jHFDKvkkpJHOYi3c63CXYiIm23SRfinETKmjJSTzOZe+a3CXYiIm3jMp7OuEZ6iWZU3RsRqd96ou76H6yRqlm6s9DEoqZse7hHceVU5FetroncRERre8XiTNhWmLTqdCgO4eqv6V1t1aISph2nrISMKC/h7XdK626thh3aT9og8b+48wlop7ppvHxfeNM27SftEHjf3HmEtFPdNN4+P7xpCmLv1ih//AJ/AirE3nyH/AAfAmdByJ3k8x3HTByJ3kO49LM4KE8JsOkw3r50Bzs6bibx2J7IiJvVnPu5XM6rvZvimZlOmeFHIqKl0XcqKaisUuFU5V8vF2LwV5F4lToNXU6fDn5Z8CJx7F5F4l6iEDHW3puVN6KnWJSan9O0rKdGvX2aKzXp227iut3UT6SLzGDdamhPSVSqNT2KS7ol6yb97PIqp8lUPK0J0qfR1DJm3VvJI1OyYvKnfTcrfjJ3TzhQajGw3U3S8xpDvlit7nJ39BBVFnYtCqKwIvAvlip3OTv6FJjvI16/tJeGqkgReLTt3+G9Ecv0W5fnUztVaVRtpXVSKisSJXoqddMuZLfw7pEHEq90sskjlu6R7nL33Kqr5N5IfhEq6NkoUtCd5Rbu9lNU7VtboO5xvU0hyrJdjvKLdfZT5rbsLu1P6OdMVsaql2ReyO77bIxO/nVHfJUlU2jbbqU+ZDFWz7o9wdM6dU407rp4LOKn68zvKZbudFgmltk6ZDVzd8/fO69nusb3CdOSUkGK5N8/fO69nusdXSje1b8yfwHSje1b8yfwO+wsSDubeRDs8jeRDHOuLRVJ6OTK3jxeytsnXYi3Tdy3ZmbbuoRcaTiqGXRU7hDvTzR7pWrmitZqOuzwHb2/RRcvhIpAnhJpeRYU9Dbb0X97fihDOPKflWFON9l3enxJI6o9J+maOJVW8jEySc+Zu66+ElneU7tbnvfUeLUw3qB0l4KpWBV4s6bu49iKvkzMv8yGZNba/8PqPFr5jtKXVf0jQHxFXfpDc2J0o1detLL1nWU+o+P0Z8ReEjHNd0o34pZesiVmJfasl/IKXxMfotIgGWNHdfz6eKKHpZHJGxG5lly3yoiXtkda9uTMRPgWsylMjx3zUTI1URG6KvHzIpG2D6rLU+LGWZflaqIjdFXj5kUkkDAXqmX/4RP0y/hD1TL/8In6ZfwiZfpzRvvH/ABd8iVPpbSv2/wDxd8jPIQwQm0w//CN/TL+EXtqv1mriKzIsSRcFktZ+e+fN8RtsuX43KbCRxVTJ6M2BLxs0Rb5W5XJsS66qiJsMyTxFITcVsGBFzPW+VtnJsS/GiIZGAB1x0oKKVKKARM1y++VT32fdtL92aP8Aqv8Ab8ziwtcvvlU99n3bS/dmf/qv9vzOPNFF/WyJ+JF7nEEUn9ZYntxO5xncoVB6XJ3MO69NAOGj6aib7LGnHROV0fKvfcze5vyucj3TzqxyOaqo5qoqKm5UVF5UJtzU+ZFReQi9rh0A6TnzMS0EqqrbcjXcqs7iddvxeL2JAeP8PKx36Tlm8m65eJeJ3wXqIbxnRFYvj8Buum6ZeXid8F6iyMQrVke56pZXKrlTmVyqq+cz9s3e5pvHL6EZHlrCQuze78nm8avoMOWwDEWJV868JWuVxzuCoiuqeZ/CVHGYWoR22icIyzxTJyPYqL32Kq/v/qJFXLM1naGJW0z40twjePEq9Zzb7lXrIqKrfL8UnbFVNdUadFgs4eis6UW9uvYTFiGQWekYsFnD2t6U1t17COerjSRtLWRSruZdWO8F2669xHWXyEt4J0VqOTei70sQlq6R8bnMe1WuYqtc1Ust05UVC+NCtcVTRojHWlhb1LHqqKnca9M1m/FVrstt2UhjB2KW0fPJTqOaxVu11uCuxUVNtugijC2ImU1Hys3maxVujrcFdi3TbbQlSqlUMM020jAvVQSovxcqp86vS58eJbSLd/AwOVbf8xyNt3bN4Td8xMETGFJYzP4w3+G6r2WuSk7E9MYzPu7fffstcyNrJ0nSlpJX3s9Wq2NOur3bksnX37/BRSIjF3qe7pXpnPVvR8zlsnUMbuY1O4nXXurmXk7Vp9+rrQWSunallSJjkdK/kRG8uVF7Z3U/F3u7Eg/EFViYmn4UGUY7ImjE41vtcvInchEFbqDsQTsKDKtdlTRict9qryfJDP8AqXwpYqCK6WV6Oevdzqrmr9DKX006aOmRjWtTciIic3JuO5V5T0rISqSstCgJsY1E7EJ7k5dJeXhwU9FETsSxEzW5741PhM+7YZB2aP8Aqv8Ab/fMfa2/fGp8Jn3bDIOzT/1X+3++eeKD+tcT24vc4hGj/rI724ncpnKVt0Ii60MB6WrZ2Ws1zuEZu3WfvW3cz3TyEuzCG0Zo7dsNQib2qrHr3Hb2qvcR6ZflkmY+pnjdNdEbwoao7q2L336jv8YyHjUg56cJi36ti/PqLT0Z094LC6mDNxkcjY/BmXfbwVV6+RC09BcA6ZqoYrXRz0c7wG8ZyfKtl8qHgZut1l63e5POvzmbdnLAEV01Q5OS0bF+Zz/3f1kM0Z8auTslLROBCSzvZaqqvalmkV0t8SsTcrLxODCS3UiqvvSzTO9O2yNTmRDD20l7RB43/wDW8zIhhvaS9og8b/8AreegcWJlpEwier8UJqxElqZH9kw/q59203jG+ZSYbORCHmrn3bTeMb5lJhs5EOK8GX2GN7fwQ5Pwf/Y4vt/BDB+0pyUvff5kMS6DJespvHR+m0y1tLJupe/J5kMLYLiHASxy2vwbkfa9r5VRbXs63Jy5TgsVxWQcRbo/gosNXdCI04zEcRsOvI9/BRWK7sQm1Gm5O8VMBs2ln/4Rv6Zfwjl6pl/+ET9Mv4RMjcc0a32j/i75EqJi2lft/wDi75GeDxNKseZTQvlkWyNavlXrIndVbJ5TDFXtJyqnEp2NXn4Rzk+ZGIY70s08qa1U4Z/FRboxqWY1ee3VKuVeyc7lU0lW8IEhDgOSUc6JFtvdFREXlW9tnMaeo41kYcJ3i7liP9HRUS/Kt7HiVFQrnK5eVVVV76rckZs84a5lG56pZJZXOb3UREZf52qYF0V0Zkq5mQxIt3LxnW3Mai73L3G/adZvZEvdHsJZBFHExLNY1Gpz7k5V51XnOS8HVMjPmYlQiN3llRq8qrt7Pic3ganxHzESdfwbKjedV29id5x0q9ol8BfMpC9xNDSr2iXwF8ykL3F3woeUleh3wK/CFw5foX4EqdSsaf2dB/uem4vsjVoZrwfRwMp0p0ejM3GWTL1Sq7kyOty9se56pl/+Eb+mX8I6+lYypMCSgQ4kfK5GNRzcrtFRERdiHUU7FFMhSsCG+PZyNajt67aiIi8RnyxWxgL1TL/8In6Zfwh6pl/+ET9Mv4RtfpzRvvH/ABd8jY/S2lft0/K75GeFacrGBl2mnf4RP0y/hFw6Ca6nVtS2DpdI7tct+EzKmXucG30jKlsX0qYisgQo+Z7lRGtyu1VelDIl8TU2YiNhwo+ZyqiNbZ21elDLCkT9cvvjU99n3bSWCkTtcvvlU/I+7acz4SvNjPxG/wArjnse/YGe2nc4vDZt9tqfAi87yQaEfNm322p8CLzvJBobbAfmaB0u/mU2mDvNcLpd/MpyOieJHIqKl0VLbzvBILm5ksp2qpfQiTrW0FWhqOKnsMl3RL1mrfjM8l0y/FXuOPH0N0qdR1DJm3VE3PanZMXlTv8AIrfjIhKHWDogytp3xusjkTNG5exeiLZfOjviq4iRX0Lo3vjkRUcxVa5OZUWx5hxZSIlDqDJyV3sNVzMc30XJqrfinMefMSUx9InWzcvvWKt2cyptT5E0cGxVk0bJWKise1FaqddFS58el2E8PTTRbrvje1F5lc1U85hbULp/kctJK7iuW8SqvI7lc3vL1Te7m7ZCQaE7Uapwq1IJE5UtEbyLbVPihMVLn4dUk0iJxpaI3kXjT5EHZoVRytcio5qqiovKiotlRe7mJFajtN2S07aZzrSxJZEVeqYi8VU50a1Ua7vfGLM126unRSOqoWqsUi3kROwf13+C7su1W/bGK6KtfE9r43ua5q3RzVsqL3FQgCWmJnClUekRmaHsd+81V0VOf+qELwI8fDdRcj2qsPY795vEqf3zE4CiqR00e2h52WbPG2brZ0XI7vq2zkVfol0N2jKa2+Ga/NxV/WkhN0pjSkzDM27ZP3XoqKnw7LkuS2KqZHbm3ZG/uuRUX5dlzMLnmMtfOkLI6N0KqmeZWo1O41yOctu41LeErS08Z2jXq1WwQWXrPkdyd9rf5jEmOY9LUSLLM5XvXddeRE6yI1NyJvXc3nU5LE2OJJ0rFlpJ26RHorVdZUREXRdtrrbZY5iv4ulVl3wJV26OeipmsqIiLou3attljooaRZJGMal3Pe1qJ3XKiJ9pSalC2zGpzNTzEf8AUbq7dJIlXI1UjZ7Wip1bt6K6y9ZOx+N4JIjIZvg8pMSUlXzEVMqxFTK391L2XruvVYysD02JLSz48RuVYlsqcyXsvXc7gUKkuElgAAAAAAAAAAAAAAAAAAAAAAAAAAAAAAoVKAHU9NxHvSvUdWy1MsjOCVkkjnpd7kVEXkuiRuS/yiQtipz1XoktVYbYcyjsqLdLLY01TpMCpMbDmL5UW6ZVsY+1PaFS0UEjJlYrnSK5MiqqZcrUsqq1u/Mi9iZADCpspKThycFkCFwGpZpnS0uyWhNhQ+CiWadhQqDPMss7WJoU2up3RruenGjevYvTk8nKjviqphF2z9XJ14P0j/wiTTihx9VwtIVSKkaYYue1szVtfp5Tmalh6TqERIkdq5rWzNW3aWfqu0XkpKRkMqtV6K9VyqqpxnKqWu1q9Sval4lWBDpJaWZLQmQYfBaiI3oQ3ktLtl4TYUPgtREb0IdgAMwyjg4x1rg0HmrYo2wqxHMkR651VEtlelks1y3zOQyKcXmBOycOcgvgReA9LOMSbloczCdBicFeER80O1JVsNVDK9YkZG9HOs9yqqJzIsbUv8okGwq0qiGupFFlqVDdClkdlVbuzLfW1jCptLgU6G6HAvlVb6rc5lLFQdAbg+aREXdzmBdMNQUz6hz6VY0ieubK9XNVirytaiNc3LfjN6nLe3YmfZEKqhz9WokrVYaQ5puay3blWyp185pqlSZeow0hzDc1lu3iVOswZq51P1VLWRTSrGrGZ72c5XcZitSyLGjeqXtjIWs/R+eqpXQ06sRz3NR2dVbxE3qiKiOW6qidbqcxeVwpZk6BKyko+Tg5mwn3za66oiLr0IW5WjS8tLPlYebc3Xza66pZdegjImz3X88H03fhEhNG8GSnhjhbyRsRvzIib+6espUoo+HJOlPe+XauZyIjsy32FumUKUpqudLtW68LMtzmVAOpOhBQqADE+uHVk+t4N8KtSRl2uzKqI5i77XRHb0d8XrqY+otQuIMcx7XQNcxzXNXhH7laqKl/Yu2Qktc42OJnMJU+cmlm4jXbppwVtqnGctN4bk5mY8ZiNdummrVtsOFI1crc1s1kva9r232VeVDvUFTs2plSx1JgTWJqdq6msmniWLI/JbM5yOSzGtW6JG5vVIvZFw6nNWtRQvndNwao9rEbkc53JmvfM1vOhlYWOSg4WkYU74+1rt1zK7bpd176dZzULD8pCmvHGtXdbqu3S63vp1nYADsDpQUKgA8LH9G4amNY5o0e1esvW7qLyp32mGdJNnSRFV1NKjk+Dl3Knec1LL9H5Rn7IEQ5qrYekaon+ZhXd6MRujk60+N0NFUaLKVDy8O7vW2L2p3ETKjVDiLf+ncqc7Xxr+9m+ydTdU2IryUz/K6P9sjSXKtCRnDL4NadfhxrdKfI5FcBSF+HF7U+RGbBdQNZIqcJkhb19+Z1vBTcv6RpmXQnVhTUSXYmaVdzpX73LzonWancb3L5spedijlOqpOE6fS1zwYeZ/7SIt1To4k6jo6dhyRp654UO7/WdqvVxJ1IdqAA7Q6gxzrf0FmroY2wqxHMfmXOqolsrkslkct7qhjfAdRVbHPE9yw5WSse6znKqo1yOVERY0S+VO2JFIVQ5CdwvJTk0k3Fa7dNNi2TTZoc3NUCUmpjxqI126acfJs0Ebdyd47ADrk0OkBQqD6Cz9Ymhja2ndGqIj040bl6z05F3dblR3xVUwh6n2v54P0j/wAIk0twcjVsLyFUiJFmGLnRLZmra6c/KczUsPSVQiJEjtXNa29W3aYJp9WmJpROo1dCrFe1ycd+5m9XN9r+FRrm99/cLdbs91196wW6/Hf+ESXVxVqmBHwZT5jc91zuyIiN3y6ImxDFjYWkY2TdM7siIjd9sRNiHnYFg7YYmRN3NYxrE7zURqeY9KxVqFDt4cNGNaxvBQ65jEYmVuw7AAXio6nIYn1v6rpK10UkGRr0RWvzqqIqXu3e1Hb2qrvpGWLlGqampU6DUILpeO3Mxbcy6LfRTXz0lCnoLoEdu9X4akbsL1G4jG9kjVgRzHI5OO/lRUX4LNbcZu01wN9RSSwMVM748rc18ubdyqiOW3yS5VBqqdhyUp8KLAg59ziJZ7XLfitpyaKa+SocrJQnwYWbK9LOzLfiVNOQjN6n2v8A+x9OT8Iep8r+en+nJ+ESZsLHP/4f0j1In5lNL9C6b6jvzKRm9T3X/wDY+m/8Iep9r/8AsfTk/CJMg+f4fUj1H/mU+fQumfs3fmIy/wBwFd/2Ppv/AAjJGprV1PQrOsys9l4NGoxzndRnVb5mt7ZDKSnFxsqbg+n0+OyYgNdnS9szr7UVO4z5HDEjJRmx4LXZ0vl15UsdwKIVO6OsAAAMCax9T1XU1k08SxZH5LZnORyWY1q3RI3N6pF7IunU3q9noeH4ZY/ZMmXg3OdbLmvmzNbzoZOVDjlORlsMSUvOun2Nduqqq7dLuvfTrObg0CUgzSzjGu3W6rt0u699Os7gAdcdIdSsLf0z0YZVwPhf1+pda6tcnIqd1HFxOODjGjwGR4bocRMzVRUc3lRSzFhMisdDel2qlnJzEZ3bPtdzwfTf+EZZ1P6FS0VO9kysVz5FemRVVETK1LKqo1b5kXsTIIOVpmFJCmRt3l2uz2VNVvtOep+HJOQi7vAauaypqt9pzCoCp2Z05Yem2qumrUu9FZLyJIzc7vLdMrk8JO9Yw9juoKsjVViVk7et2Dvoru/8hJgrlOMq2E6dU1V8WFlf67Fsq9PEvWctUcNyNQXPEh5X+s3ReviXrQiO7VPiF7dLP+lGqfOkljsp9T2Iu/6dUTnc+NPM/N9klkjDmqHKN8GlOvq+P2p8jnUwFI31fF7U+RH7RjZ4eqo6qkRqJv4OO6qvcV7suXf2rflNM1YHgEVPGkcUaMY3m86ryqvdU9REOSodzSsPyNLT/KwrOXbEdq5ete5LIdbTqLK09PqGZXcbtqr1/BDsKKgQqdKb4wDp/qZq6ismmiWLI9Wq3M9yOSzGot0SNW9Ui9kXZqd1fz0KT8MrFz5MuRznWy5r3u1vOhk5SljkJfDEjLzqz8Nrt2uq7dLuvfTrU5uBQJSDNeNsa7dLqu3TfXvp1lHqeBpxo101Syw7rubZqryI5N7VXvPs4uJxxeh00eCyPDdCiJdrkVHdC6Kb+LCbFhuhv4KoqO6FIyv2fq7ng/SP/CM56vdFlo6SKFbK5qKr1TkV6qqusqo1VTMvFv2KIXQhRDmqThmRpUV0aXauZUtvlvptNBTaBKU6I6JLtXMqW1W+hVTHeuDQiatijbCrEcyRHrnVUS2V6WSzXLfM5DIpxeb+dk4c5BfAi8B6WcbmblYczCdBicFeER90Q1JVsNVDI9Yskb0etnuVVROZODa2/wAokEwq0qiGupFFlqVDdClmuyqt3ZlvraxhU2lwKdDdDgXyqt9VuYv1yaBz1qQcDkRY1fmR7nNRUciWtla7mUxn6n6v54P0j/wiTYuaeqYQp9RjrMR2uzrbNldbYljVz+GZGfjOjxmuzLbgrbYliM3qe6/np/pv/CHqe6/np/pv/CJM2FjV/wCH9I9R/wCZTA+hdM/Zu/MpGeLZ8rl5XQp8t/4ZcmF7N63RZqhVTtWNRP1uV10+SZzahVrDKg4FpMF2bcnO9py27C/BwhTIa33LN7Sr3Hg6MaH09IzJAxGc68rlXnVV3qvfPbVF3nOwch3UCDDgsSHDa1rU4LWpZEOthQWQWoyG1rWpsa3RD4cWo1kiexLXcxzUvyXVFRL9wjkmz9X88H6R/wCESbBoKxh2Uq6sWaa7e3y5VttNPU6JK1NWLMNdvb5bLbaRn9T7X/8AY+nJ+EU9T3X89P8ATf8AhEmbCxzX+H9I9SJ+ZTR/Qqmfs3fmUjN6nuv/AOx9N/4Q9T7X/wDY+nJ+ESZA/wAPqR6j/wAyj6F0z9m78xGJ+z9Xf9j6b/wi7dWWqSrpKts0qxZEa5FyucrrqiW3LG1LfKM3hVMyUwRTJaMyPDa/MxUVu+40MiVwlT5aKyLDa7M1UVuvGhRXmCdYWp6rqauaeJYlY/JlzOVF3Nai7kjVOVF7IzshVToqvR5eqQkgTGbKioui21sqfE31SpcCowkhR75UW+i21sqfExRqd1dVFE+d06x2ejEblc53Uq5VvmY3nQyohzKmRTKdBp0BsvAzZEvlzLfat9pdkZGFJQWwIXBS+3XatzsAKG2NgdK//wBmIdaup11VK2amVjHqmWRHqqNciJucitRVzIvF8HweNmAKpqKnS4FRgrAmW5maLzoqcaLxGtn6fAn4SwY7czffpyKRmp9QuIMc1zXQo5rkcjkkcio5FuiovBblRSQuBxzJDGk2VZUaiSZVVWq5E32ujVt1+pPUVpXKa6j4flaQr/F8+/tma5bppx25TCplFlqdm8Xza7WuW6Hzy06OaqOS6KllReT5jFGl+oGGZyvp3rC5bqrbZmKvcS7XN7mV2VvWaZfsUU2FRpMrUYe5zUJrk4uVOhU1Qy56nS863JHY1ye9OhdqEWsR1GV7OpjSVPiPan6n5TzF1UYgn/TP+lH+x5LlCisI9i+DemvW7HxW/u3Re9L+84mJgSnuW7Fit60+KEVaLUliMiojoUjTnkkbb5mLIv2TI+iOz/HGqSVL+Fcll4NEyxovd7J/yuLztMxoliptqdgalyb2xMjojk/aLdOxERO02kjhGnyjs+Vz3f8A2Lf3WRO1DrggRqIiIiIiIiIiWRETclkTrHeVBIKNRuiHaoltEAAKz6AAAAAAAAAAAAAAAAAAAAAAAAAAAAAAAAAUBUAFCoAAAAAAABQFQAAAAChUAAAAAAAFCoABQqAAUKgAAAAAAAAAAAAAFCoAAAAAAAAAAAAAAAAAAABQqAAAAAAAAAAAUBUAAAAAAAFAVAAAAAAAAAAAKFQAAAAAAAAAAAAAClioAAAAAAAAAAAAAKFQAAAAAAAAAAAUKgAFCoAAAABQqAAAAAAAAAAChUAAAAAAAAoCoABQqAAAAAAAAUKgAAAAAAAAAAAAAAAAAAAAAAAAAAAAAAAAAAAAAAAAAAAAAAAAAAAAAAAAAAAAAAAAAAAAAAAAAAAAAAAAAAAAAAAAAAAAAAAAAAAAAAAAAAAAAAAAAAAAAAAAAAAAAAAAAAAAAAAAAAAAAAAAAAAAAAAAAAAAAAAAAAAAAAAAAAAAAAAAAAAAAAAAAAAAAAAAAAAAAAAAAAAAAAAAAAAAAAAAAAAAAAAAAAAAAAAAAAAAAAAAAAAAAAAAAAAAAAAAAAAAAAAAAAAAAAAAAAAAAAAAAAAAAAAAAAAAAAAAAAAAAAAAAAAAAAAAAAAAAAAAAAAAAAAAAAAAAAAAAAAAAAAAAAAAAAAAAAAAAAAAAAAAAAAAAAAAAAAAAAAAAAAAAAAAAAAAAAAAAAAAAAAAAAAAAAAAAAAAAAAAAAAAAAAAAAAAAAAAAAAAAAAAAAAAAAAAAAAAAAAAAAAAAAAAAAAAAAAAAAAAAAAAAAAAAAAAAAAAAAAAAAAAAAAAAAAAAAAAAAAAAAAAAAAAAAAAAAAAAAAAAAAAAAAAAAAAAAAAAAAAAAAAAAAAAAAAAAAAAAAAAAAAAAAAAAAAAAAAAAAAAAAAAAAAAAAAAAAAAAAAAAAAAAAAAAAAAAAAAAAAAAAAAAAAAAAAAAAAAAAAAAAAAAAAAAAAAAAAAAAAAAAAAAAAAAAAAAAAAAAAAAAAAAAAAAAAAAAAAAAAAAAAAAAAAAAAAAAAAAAAAAAAAAAAAAAAAAAAAAAAAAAAAAAAAAAAAAAAAAAAAAAAAAAAAAAAAAAAAAAAAAAAAAAAAAAAAAAAAAAAAAAAAAAAAAAAAAAAAAAAAAAAAAAAAAAAAAAAAAAAAAAAAAAAAAAAAAAAAAAAAAAAAAAAAAAAAAAAAAAAAAAAAAAAAAAAAAAAAAAAAAAAAAAAAAAAAAAAAAAAAAAAAAAAAAAAAAAAAAAAAAAAAAAAAAAAAAAAAAAAAAAAAAAAAAAAAA//2Q==;" vertex="1" parent="7">
                    <mxGeometry x="490" y="100" width="310" height="174.38" as="geometry"/>
                </mxCell>
                <mxCell id="11" value="&lt;font style=&quot;font-size: 24px;&quot;&gt;Sum of all the numbers from 1 to the integer entered&lt;/font&gt;" style="text;html=1;align=center;verticalAlign=middle;resizable=0;points=[];autosize=1;strokeColor=none;fillColor=none;" vertex="1" parent="7">
                    <mxGeometry x="150" y="40" width="580" height="40" as="geometry"/>
                </mxCell>
                <mxCell id="12" value="Enter number" style="text;html=1;align=center;verticalAlign=middle;resizable=0;points=[];autosize=1;strokeColor=none;fillColor=none;" vertex="1" parent="7">
                    <mxGeometry x="10" y="140" width="100" height="30" as="geometry"/>
                </mxCell>
                <mxCell id="13" value="_____________________________" style="text;html=1;align=center;verticalAlign=middle;resizable=0;points=[];autosize=1;strokeColor=none;fillColor=none;" vertex="1" parent="7">
                    <mxGeometry x="10" y="170" width="230" height="30" as="geometry"/>
                </mxCell>
                <mxCell id="14" value="Calculate" style="whiteSpace=wrap;html=1;" vertex="1" parent="7">
                    <mxGeometry x="20" y="210" width="200" height="30" as="geometry"/>
                </mxCell>
            </root>
        </mxGraphModel>
    </diagram>
</mxfile>